{"glyphs":{"0":{"ha":694,"x_min":0,"x_max":0,"o":""},"1":{"ha":694,"x_min":0,"x_max":0,"o":""},"2":{"ha":694,"x_min":0,"x_max":0,"o":""},"3":{"ha":694,"x_min":0,"x_max":0,"o":""},"4":{"ha":694,"x_min":0,"x_max":0,"o":""},"5":{"ha":694,"x_min":0,"x_max":0,"o":""},"6":{"ha":694,"x_min":0,"x_max":0,"o":""},"7":{"ha":694,"x_min":0,"x_max":0,"o":""},"8":{"ha":694,"x_min":0,"x_max":0,"o":""},"9":{"ha":694,"x_min":0,"x_max":0,"o":""},"\u0007":{"ha":1389,"x_min":0,"x_max":0,"o":""},"‛":{"ha":1389,"x_min":0,"x_max":0,"o":""},"‟":{"ha":1389,"x_min":0,"x_max":0,"o":""},"\u0005":{"ha":694,"x_min":0,"x_max":0,"o":""},"\u0006":{"ha":694,"x_min":0,"x_max":0,"o":""},"\b":{"ha":694,"x_min":0,"x_max":0,"o":""},"\n":{"ha":694,"x_min":0,"x_max":0,"o":""},"\u000b":{"ha":694,"x_min":0,"x_max":0,"o":""},"\f":{"ha":694,"x_min":0,"x_max":0,"o":""},"\r":{"ha":694,"x_min":0,"x_max":0,"o":""},"\u0019":{"ha":694,"x_min":0,"x_max":0,"o":""},"\u001a":{"ha":694,"x_min":0,"x_max":0,"o":""},"\u001b":{"ha":694,"x_min":0,"x_max":0,"o":""},"\u001c":{"ha":694,"x_min":0,"x_max":0,"o":""},"\u001d":{"ha":694,"x_min":0,"x_max":0,"o":""},"\u001e":{"ha":694,"x_min":0,"x_max":0,"o":""},"\u001f":{"ha":694,"x_min":0,"x_max":0,"o":""}," ":{"ha":694,"x_min":0,"x_max":0,"o":""},"!":{"ha":694,"x_min":0,"x_max":0,"o":""},"\"":{"ha":694,"x_min":0,"x_max":0,"o":""},"#":{"ha":694,"x_min":0,"x_max":0,"o":""},"$":{"ha":694,"x_min":0,"x_max":0,"o":""},"%":{"ha":694,"x_min":0,"x_max":0,"o":""},"&":{"ha":694,"x_min":0,"x_max":0,"o":""},"'":{"ha":694,"x_min":0,"x_max":0,"o":""},"(":{"ha":694,"x_min":0,"x_max":0,"o":""},")":{"ha":694,"x_min":0,"x_max":0,"o":""},"*":{"ha":694,"x_min":0,"x_max":0,"o":""},"+":{"ha":694,"x_min":0,"x_max":0,"o":""},",":{"ha":694,"x_min":0,"x_max":0,"o":""},"-":{"ha":694,"x_min":0,"x_max":0,"o":""},".":{"ha":694,"x_min":0,"x_max":0,"o":""},"/":{"ha":694,"x_min":0,"x_max":0,"o":""},":":{"ha":694,"x_min":0,"x_max":0,"o":""},";":{"ha":694,"x_min":0,"x_max":0,"o":""},"<":{"ha":694,"x_min":0,"x_max":0,"o":""},"=":{"ha":694,"x_min":0,"x_max":0,"o":""},">":{"ha":694,"x_min":0,"x_max":0,"o":""},"?":{"ha":694,"x_min":0,"x_max":0,"o":""},"@":{"ha":694,"x_min":0,"x_max":0,"o":""},"A":{"ha":1575,"x_min":0,"x_max":1399,"o":"m 1246 800 q 1211 799 1229 801 q 1179 806 1193 797 l 1188 794 q 1217 788 1201 785 q 1246 800 1233 792 m 1235 743 q 1212 747 1224 746 q 1189 751 1200 747 l 1192 746 q 1203 734 1194 736 q 1222 733 1213 732 q 1229 737 1226 733 q 1235 743 1232 740 m 1397 88 q 1398 98 1397 93 q 1396 106 1399 103 q 1361 120 1381 118 q 1329 139 1342 122 q 1349 156 1338 149 q 1370 170 1360 163 q 1388 188 1381 178 q 1396 213 1396 197 q 1373 259 1385 236 q 1339 299 1361 282 q 1300 309 1321 307 q 1261 300 1279 311 q 1240 283 1250 296 q 1217 276 1231 269 q 1194 289 1207 286 q 1171 299 1182 292 q 1156 299 1164 297 q 1143 293 1149 300 q 1135 319 1139 306 q 1118 342 1131 332 q 1092 353 1106 349 q 1064 350 1078 357 q 1059 359 1061 354 q 1053 368 1057 364 q 1060 397 1046 385 q 1092 411 1075 404 q 1115 436 1110 418 q 1100 485 1106 460 q 1083 533 1094 510 q 1078 544 1079 539 q 1075 556 1078 550 q 1066 579 1072 568 q 1058 604 1060 590 q 1008 728 1031 667 q 968 857 985 790 q 980 853 975 860 q 992 843 985 846 q 1038 841 1015 839 q 1081 847 1060 843 q 1124 856 1103 851 q 1169 861 1146 861 q 1223 853 1194 846 q 1275 869 1251 860 q 1307 870 1293 876 q 1336 861 1321 864 q 1346 872 1344 864 q 1350 886 1347 879 l 1336 900 q 1347 904 1340 906 q 1357 907 1353 903 q 1361 916 1360 911 q 1360 925 1363 921 q 1360 935 1363 929 q 1354 944 1357 940 q 1361 954 1361 947 q 1363 968 1361 961 q 1353 982 1360 979 q 1336 985 1346 985 q 1318 985 1328 985 q 1303 989 1310 985 q 1310 1000 1304 997 q 1323 1005 1317 1003 q 1333 1010 1329 1007 q 1336 1024 1338 1014 q 1331 1031 1332 1026 q 1324 1039 1329 1036 q 1301 1040 1311 1043 q 1281 1032 1290 1038 q 1260 1020 1271 1026 q 1240 1010 1250 1014 q 1217 1005 1221 1000 q 1212 1021 1213 1010 q 1210 1044 1211 1032 q 1197 1058 1208 1056 q 1177 1058 1186 1061 q 1157 1054 1168 1056 q 1156 1021 1158 1038 q 1151 989 1154 1004 q 1139 967 1146 979 q 1118 957 1132 956 q 1056 958 1086 960 q 1001 936 1025 956 l 953 971 q 925 982 935 972 q 910 1005 915 992 q 901 1032 904 1018 q 892 1058 897 1046 l 893 1060 q 851 1185 869 1122 q 810 1310 833 1247 q 753 1319 782 1317 q 696 1324 724 1321 q 678 1358 699 1347 q 672 1358 674 1360 q 667 1353 669 1356 q 660 1357 663 1351 q 656 1368 660 1364 q 649 1378 651 1372 q 636 1377 642 1381 q 625 1369 631 1374 q 619 1377 619 1372 q 614 1385 618 1382 q 607 1388 611 1386 q 599 1388 603 1390 q 565 1363 575 1382 q 546 1326 556 1344 q 468 1324 508 1322 q 396 1310 428 1325 q 369 1237 383 1272 q 347 1161 354 1201 q 331 1118 336 1140 q 317 1075 326 1096 q 309 1051 311 1064 q 299 1029 307 1039 q 244 1000 274 1013 q 188 974 215 988 q 134 944 160 961 q 90 901 108 928 q 111 826 83 858 q 139 790 118 804 q 172 754 160 775 q 145 716 150 739 q 142 667 140 693 q 149 646 143 654 q 165 632 156 638 q 185 622 175 626 q 204 613 196 618 q 193 549 200 581 q 178 485 186 517 q 170 440 174 461 q 169 390 167 418 q 210 357 188 368 q 251 329 232 346 q 264 320 258 326 q 265 306 269 314 q 257 300 263 299 q 246 300 251 301 q 215 284 231 292 q 197 253 199 276 q 204 242 204 249 q 207 228 204 235 q 198 200 210 213 q 175 179 186 188 q 165 188 169 183 q 154 190 161 193 q 138 169 149 174 q 115 167 128 165 q 88 171 101 168 q 63 169 75 174 q 31 152 42 165 q 15 122 19 139 q 7 87 10 106 q 0 51 4 68 q 57 16 25 26 q 124 2 89 6 q 196 1 160 -1 q 265 6 232 3 l 268 4 q 275 8 272 8 q 283 7 279 8 q 292 6 288 6 q 300 8 296 6 l 379 7 q 388 8 386 11 q 489 26 439 17 q 586 50 539 35 q 619 65 601 57 q 644 90 636 74 q 546 116 600 114 q 439 122 492 118 q 433 127 433 124 q 433 135 432 131 q 435 144 435 139 q 435 153 436 149 q 423 177 433 168 q 406 200 413 186 l 424 219 q 427 238 429 229 q 420 255 425 247 q 408 271 415 263 q 396 288 400 279 l 399 292 q 448 292 422 294 q 496 299 474 290 q 518 361 511 328 q 529 429 525 394 q 536 499 533 464 q 546 567 539 533 l 550 569 q 623 569 588 564 q 693 582 658 575 q 701 567 700 575 q 706 553 703 560 q 744 461 729 508 q 782 369 758 414 q 842 355 814 367 q 900 332 871 343 q 918 338 914 332 q 924 340 921 340 q 931 336 928 340 q 933 306 938 321 q 919 281 929 292 q 925 247 917 261 q 947 221 933 233 q 961 215 951 214 q 971 204 971 215 q 959 165 960 188 q 972 126 958 142 q 1003 86 988 107 q 1028 42 1018 65 q 1193 42 1111 31 q 1354 65 1275 53 q 1377 76 1364 75 q 1397 88 1390 76 m 796 88 q 786 88 790 90 q 778 85 782 86 q 764 100 764 90 l 739 79 q 729 89 729 81 q 722 100 729 99 l 688 43 q 703 47 696 43 q 719 53 711 50 q 735 56 728 56 q 751 50 743 56 q 776 67 763 61 q 796 88 790 72 m 697 85 q 699 99 699 90 q 693 111 700 107 q 667 72 688 88 q 631 42 647 57 q 667 56 651 42 q 697 85 683 71 m 1350 968 q 1344 960 1351 961 q 1333 956 1338 958 q 1303 952 1318 953 q 1275 942 1288 951 l 1283 936 q 1315 935 1299 936 q 1346 938 1331 935 q 1348 933 1349 936 q 1347 928 1347 931 q 1321 919 1336 918 q 1292 914 1306 919 l 1285 910 q 1308 898 1294 899 q 1332 892 1321 897 q 1333 876 1339 886 q 1321 880 1326 875 q 1308 886 1315 885 q 1272 883 1290 889 q 1235 874 1253 878 q 1201 870 1218 869 q 1167 886 1183 871 q 1083 859 1131 864 q 996 868 1036 854 q 955 904 967 878 q 935 954 943 931 q 962 944 950 953 q 989 931 974 936 q 992 924 990 928 q 997 918 993 919 q 1026 921 1013 915 q 1053 931 1040 926 q 1081 939 1067 936 q 1113 936 1096 942 q 1138 937 1125 936 q 1156 953 1150 938 q 1165 975 1158 965 q 1171 999 1171 985 q 1176 1021 1176 1008 q 1174 1044 1175 1033 l 1199 1044 q 1201 1012 1196 1029 q 1209 978 1206 994 q 1209 947 1213 961 q 1185 922 1206 932 q 1185 918 1183 919 q 1189 914 1188 917 q 1213 922 1204 911 q 1231 942 1222 932 q 1236 972 1238 957 l 1229 981 q 1266 1008 1249 994 q 1304 1032 1283 1021 q 1315 1024 1314 1029 q 1310 1012 1313 1017 q 1301 1004 1308 1007 l 1299 1006 q 1282 997 1290 1003 q 1268 983 1274 992 l 1265 975 q 1297 974 1281 972 q 1328 978 1313 975 q 1338 973 1332 974 q 1350 968 1344 972 m 1096 435 q 1011 394 1054 414 q 922 365 968 375 q 908 364 915 367 q 894 361 901 361 q 870 395 882 378 q 850 431 858 413 q 828 472 836 451 q 813 514 821 492 q 806 533 807 522 q 797 551 804 543 l 801 556 q 788 585 794 569 q 778 617 781 600 q 774 622 775 617 q 769 622 774 626 l 771 619 q 753 616 764 614 q 733 614 742 618 q 684 603 710 606 q 632 594 658 600 l 631 596 q 608 590 619 590 q 582 589 596 589 q 581 593 583 590 q 563 587 574 586 q 543 589 551 588 l 540 592 q 532 591 536 588 q 521 592 528 594 q 517 554 517 574 q 514 518 517 536 q 512 513 508 515 q 513 507 515 510 q 510 492 508 500 q 507 478 513 483 l 508 476 q 502 439 507 457 q 496 403 497 421 q 486 367 489 388 q 478 329 483 347 q 475 326 476 326 q 474 324 474 326 q 451 318 463 326 l 403 318 q 397 321 400 321 q 392 322 394 321 q 389 324 392 328 q 383 324 386 321 q 329 335 354 325 q 276 353 304 346 q 267 358 271 356 q 256 361 263 361 q 258 379 258 369 q 264 396 257 389 l 263 397 q 265 419 265 408 q 271 440 264 431 l 269 442 q 276 478 274 460 q 282 515 278 497 q 286 518 283 515 l 283 522 q 292 560 289 542 q 301 599 294 579 l 300 600 l 326 739 q 327 745 324 742 q 331 753 331 749 q 335 783 333 768 q 343 814 338 799 q 347 838 343 825 q 350 864 350 850 q 353 875 353 869 q 357 883 354 881 q 358 904 354 894 q 365 925 363 914 q 368 940 368 932 q 374 956 368 949 l 372 957 q 395 1049 382 1004 q 421 1138 408 1093 q 441 1199 429 1169 q 460 1261 453 1229 q 467 1272 465 1265 q 472 1283 469 1278 q 478 1292 474 1289 q 492 1290 482 1294 q 494 1293 494 1293 q 535 1294 514 1294 q 576 1296 557 1293 q 580 1300 578 1299 q 579 1304 582 1301 q 581 1310 581 1306 q 582 1304 581 1306 q 581 1322 585 1313 q 583 1339 576 1331 q 582 1344 582 1339 q 588 1347 583 1343 q 583 1350 585 1350 q 588 1363 583 1357 q 600 1369 593 1368 q 606 1367 603 1367 q 610 1364 610 1368 q 609 1343 611 1353 q 614 1324 607 1333 q 627 1340 622 1329 q 643 1346 632 1351 q 640 1328 644 1336 q 638 1314 635 1321 q 648 1315 643 1313 q 657 1320 653 1318 q 665 1323 661 1322 q 672 1318 668 1324 q 671 1308 669 1314 q 665 1299 672 1301 q 714 1299 689 1294 q 715 1296 711 1296 q 719 1297 717 1294 l 717 1299 q 756 1299 736 1297 q 790 1293 775 1300 q 802 1288 803 1299 q 807 1274 801 1278 q 806 1268 810 1271 q 807 1263 803 1265 l 808 1265 q 816 1241 815 1254 q 825 1217 817 1228 l 824 1214 q 833 1190 831 1203 q 840 1164 835 1176 q 858 1106 847 1133 q 875 1047 868 1078 l 879 1044 q 899 981 886 1010 q 918 918 911 951 q 922 911 924 915 q 924 904 921 907 q 937 872 931 888 q 949 839 943 856 l 947 840 q 945 839 944 840 q 944 836 946 838 l 947 833 l 949 836 q 960 798 954 817 q 974 760 967 779 q 985 725 983 744 q 999 690 988 706 q 1002 681 997 683 q 1004 672 1007 678 q 1017 645 1013 660 q 1026 616 1022 631 q 1034 588 1029 601 q 1049 561 1039 574 q 1069 506 1058 533 q 1093 453 1079 479 l 1096 435 m 1347 244 q 1338 222 1346 231 q 1320 208 1331 214 q 1299 197 1310 203 q 1279 185 1288 192 q 1229 169 1254 178 q 1176 154 1204 161 q 1154 148 1167 147 q 1131 143 1142 149 q 1124 144 1128 146 q 1118 142 1121 143 q 1107 142 1113 143 q 1096 139 1101 140 q 1071 135 1083 138 q 1047 135 1058 133 l 1018 106 q 994 135 1001 118 q 979 171 986 153 q 997 196 985 189 q 1017 199 1007 200 q 1038 199 1028 199 q 1058 200 1049 199 q 1075 210 1067 201 q 1113 243 1096 226 q 1110 251 1115 249 q 1106 257 1106 253 q 1106 276 1104 267 q 1119 286 1108 285 q 1128 278 1124 285 q 1135 267 1132 272 q 1144 262 1139 263 q 1156 269 1149 261 q 1149 249 1158 257 q 1139 228 1140 240 q 1144 219 1142 225 q 1154 215 1147 214 l 1156 214 q 1163 229 1163 221 q 1171 243 1163 238 q 1177 254 1171 250 q 1189 261 1183 258 q 1181 236 1182 249 q 1188 223 1186 231 q 1200 222 1190 215 q 1207 237 1206 229 q 1211 251 1208 244 q 1224 246 1218 244 q 1234 253 1229 247 q 1244 265 1239 258 q 1254 275 1249 271 q 1299 290 1271 289 q 1342 269 1328 290 q 1349 256 1344 263 q 1347 244 1353 250 m 1378 204 q 1299 143 1343 167 q 1276 135 1288 140 q 1254 124 1265 129 q 1192 110 1225 113 q 1126 110 1160 107 q 1118 94 1119 104 q 1119 78 1117 85 q 1099 74 1108 78 q 1079 65 1089 69 q 1060 56 1069 60 q 1039 54 1050 53 q 1030 63 1031 57 q 1026 75 1029 69 q 1041 96 1029 89 q 1064 108 1053 103 q 1127 118 1093 119 q 1192 128 1161 117 q 1239 143 1215 135 q 1285 165 1263 151 q 1375 219 1333 185 q 1378 204 1379 213 m 1061 308 q 1017 296 1040 300 q 968 289 993 292 q 953 313 961 300 q 953 340 946 325 q 980 348 965 343 q 1009 354 994 353 q 1037 352 1024 356 q 1060 335 1050 349 l 1061 308 m 1110 308 q 1086 280 1100 292 q 1057 256 1072 268 q 1013 240 1033 249 q 965 233 992 231 q 949 250 957 244 q 938 268 940 256 q 940 271 940 271 q 942 282 938 278 q 974 270 954 267 q 1011 274 994 274 q 1033 280 1021 278 q 1057 286 1046 282 q 1076 299 1068 290 q 1083 322 1083 307 q 1089 331 1082 328 q 1099 331 1093 332 q 1108 326 1104 329 q 1114 319 1113 324 q 1110 308 1115 314 m 336 985 q 331 944 338 963 q 318 907 325 926 q 263 881 290 893 q 207 861 236 868 q 199 856 204 856 q 194 850 193 857 q 227 818 210 833 q 258 785 244 803 q 278 748 272 768 q 276 703 285 728 q 247 658 265 679 q 200 636 228 636 q 173 644 186 638 q 154 665 160 650 q 176 665 165 671 q 197 658 186 658 q 215 681 210 668 q 225 708 221 694 q 234 736 229 722 q 250 760 239 750 q 199 771 222 761 q 157 796 176 781 q 122 837 133 814 q 106 886 111 860 q 110 895 104 892 q 118 901 115 899 q 177 946 147 925 q 240 978 207 967 q 329 1004 278 1000 l 336 985 m 204 729 q 205 725 207 726 q 201 721 203 724 q 185 727 193 724 q 175 740 178 731 q 204 729 193 738 m 196 711 q 194 704 194 708 q 192 697 194 700 q 160 718 171 700 q 169 722 163 725 q 179 718 175 718 q 188 715 183 715 q 196 711 192 714 m 189 685 q 186 677 188 681 q 183 671 185 674 q 166 681 174 674 q 151 696 158 689 l 153 701 q 172 694 164 699 q 189 685 179 689 m 374 271 q 356 256 367 260 q 332 252 344 251 q 306 255 319 253 q 282 258 293 257 q 276 260 279 261 q 271 263 274 260 q 275 281 272 272 q 281 299 278 289 q 323 289 299 286 q 369 289 347 292 q 374 281 372 286 q 374 271 376 276 m 406 221 q 371 206 388 211 q 335 197 354 201 q 314 197 324 203 q 292 202 303 201 q 274 214 281 203 q 232 233 253 219 q 221 265 218 244 q 234 278 228 272 q 250 281 240 283 q 240 273 247 278 q 239 261 232 268 q 290 231 261 238 q 350 226 319 224 q 374 235 364 228 q 396 250 385 243 q 405 237 401 243 q 406 221 408 231 m 414 122 q 412 115 411 119 q 410 106 413 110 q 344 97 375 104 q 281 81 313 89 q 218 64 250 72 q 153 54 186 56 q 26 99 83 50 q 26 113 26 107 q 31 126 26 119 q 69 151 49 142 q 114 154 90 160 q 128 145 124 151 q 140 132 133 139 q 153 133 146 129 l 154 135 q 160 127 158 132 q 165 118 163 122 q 172 112 168 114 q 183 114 176 110 q 183 133 189 122 l 185 135 q 183 136 185 136 q 183 139 183 136 q 193 132 189 136 q 203 132 197 128 q 209 144 208 136 q 207 158 210 151 q 205 164 207 163 q 200 167 203 165 q 196 172 197 169 q 197 178 194 174 q 218 192 206 188 q 258 175 240 193 q 258 164 260 169 q 263 156 257 158 q 331 159 297 156 q 392 178 364 163 q 403 175 399 181 q 410 165 407 169 q 414 144 415 154 q 414 122 413 133 m 404 72 q 406 51 407 61 q 401 31 404 40 q 372 25 388 24 q 340 25 356 26 q 319 50 331 43 q 253 22 290 33 q 177 9 215 11 q 101 15 139 7 q 32 42 63 22 q 18 61 24 49 q 95 33 53 38 q 182 31 138 28 q 272 48 229 35 q 360 72 315 61 q 382 74 372 72 q 404 72 392 75 m 726 1140 q 723 1148 719 1143 q 724 1157 726 1153 q 713 1164 719 1164 q 699 1168 706 1164 q 688 1162 694 1165 q 683 1151 682 1158 q 686 1146 683 1146 q 692 1147 689 1146 q 699 1149 696 1149 q 704 1143 703 1149 q 714 1140 708 1140 q 722 1144 719 1140 l 726 1140 m 740 1040 q 747 1078 746 1058 q 739 1115 747 1099 q 709 1126 728 1131 q 679 1110 690 1121 q 660 1056 665 1086 q 668 1001 654 1026 q 684 988 674 990 q 706 986 694 985 q 713 992 708 990 q 719 997 717 994 q 721 1000 721 999 q 724 1001 721 1001 l 722 1003 q 735 1020 729 1011 q 740 1040 742 1029 m 593 1143 q 583 1151 589 1150 q 571 1156 576 1151 q 557 1147 564 1153 q 546 1136 550 1142 q 557 1131 550 1129 q 569 1131 564 1133 q 583 1135 575 1136 q 593 1143 592 1133 m 607 1010 q 613 1052 615 1028 q 607 1096 610 1076 l 599 1106 l 600 1107 l 599 1106 l 588 1118 q 552 1108 567 1122 q 528 1078 538 1093 q 526 1070 528 1075 q 525 1064 524 1065 q 521 1047 519 1057 q 519 1029 522 1038 q 549 978 519 996 q 559 976 553 975 q 571 974 565 976 q 594 987 589 975 q 607 1010 600 999 m 681 971 q 656 980 669 978 q 626 983 642 982 l 629 971 q 643 970 636 971 q 653 963 650 969 q 638 949 646 956 q 624 936 631 942 l 629 936 q 632 931 633 932 q 663 944 647 938 q 681 971 678 951 m 760 938 q 734 928 746 935 q 710 914 722 921 l 706 918 l 710 914 q 704 913 708 913 q 688 903 697 906 q 668 899 678 901 q 590 896 629 889 q 521 928 551 903 l 525 931 q 527 930 526 931 q 528 929 528 929 q 517 933 524 935 q 503 932 510 932 q 490 926 496 929 q 483 914 485 922 q 496 909 488 907 q 510 907 504 911 q 523 897 519 904 q 533 886 526 890 q 546 858 540 871 q 558 831 551 844 q 587 797 569 815 q 624 772 604 779 q 627 774 625 775 q 631 771 629 772 q 641 773 635 774 q 653 775 647 772 q 672 790 665 778 q 685 813 679 801 q 688 819 688 815 q 692 826 688 825 q 690 831 692 829 q 692 833 689 832 q 700 862 701 847 q 706 892 699 876 l 711 886 l 708 894 q 726 906 718 900 q 744 917 735 913 l 746 914 q 757 924 750 919 q 760 938 764 929 m 501 936 l 494 936 l 494 935 l 496 936 q 498 935 497 936 q 500 935 499 935 l 501 936 m 671 746 l 671 749 l 668 749 q 660 746 663 751 q 644 742 653 746 q 631 747 636 739 q 612 750 619 743 q 594 758 604 757 q 592 750 593 756 q 597 742 592 744 q 611 722 597 726 q 643 726 628 718 q 668 746 658 733 l 671 746 m 728 1076 q 706 1075 717 1081 q 696 1015 688 1047 l 703 1001 q 694 998 699 994 q 685 999 690 1001 q 671 1027 675 1011 q 671 1060 667 1043 q 690 1094 675 1078 q 722 1114 706 1110 q 731 1096 735 1107 q 728 1076 728 1085 m 593 1096 q 592 1081 592 1089 q 588 1067 592 1074 q 564 1069 576 1075 q 551 1030 553 1054 q 561 989 550 1006 q 549 989 553 986 q 542 997 544 992 q 538 1008 539 1003 q 532 1017 536 1014 q 533 1047 529 1032 q 540 1078 538 1063 q 560 1097 550 1088 q 586 1106 571 1107 q 593 1096 588 1101 m 660 868 q 642 850 653 854 q 599 864 613 846 l 600 868 l 660 868 z "},"B":{"ha":1475,"x_min":125,"x_max":1265,"o":"m 1261 913 q 1258 927 1265 922 q 1247 939 1250 932 q 1244 947 1240 942 q 1250 954 1247 951 q 1250 970 1254 963 q 1240 985 1246 978 q 1231 994 1228 985 q 1231 1011 1235 1004 q 1206 1016 1219 1018 q 1181 1018 1192 1014 q 1173 1026 1174 1021 q 1174 1036 1172 1031 l 1167 1036 q 1135 1028 1150 1036 q 1108 1010 1121 1021 q 1085 986 1096 999 q 1065 963 1075 974 q 1048 988 1058 975 q 1025 1004 1038 1000 q 1004 1003 1013 1011 q 988 989 996 996 q 981 978 979 982 q 987 971 982 974 q 998 965 992 968 q 1006 956 1004 961 q 1006 910 1010 932 q 1001 865 1003 889 q 980 873 990 868 q 958 882 969 878 q 896 895 926 889 q 832 900 865 901 q 682 864 749 900 l 681 865 q 675 985 674 924 q 679 1104 676 1046 q 690 1110 683 1110 q 701 1131 704 1115 q 700 1160 697 1147 q 718 1169 707 1169 q 736 1176 729 1169 q 749 1202 747 1188 q 747 1232 750 1217 q 720 1249 736 1247 q 690 1260 704 1250 q 700 1281 696 1271 q 711 1303 704 1292 q 720 1342 718 1319 q 708 1379 722 1365 q 699 1387 704 1383 q 688 1389 694 1390 q 659 1374 671 1386 q 639 1350 647 1361 q 633 1363 632 1356 q 629 1376 633 1369 q 613 1385 622 1383 q 593 1389 604 1388 q 567 1377 579 1386 q 547 1353 554 1368 q 447 1335 497 1344 q 357 1294 397 1325 q 322 1269 338 1286 q 294 1236 306 1253 q 315 1099 306 1168 q 326 960 324 1031 q 330 947 332 953 q 332 935 328 942 q 333 866 328 899 q 340 799 339 833 l 336 794 q 303 769 318 783 q 268 746 288 756 q 222 686 236 721 q 193 618 208 651 q 172 606 181 614 q 156 588 163 599 q 142 567 149 578 q 129 547 136 556 l 126 485 q 131 463 125 472 q 144 447 136 454 q 162 434 153 440 q 179 419 171 428 q 197 394 185 406 q 224 381 208 383 q 247 392 239 382 q 258 414 254 401 q 263 441 261 426 q 268 467 264 456 q 274 463 271 465 q 279 457 276 460 q 296 445 288 450 q 315 442 304 440 q 336 454 329 443 q 347 476 343 465 q 351 450 350 464 q 353 421 351 436 l 343 243 q 347 225 340 232 q 360 213 353 218 q 360 203 364 207 q 353 196 357 199 q 318 176 333 192 q 283 154 303 161 q 272 160 276 156 q 263 171 268 165 l 221 160 q 195 145 206 157 q 169 132 185 133 q 163 135 165 132 q 158 140 161 139 l 129 111 q 131 93 126 100 q 143 81 136 86 q 152 90 153 82 q 160 100 151 97 l 179 75 q 204 68 192 72 q 228 57 217 64 q 237 29 228 42 q 260 11 246 17 q 306 10 283 8 q 351 14 329 11 q 359 16 354 17 q 367 15 364 15 q 446 35 407 25 q 525 53 485 46 q 600 40 561 42 q 678 40 639 39 q 757 40 718 40 q 832 32 796 40 q 866 22 849 25 q 897 7 883 19 q 919 3 907 6 q 942 0 931 1 q 963 1 953 -1 q 981 14 974 4 l 1082 7 q 1109 24 1097 11 q 1126 50 1121 36 q 1127 98 1135 75 q 1103 139 1119 121 q 1069 163 1088 153 q 1031 181 1050 172 q 992 198 1011 189 q 954 218 972 207 l 958 221 q 978 230 969 224 q 996 240 986 236 q 1006 248 1003 244 q 1017 254 1010 251 q 1064 302 1044 276 q 1107 354 1083 328 q 1144 422 1126 388 q 1168 493 1161 456 q 1169 649 1181 571 q 1110 785 1157 726 q 1102 797 1108 792 q 1101 807 1096 801 q 1142 824 1122 814 q 1174 856 1161 835 q 1199 891 1178 879 q 1239 908 1219 903 q 1251 907 1246 908 q 1261 913 1257 906 m 1218 999 q 1210 995 1215 996 q 1200 993 1204 994 q 1187 985 1193 990 q 1174 974 1181 979 q 1160 967 1168 969 q 1144 967 1153 964 q 1149 980 1143 975 q 1158 989 1154 985 q 1169 997 1165 992 q 1182 1004 1174 1003 q 1190 1003 1188 1004 q 1196 1006 1192 1003 q 1208 1003 1203 1003 q 1218 999 1214 1003 m 1247 914 q 1233 913 1240 911 q 1219 915 1226 914 q 1204 915 1211 917 q 1193 906 1197 914 q 1178 878 1186 893 q 1159 851 1169 864 q 1136 830 1149 839 q 1107 821 1124 821 q 1083 833 1092 819 q 1063 853 1074 846 q 1032 870 1049 860 q 1013 900 1015 881 q 1016 913 1013 907 q 1022 925 1019 919 q 1025 936 1025 931 q 1018 947 1025 942 q 1011 961 1018 954 q 1000 971 1004 968 q 1000 986 994 978 q 1013 991 1007 988 q 1025 990 1018 994 q 1041 975 1035 985 q 1051 955 1047 965 q 1060 935 1056 944 q 1074 917 1065 925 q 1078 897 1076 907 q 1082 879 1081 888 q 1093 904 1093 888 q 1090 935 1093 921 q 1076 947 1083 939 q 1079 964 1068 956 q 1116 1000 1097 983 q 1160 1024 1135 1017 l 1163 1024 q 1142 994 1150 1010 q 1113 974 1133 979 q 1125 964 1119 971 q 1138 954 1131 957 q 1155 931 1147 943 q 1169 907 1163 919 q 1173 930 1179 918 q 1163 953 1167 942 q 1172 958 1169 954 q 1182 964 1175 963 q 1213 972 1197 967 q 1242 965 1228 976 q 1211 948 1231 950 q 1176 936 1192 946 q 1185 930 1178 929 q 1196 928 1192 931 q 1217 932 1207 931 q 1236 931 1226 933 q 1247 914 1246 924 m 700 1369 q 706 1335 711 1354 q 699 1299 701 1315 q 691 1285 693 1293 q 679 1278 689 1276 q 688 1315 682 1294 q 679 1349 694 1335 q 669 1351 674 1353 q 658 1349 664 1349 q 674 1376 658 1364 q 700 1369 690 1383 m 622 1304 q 596 1264 615 1278 q 605 1304 600 1283 q 599 1343 610 1325 q 585 1349 592 1350 q 568 1350 579 1349 q 576 1367 571 1358 q 590 1378 581 1375 q 622 1365 608 1382 q 628 1335 633 1351 q 622 1304 622 1319 m 1151 496 q 1136 440 1144 468 q 1113 386 1128 411 q 1104 369 1108 378 q 1093 353 1100 361 q 1069 325 1078 339 q 1046 300 1061 311 q 1034 285 1043 290 q 1019 271 1025 279 q 985 251 1004 257 q 950 233 967 244 q 894 213 925 221 q 831 206 863 206 q 770 213 800 206 q 715 238 740 221 q 673 257 694 246 q 638 288 651 268 q 628 257 626 276 q 622 222 629 238 l 460 240 l 400 244 q 409 377 407 311 q 410 513 411 443 l 408 685 q 443 742 435 708 q 443 807 451 775 q 426 826 436 815 q 401 838 415 838 q 398 902 399 869 q 394 967 397 935 l 375 1232 l 368 1292 q 421 1318 392 1311 q 481 1332 450 1325 q 509 1332 497 1329 q 538 1332 521 1335 q 540 1333 538 1335 q 543 1333 542 1332 q 551 1288 544 1310 q 576 1250 557 1265 q 613 1257 596 1242 q 625 1271 619 1264 q 636 1285 631 1278 q 651 1268 642 1276 q 671 1257 660 1260 q 660 1240 668 1247 q 649 1222 651 1232 q 663 1227 657 1219 q 678 1236 669 1235 q 696 1244 686 1239 q 715 1242 706 1249 q 727 1232 721 1236 q 738 1221 733 1228 q 735 1203 736 1213 q 726 1188 733 1194 q 702 1181 714 1183 q 675 1179 690 1178 q 667 1172 671 1176 q 665 1161 663 1168 q 679 1154 671 1154 q 690 1146 688 1154 q 683 1125 693 1132 q 627 1110 660 1108 q 571 1126 594 1111 l 543 1147 l 556 1163 q 549 1167 553 1167 q 543 1169 546 1167 q 524 1159 535 1167 q 514 1139 514 1151 q 522 1137 517 1133 q 532 1138 526 1140 q 556 1118 546 1131 q 578 1093 567 1106 q 601 1072 589 1081 q 631 1064 614 1064 q 647 1078 639 1071 q 665 1092 656 1086 q 665 960 668 1026 q 675 831 661 893 q 692 841 685 833 q 708 856 700 849 q 844 888 772 886 q 908 880 878 888 q 971 867 939 872 q 999 856 986 863 q 1024 839 1013 850 q 1037 830 1032 836 q 1050 819 1042 824 q 1140 672 1117 757 q 1151 496 1163 588 m 1115 96 q 1095 79 1110 81 q 1067 75 1081 78 q 1056 78 1061 76 q 1046 78 1051 81 q 1038 79 1043 82 q 1000 85 1019 85 q 963 94 981 86 q 948 94 956 93 q 933 99 940 96 q 887 113 910 106 q 839 124 864 121 q 799 139 819 132 q 757 154 778 146 q 744 156 750 153 q 732 161 739 158 q 740 175 739 168 q 749 188 742 182 q 778 185 764 192 q 811 181 793 178 q 879 172 842 172 q 942 197 918 172 l 943 196 q 944 199 946 197 q 943 203 943 200 q 951 199 946 197 q 960 197 957 200 q 1003 182 981 189 q 1044 163 1025 175 q 1043 160 1047 160 q 1046 158 1044 157 q 1050 160 1047 160 q 1058 153 1053 157 q 1068 147 1063 150 q 1097 126 1081 136 q 1115 96 1113 115 m 1121 64 q 1115 48 1122 54 q 1107 33 1108 42 q 1068 24 1090 21 q 1025 24 1046 26 q 894 49 958 36 q 771 89 831 63 q 749 98 760 96 q 729 111 738 100 l 729 143 q 824 108 776 125 q 921 79 872 92 q 1006 62 963 68 q 1096 61 1050 56 q 1104 63 1100 60 q 1112 69 1108 67 q 1118 72 1115 72 q 1121 64 1121 72 m 347 499 q 339 503 344 503 q 329 503 335 503 q 320 503 325 503 q 314 511 315 504 q 313 530 315 521 q 307 549 310 539 q 302 567 304 558 q 303 586 300 576 q 333 647 328 615 q 338 661 336 654 q 342 675 339 668 l 347 499 m 432 789 q 427 756 438 769 q 403 732 417 743 q 376 720 390 725 q 350 701 361 715 q 342 707 344 703 q 335 714 339 711 q 327 688 326 703 q 325 660 328 674 q 308 622 314 642 q 288 586 303 603 q 274 582 279 588 q 292 557 289 574 q 296 525 294 540 q 303 497 297 510 q 329 485 308 485 q 330 469 328 478 q 325 454 332 460 q 300 457 313 450 q 279 481 289 468 q 261 508 269 494 q 240 474 251 492 q 233 433 228 456 q 251 433 242 428 q 247 415 251 422 q 240 400 243 407 q 219 399 229 397 q 201 407 208 400 q 191 435 192 419 q 188 467 190 451 q 172 468 181 476 q 169 460 168 465 q 171 449 169 454 q 171 442 172 444 q 161 446 169 440 q 138 497 142 467 q 147 551 133 526 q 170 588 156 572 q 204 617 185 603 q 219 654 213 635 q 235 692 226 674 q 256 725 243 710 q 288 750 268 740 q 318 764 304 754 q 345 785 332 774 q 372 808 358 797 q 401 822 386 818 q 432 789 428 817 m 719 179 q 717 158 724 168 q 714 138 710 149 l 713 136 l 631 144 q 630 167 633 156 q 619 189 626 179 q 635 199 626 199 q 652 197 643 200 q 671 189 661 193 q 690 185 681 185 q 705 183 699 188 q 719 179 711 179 m 600 164 q 544 144 572 156 q 489 122 517 133 q 435 107 461 115 q 382 96 408 99 l 378 93 q 335 85 356 86 q 293 79 315 85 l 294 81 q 285 80 290 82 q 275 78 281 78 q 260 77 268 76 q 246 75 251 78 q 238 84 243 81 q 232 94 233 88 q 246 107 239 101 q 260 118 253 113 l 261 115 q 263 119 264 118 l 261 121 l 293 147 q 297 146 296 147 q 300 147 299 144 l 299 149 q 358 190 329 172 q 422 222 386 208 q 440 221 432 225 q 456 219 447 217 q 464 216 460 214 q 474 213 468 218 q 524 198 497 206 q 579 190 550 190 q 590 192 585 190 q 600 193 594 193 l 600 164 m 613 146 q 601 115 613 128 q 579 90 590 101 q 461 45 524 58 q 335 21 399 32 q 311 20 324 22 q 286 18 299 18 q 263 22 274 18 q 246 38 253 25 l 240 56 q 415 83 329 57 q 474 101 447 89 q 532 121 501 114 q 570 138 551 131 q 608 153 589 146 l 613 146 m 649 1014 l 647 1015 q 615 1013 632 1011 q 585 1028 597 1015 q 583 1017 585 1022 q 583 1007 581 1013 q 603 991 592 994 q 631 989 615 988 q 640 1001 638 996 q 649 1014 642 1007 m 903 547 q 902 553 900 550 q 903 558 904 556 q 901 569 900 564 q 901 578 901 574 q 889 611 897 596 q 874 642 881 626 q 857 659 867 650 q 836 674 847 668 q 749 684 796 692 q 667 651 701 676 q 661 597 661 625 q 657 542 661 569 q 658 534 660 538 q 656 526 656 531 l 656 503 q 656 490 653 500 q 656 473 649 481 q 669 458 664 465 q 745 428 700 432 q 826 443 790 424 q 849 456 836 454 q 869 474 861 458 q 891 508 882 490 q 903 547 900 526 m 1033 88 l 1026 88 l 1033 88 m 796 601 q 810 537 808 574 q 788 475 811 500 q 717 457 757 449 l 671 474 q 668 556 669 513 q 675 639 667 600 q 733 642 703 646 q 783 619 763 639 l 796 601 z "},"C":{"ha":1739,"x_min":0,"x_max":1617,"o":"m 1617 157 q 1592 200 1614 185 q 1546 222 1569 215 q 1526 226 1538 226 q 1506 228 1515 226 q 1488 233 1496 229 q 1475 249 1479 238 q 1381 310 1432 285 q 1373 318 1375 313 q 1374 328 1371 324 q 1431 401 1410 358 q 1475 485 1451 444 q 1411 556 1444 519 q 1340 619 1378 592 q 1260 660 1303 647 q 1167 661 1217 674 q 1138 626 1153 644 q 1105 590 1122 607 q 1069 562 1088 574 q 1028 546 1050 550 q 1010 550 1019 549 q 997 563 1000 551 q 1035 584 1017 574 q 1069 614 1054 594 q 1085 665 1083 636 q 1082 719 1088 693 q 1074 759 1085 742 q 1049 792 1063 776 q 1025 826 1035 808 q 1022 867 1015 843 q 1040 856 1032 863 q 1060 853 1049 850 q 1171 830 1113 833 q 1289 825 1229 826 q 1333 859 1311 842 q 1375 896 1356 876 q 1401 923 1388 910 q 1424 951 1414 936 q 1440 983 1435 965 q 1442 1021 1446 1000 q 1439 1033 1440 1028 q 1439 1043 1438 1039 q 1379 1163 1428 1110 q 1272 1251 1331 1217 q 1279 1289 1272 1272 q 1289 1325 1286 1306 q 1278 1356 1288 1342 q 1253 1378 1268 1371 q 1225 1377 1238 1382 q 1201 1364 1213 1372 q 1178 1344 1189 1356 q 1156 1325 1167 1333 l 1150 1331 q 1145 1347 1149 1339 q 1139 1361 1142 1354 q 1128 1372 1135 1368 q 1117 1383 1122 1376 q 1063 1378 1088 1397 q 1034 1353 1047 1367 q 1014 1324 1021 1339 q 960 1321 986 1324 q 907 1315 935 1318 q 773 1280 838 1300 q 650 1215 708 1260 q 571 1156 607 1192 q 499 1082 535 1119 q 451 1013 476 1046 q 415 939 426 979 q 380 842 390 894 q 364 738 369 790 q 347 728 356 726 q 290 703 319 713 q 232 679 260 693 q 184 647 207 668 q 138 607 161 625 q 113 587 126 592 q 83 581 99 582 q 50 581 67 581 q 19 576 33 581 q 4 559 8 572 q 0 533 0 546 q 19 517 8 521 q 41 512 29 514 q 65 508 53 510 q 86 499 76 507 q 67 490 78 493 q 45 484 56 488 q 26 474 35 481 q 17 454 18 468 q 21 433 14 438 q 38 426 28 428 q 60 425 49 425 q 79 419 72 425 q 63 403 74 408 q 49 386 53 397 q 50 377 47 379 q 58 374 53 375 q 67 372 63 372 q 75 368 72 371 q 103 352 88 358 q 124 331 118 346 q 137 322 131 326 q 153 321 143 318 q 181 344 169 331 q 201 374 192 358 q 219 404 210 389 q 239 433 228 419 q 270 419 258 433 q 297 399 282 406 q 313 396 306 397 q 326 406 319 394 q 336 460 344 431 l 315 464 q 293 485 307 475 q 285 513 279 496 q 316 546 299 531 q 346 581 333 561 q 357 585 351 581 q 367 594 363 590 q 378 599 372 599 q 388 588 383 599 q 402 527 394 557 q 419 468 410 497 q 451 406 431 436 q 486 346 471 376 q 467 330 474 340 q 453 310 460 319 q 440 292 447 300 q 418 283 432 285 q 403 275 411 278 q 389 267 396 272 q 346 240 369 254 q 302 207 322 225 q 267 167 282 189 q 250 118 253 144 q 257 56 247 86 q 297 11 267 26 q 393 0 346 0 q 488 6 442 0 q 581 23 535 13 q 674 42 628 33 q 739 27 706 31 q 804 17 772 24 l 807 18 l 808 17 q 810 17 810 17 q 813 18 811 18 q 887 13 849 10 q 964 10 925 17 l 965 11 q 1037 10 1001 7 q 1108 10 1072 14 q 1127 14 1117 15 q 1144 15 1138 13 q 1163 15 1156 11 q 1181 15 1171 18 q 1214 18 1196 17 q 1246 17 1232 19 q 1263 21 1254 21 l 1264 18 q 1372 32 1318 25 q 1482 46 1426 39 q 1507 55 1497 47 q 1523 74 1517 63 q 1534 97 1529 85 q 1544 121 1539 110 q 1560 133 1550 131 q 1581 138 1571 136 q 1601 143 1592 140 q 1617 157 1611 146 m 1265 1349 q 1233 1219 1272 1276 q 1210 1195 1224 1206 q 1179 1185 1196 1185 q 1210 1232 1199 1207 q 1215 1288 1221 1257 q 1204 1303 1211 1296 q 1186 1313 1197 1311 q 1190 1332 1186 1324 q 1201 1347 1194 1340 q 1235 1361 1214 1356 q 1265 1349 1256 1367 m 1119 1263 q 1106 1226 1113 1244 q 1081 1196 1100 1207 q 1063 1192 1072 1190 q 1044 1196 1053 1193 q 1072 1242 1060 1217 q 1074 1293 1083 1267 q 1029 1318 1053 1313 q 1060 1353 1040 1338 q 1104 1367 1079 1369 l 1119 1354 q 1127 1310 1131 1335 q 1119 1263 1124 1285 m 915 968 l 913 965 q 892 971 903 968 q 876 983 882 974 q 879 1004 874 996 q 886 1024 885 1013 q 902 997 900 1013 q 915 968 904 981 m 996 838 l 953 853 q 958 862 956 857 q 967 868 960 867 q 979 867 974 871 q 990 860 985 863 q 996 838 997 847 m 1069 711 q 1069 664 1074 688 q 1046 625 1065 640 q 1028 616 1038 621 q 1008 618 1018 611 q 1017 638 1010 629 q 1032 658 1025 647 l 1028 663 q 999 644 1013 656 q 967 631 985 633 q 960 635 963 629 q 964 654 958 646 q 978 669 969 663 q 995 681 986 675 q 1010 696 1004 688 q 1007 703 1010 700 q 1001 708 1004 706 q 970 692 985 703 q 936 681 956 681 q 933 688 929 683 q 936 696 936 692 q 956 721 943 711 q 981 744 969 731 q 974 749 979 749 q 967 746 969 749 q 938 732 951 742 q 906 728 924 722 q 900 746 899 738 q 935 771 915 764 q 978 781 956 778 q 974 790 978 786 q 965 796 969 793 q 913 790 938 799 q 864 774 889 781 q 853 773 857 771 q 847 779 849 775 q 843 788 844 783 q 838 796 842 793 q 838 813 835 804 q 850 826 842 822 q 930 837 886 842 q 1008 817 974 832 q 1050 771 1036 799 q 1069 711 1064 743 m 1351 407 l 1254 314 l 1251 314 q 1162 247 1208 275 q 1065 199 1115 219 q 1033 191 1050 196 q 999 186 1015 186 q 988 182 994 181 q 976 181 981 183 l 974 182 l 972 181 q 966 182 969 183 q 960 179 963 181 q 863 188 911 181 q 767 204 815 196 q 690 228 726 211 q 615 256 654 244 q 520 347 561 294 q 456 458 479 400 q 447 485 453 472 q 438 513 440 497 q 435 531 439 522 q 430 550 432 540 q 428 569 428 560 q 438 586 429 578 q 456 623 444 606 q 472 661 467 640 q 472 668 469 664 q 472 676 474 672 q 457 714 469 697 q 433 747 444 731 q 423 755 429 753 q 411 760 417 757 q 398 753 404 758 q 385 747 392 749 q 453 969 393 869 q 608 1149 513 1069 q 675 1199 640 1176 q 746 1240 710 1221 q 773 1252 760 1246 q 801 1263 786 1258 q 891 1288 844 1275 q 986 1290 938 1300 l 989 1276 q 987 1250 988 1264 q 988 1224 986 1236 q 995 1201 989 1211 q 1015 1183 1001 1190 q 1058 1171 1035 1174 q 1101 1178 1082 1168 q 1112 1187 1108 1181 q 1119 1197 1115 1193 q 1158 1165 1135 1178 q 1204 1160 1181 1153 q 1228 1174 1218 1164 q 1250 1192 1238 1185 q 1342 1019 1310 1115 l 1343 1011 q 1278 931 1311 972 q 1201 867 1246 890 q 1162 850 1183 853 q 1118 847 1140 847 q 1103 851 1111 850 q 1089 854 1096 851 q 1028 883 1057 864 q 974 927 999 901 q 933 983 950 953 q 910 1047 915 1014 q 909 1069 911 1057 q 906 1094 907 1082 q 907 1116 904 1106 q 919 1133 910 1126 q 915 1146 921 1140 q 876 1135 896 1142 q 849 1108 857 1128 q 861 1103 854 1104 q 875 1099 868 1103 q 863 1060 869 1079 q 851 1022 856 1042 q 844 983 846 1003 q 850 942 843 963 q 871 935 860 935 q 896 935 883 935 q 919 936 908 936 q 942 928 932 936 q 915 906 929 918 q 883 892 901 894 q 867 891 876 889 q 851 896 858 893 q 824 927 835 908 q 810 968 813 946 q 803 970 807 972 q 796 965 799 968 q 790 946 790 956 q 792 926 790 936 q 797 905 794 915 q 800 885 800 894 q 738 773 758 836 q 743 647 718 710 q 777 585 761 615 q 825 531 793 554 q 864 506 842 514 q 910 497 886 497 q 958 500 935 496 q 1003 513 982 504 q 1094 566 1051 532 q 1167 647 1138 600 q 1244 581 1204 611 q 1318 514 1283 551 q 1326 500 1321 507 q 1338 486 1332 493 q 1351 449 1344 468 q 1351 407 1357 429 m 999 611 q 992 588 997 600 q 974 574 988 576 q 933 599 951 579 q 907 640 915 619 l 906 660 q 935 624 921 644 q 967 589 950 604 q 981 605 976 596 q 999 611 986 614 m 1375 256 q 1343 233 1361 238 q 1304 231 1325 229 q 1263 238 1283 233 q 1224 242 1242 242 q 1242 258 1231 254 q 1268 263 1254 263 q 1295 265 1282 264 q 1319 272 1308 265 q 1335 288 1326 279 q 1354 296 1343 296 q 1365 293 1360 293 q 1375 289 1371 293 q 1378 272 1378 282 q 1375 256 1378 264 m 1518 133 q 1444 122 1483 121 q 1368 128 1404 124 q 1362 128 1365 129 q 1354 132 1358 128 q 1292 144 1322 136 q 1233 161 1263 153 q 1172 176 1203 169 q 1107 182 1140 182 q 1175 222 1132 217 q 1258 218 1218 226 q 1321 214 1288 213 q 1378 235 1354 215 q 1385 247 1381 242 q 1393 258 1389 251 l 1400 275 q 1453 242 1429 265 q 1493 194 1478 219 q 1509 166 1504 182 q 1518 133 1514 150 m 1515 101 q 1510 85 1513 93 q 1497 72 1507 76 q 1432 60 1468 60 q 1363 64 1396 60 q 1200 97 1279 75 q 1044 149 1121 118 q 1052 160 1046 156 q 1060 172 1058 165 q 1147 156 1106 168 q 1233 133 1189 143 l 1254 133 l 1283 125 q 1293 124 1286 128 q 1402 104 1347 115 q 1515 101 1457 93 m 590 246 q 556 244 574 247 q 521 238 539 240 q 488 238 503 235 q 460 256 472 240 q 456 261 458 258 q 457 267 454 264 q 458 281 456 274 q 461 294 460 288 q 486 325 467 311 q 481 309 485 317 q 481 292 476 301 q 508 267 489 272 q 542 256 526 263 q 549 256 544 257 q 558 253 554 254 q 575 252 567 253 q 590 246 583 251 m 446 661 q 413 631 433 642 q 373 611 393 621 q 335 589 353 601 q 308 553 318 576 q 285 535 297 542 q 263 517 274 528 q 273 495 265 506 q 285 474 281 485 q 295 458 286 463 q 313 451 304 454 q 325 441 321 447 q 321 419 329 435 q 307 413 317 408 q 290 418 297 417 q 269 434 279 426 q 253 453 260 442 q 239 446 244 451 q 226 436 233 440 q 194 388 210 413 q 153 343 178 363 q 144 340 147 342 q 135 336 140 338 q 128 364 122 351 q 144 388 133 376 q 167 413 156 400 q 178 440 178 425 l 172 447 q 149 424 160 438 q 127 399 139 410 q 102 381 115 388 q 71 382 89 375 q 93 423 74 406 q 135 446 113 440 q 142 448 139 444 q 147 454 144 451 q 144 465 147 461 q 139 474 142 469 q 93 447 118 454 q 40 438 68 440 q 31 442 32 436 q 31 454 31 449 q 35 466 28 463 q 47 472 42 469 q 67 481 56 478 q 90 487 79 483 q 108 497 101 490 q 115 519 115 504 q 108 520 113 517 q 101 519 104 524 q 78 524 90 522 q 56 528 67 525 q 49 527 53 525 q 42 531 44 529 q 36 528 39 526 q 31 532 33 531 q 24 531 28 528 q 17 533 19 533 q 17 545 15 540 q 19 557 18 550 q 86 559 54 549 q 150 574 118 569 q 160 592 160 581 q 171 611 161 603 q 216 644 190 633 q 269 665 242 656 q 322 685 296 674 q 369 721 349 697 q 402 728 383 732 q 433 715 421 725 q 445 690 443 704 q 446 661 447 676 m 728 194 q 633 145 683 165 q 531 108 583 125 q 448 88 490 96 q 363 76 406 79 q 334 74 347 75 q 306 76 321 74 q 283 110 292 92 q 282 150 275 128 q 347 225 306 196 q 431 275 388 254 l 436 251 q 446 235 443 244 q 460 224 449 226 q 469 213 463 215 q 482 210 475 210 q 498 211 490 210 q 513 213 506 213 q 567 220 539 217 q 624 223 596 224 q 678 216 651 222 q 728 194 706 210 m 756 179 q 746 153 754 164 q 726 133 738 142 q 701 118 714 125 q 676 106 688 111 q 566 63 625 75 q 449 36 507 51 q 373 26 411 32 q 296 28 335 19 q 276 51 285 39 q 269 76 268 63 q 280 72 276 78 q 290 64 283 67 q 404 54 346 44 q 515 81 463 64 q 622 117 569 96 q 728 161 675 138 q 742 171 735 168 q 756 179 749 174 z "},"D":{"ha":1481,"x_min":107,"x_max":1283,"o":"m 844 1056 q 829 1044 838 1047 q 814 1035 821 1040 q 768 1049 789 1028 q 775 1031 772 1040 q 786 1015 778 1022 q 805 1011 794 1008 q 824 1019 815 1014 q 838 1035 831 1026 q 844 1056 846 1044 m 1282 547 q 1263 592 1272 569 q 1232 629 1254 614 q 1210 638 1219 631 q 1192 656 1200 646 q 1178 676 1185 665 q 1164 694 1172 686 q 1135 726 1153 714 q 1101 754 1117 739 l 1088 757 q 1079 774 1076 761 q 1078 797 1082 788 l 1086 1013 q 1096 1147 1089 1082 q 1106 1281 1103 1213 l 1099 1286 q 1039 1311 1072 1304 q 992 1319 1015 1315 q 944 1325 969 1322 q 933 1348 938 1336 q 919 1369 928 1360 q 883 1372 901 1378 q 853 1353 865 1367 q 847 1363 849 1357 q 842 1375 844 1368 q 824 1385 832 1378 q 804 1388 817 1392 q 772 1368 785 1381 q 749 1326 753 1350 q 747 1276 744 1303 q 745 1244 749 1260 q 738 1215 742 1229 q 729 1185 733 1200 q 728 1154 725 1171 q 736 1147 731 1147 q 747 1144 743 1147 l 747 1129 q 747 1135 749 1132 q 749 1142 746 1139 q 769 1118 764 1133 q 776 1088 774 1103 q 784 1073 781 1081 q 797 1065 788 1065 q 807 1068 803 1068 q 815 1074 813 1068 q 860 1131 831 1106 q 922 1168 890 1157 q 928 1163 925 1165 q 935 1161 931 1160 q 936 1169 938 1165 q 933 1178 935 1174 q 923 1186 928 1181 q 911 1189 918 1192 q 888 1164 904 1172 q 857 1149 872 1156 q 797 1143 829 1144 q 742 1163 764 1142 q 735 1185 731 1174 q 739 1207 740 1196 q 747 1224 746 1214 q 756 1240 749 1233 q 767 1241 763 1243 q 778 1232 772 1239 q 778 1228 781 1229 q 774 1225 775 1226 q 761 1206 758 1217 q 759 1194 757 1199 q 763 1182 761 1189 q 776 1170 769 1176 q 794 1167 783 1164 q 807 1169 801 1168 q 815 1178 813 1169 l 785 1182 q 777 1194 774 1186 q 781 1208 781 1201 q 791 1215 785 1219 q 804 1211 797 1210 q 807 1218 807 1214 q 799 1226 804 1225 q 788 1231 793 1228 q 806 1241 797 1236 q 821 1256 815 1246 q 833 1239 825 1246 q 849 1225 842 1232 l 872 1222 q 900 1235 889 1225 q 919 1259 911 1246 q 932 1288 926 1272 q 943 1315 938 1303 q 979 1315 963 1319 q 1013 1310 996 1311 q 1021 1308 1017 1310 q 1028 1307 1025 1306 q 1047 1299 1042 1304 q 1028 1160 1036 1229 q 1018 1019 1019 1090 l 1014 858 l 1011 764 q 976 756 992 768 q 949 728 960 743 l 949 692 q 965 673 960 683 q 976 652 971 663 q 987 631 981 642 q 1004 614 993 621 l 1010 574 l 1026 413 q 1033 343 1029 378 q 1033 274 1036 308 q 1017 264 1028 264 q 997 257 1006 264 q 913 246 956 250 q 826 239 871 242 q 814 253 817 244 q 804 268 811 261 q 799 319 797 293 q 803 372 800 346 q 792 371 796 376 q 783 365 789 365 q 771 338 782 350 q 751 314 760 326 q 637 234 703 256 q 496 215 571 213 q 400 236 444 217 q 322 294 356 256 q 281 348 296 318 q 260 411 267 378 q 253 511 254 458 q 271 607 253 564 q 289 653 282 629 q 314 696 296 676 q 376 786 338 744 q 464 854 415 828 q 526 876 496 863 q 592 889 556 890 q 679 880 640 896 q 746 829 718 864 q 754 853 751 839 q 747 987 750 919 q 746 1121 744 1054 q 744 983 738 1053 q 743 843 751 913 q 721 860 732 850 q 699 878 710 871 q 647 900 675 893 q 589 906 618 907 q 531 898 560 906 q 478 878 501 890 q 464 871 471 874 q 450 861 457 868 q 407 830 426 847 q 369 794 388 813 q 366 799 368 797 q 365 804 364 801 q 358 853 363 828 q 364 903 353 879 q 374 914 367 910 q 381 926 382 918 q 377 940 382 935 q 365 950 372 944 q 338 949 351 949 q 314 940 325 950 q 305 913 303 929 q 300 886 307 897 q 294 887 296 885 q 290 892 293 889 q 268 916 283 907 q 243 940 253 925 q 214 954 228 946 q 183 956 200 963 q 167 925 163 949 q 156 918 164 915 q 142 917 147 921 q 124 892 126 907 q 107 865 121 876 q 126 824 110 839 l 122 818 q 123 797 121 807 q 133 782 125 788 q 167 775 151 779 q 196 756 183 771 q 213 731 201 740 q 238 715 224 721 q 266 705 251 708 q 294 699 281 701 q 297 690 301 694 q 293 681 292 686 q 263 621 272 653 q 244 557 253 589 l 246 554 q 244 544 247 549 q 243 533 240 540 q 238 480 240 507 q 243 426 236 453 q 244 418 242 424 q 244 410 246 413 q 280 315 253 360 q 353 244 307 269 q 371 239 361 242 q 388 229 381 236 q 369 220 378 225 q 353 207 360 215 q 275 140 311 183 q 227 128 250 138 q 183 104 204 118 q 160 81 174 92 q 154 53 146 71 q 182 36 164 35 q 238 19 210 26 q 293 0 265 11 l 379 10 q 452 23 419 10 q 521 46 485 36 q 585 51 557 38 q 644 72 614 64 q 691 58 667 61 q 742 57 715 56 q 794 62 768 58 q 844 65 819 65 q 885 51 865 57 q 929 42 906 44 q 950 36 940 36 q 971 32 961 36 q 978 32 974 35 q 985 31 982 29 q 1026 24 1006 26 q 1068 19 1047 22 q 1101 19 1083 21 q 1135 17 1118 17 q 1169 19 1153 17 q 1197 33 1185 22 q 1211 47 1203 42 q 1228 57 1219 51 q 1242 69 1236 63 q 1251 86 1249 75 q 1253 102 1257 93 q 1246 118 1249 111 q 1235 135 1242 129 q 1219 144 1228 140 q 1201 151 1210 147 q 1185 161 1192 154 l 1183 160 q 1175 163 1181 164 q 1169 169 1169 163 q 1147 188 1158 178 q 1122 204 1135 197 q 1089 222 1107 215 q 1056 239 1071 228 q 1077 247 1065 246 q 1096 260 1089 249 q 1088 369 1093 314 q 1092 476 1083 424 q 1108 492 1101 483 q 1126 503 1115 501 q 1147 503 1138 507 q 1164 493 1156 499 q 1160 481 1167 485 q 1154 471 1154 478 q 1165 455 1158 463 q 1167 436 1171 447 q 1182 419 1175 426 q 1204 413 1189 411 q 1214 435 1204 425 q 1218 435 1217 435 q 1222 436 1219 436 q 1240 422 1229 425 q 1264 419 1251 419 q 1267 422 1267 419 q 1269 426 1268 424 q 1276 441 1274 433 q 1269 454 1278 449 q 1265 478 1263 467 q 1271 500 1267 489 q 1279 523 1275 511 q 1282 547 1283 535 m 754 485 l 747 640 q 750 643 750 642 q 753 647 750 644 q 724 670 739 660 q 692 685 708 681 q 641 683 664 692 q 599 660 618 675 q 555 604 567 636 q 535 539 543 572 q 534 488 528 513 q 560 446 540 464 q 624 426 586 424 q 692 436 661 429 q 726 456 707 447 q 754 485 746 465 m 922 1350 q 923 1317 925 1333 q 914 1285 921 1300 q 909 1299 911 1292 q 899 1308 907 1307 q 881 1311 889 1310 q 867 1306 874 1313 q 860 1275 860 1292 q 865 1246 860 1260 q 867 1242 868 1243 q 869 1238 867 1240 q 858 1238 864 1239 q 849 1242 853 1238 q 837 1287 832 1263 q 850 1331 842 1311 q 869 1356 857 1343 q 896 1367 881 1368 q 912 1363 906 1368 q 922 1350 918 1357 m 839 1360 q 838 1339 842 1349 q 832 1319 835 1329 q 818 1327 825 1322 q 803 1329 811 1332 q 785 1314 792 1324 q 781 1292 779 1304 q 781 1271 778 1281 q 782 1251 783 1261 q 765 1265 769 1254 q 757 1286 761 1276 q 758 1324 758 1306 q 774 1356 758 1343 q 791 1374 779 1369 q 815 1379 803 1378 q 828 1372 822 1376 q 839 1360 835 1367 m 844 1133 q 824 1112 835 1124 q 797 1107 814 1100 l 782 1124 q 811 1131 793 1133 q 844 1133 829 1128 m 1269 532 q 1264 513 1268 522 q 1249 500 1260 504 q 1242 508 1244 503 q 1236 519 1239 514 q 1230 526 1233 524 q 1218 524 1226 528 q 1238 488 1225 504 q 1263 456 1251 472 q 1267 446 1265 451 q 1265 435 1268 440 q 1258 431 1263 431 q 1253 429 1256 431 q 1242 433 1246 428 q 1235 440 1238 438 q 1192 483 1213 460 q 1142 514 1171 507 q 1135 518 1139 519 q 1128 519 1131 517 q 1097 492 1113 503 q 1058 482 1081 481 q 1045 494 1053 489 q 1039 510 1038 500 q 1054 524 1042 524 q 1079 528 1068 524 q 1094 545 1093 533 q 1106 564 1096 557 q 1117 578 1117 571 q 1113 594 1117 586 q 1103 610 1108 601 q 1099 626 1099 618 q 1084 649 1089 638 q 1072 672 1079 661 l 1063 663 l 971 679 q 964 704 964 690 q 969 729 964 718 q 1012 753 985 751 q 1063 750 1039 754 q 1104 737 1086 751 q 1139 708 1122 722 q 1158 689 1150 700 q 1173 667 1165 678 q 1190 647 1181 656 q 1211 632 1199 638 q 1252 589 1235 614 q 1269 532 1269 564 m 1211 446 q 1205 438 1207 443 q 1201 427 1203 432 q 1196 420 1199 422 q 1185 424 1193 418 q 1177 433 1182 429 q 1174 444 1172 438 q 1190 465 1175 458 q 1203 460 1199 467 q 1211 446 1208 453 m 738 632 q 738 589 735 611 q 742 545 742 567 q 738 503 743 524 q 713 469 732 483 q 688 462 701 467 q 662 454 675 457 q 637 454 649 451 q 617 471 625 457 q 617 544 607 508 q 649 610 626 581 q 665 630 653 625 q 686 646 678 635 q 715 647 700 650 q 738 632 731 644 m 1181 111 q 1146 95 1168 93 q 1104 97 1124 97 q 981 125 1039 106 q 864 168 922 144 q 846 184 853 175 q 832 204 839 193 q 835 214 832 210 q 843 222 839 218 q 910 213 875 215 q 972 226 944 211 q 994 238 982 236 q 1018 235 1006 239 q 1042 226 1031 232 q 1063 215 1053 221 q 1079 208 1072 213 q 1096 203 1086 203 q 1132 176 1113 188 q 1169 147 1151 164 q 1181 111 1183 131 m 1199 106 q 1205 76 1204 93 q 1196 47 1206 58 q 1151 38 1174 39 q 1106 40 1129 36 q 1062 51 1083 44 q 1019 63 1040 57 q 964 81 992 71 q 910 106 936 92 q 903 95 900 101 q 904 82 907 89 q 869 92 885 83 q 839 108 854 100 l 821 126 q 816 160 824 144 q 817 190 808 175 q 821 188 819 192 q 825 181 822 183 q 849 156 839 171 q 879 138 860 140 q 897 128 888 131 q 915 121 906 125 q 960 110 938 114 q 1003 94 983 106 q 1043 88 1024 92 q 1083 79 1063 83 q 1124 74 1103 75 q 1167 78 1144 72 q 1185 89 1175 83 q 1199 106 1194 94 m 368 918 q 355 902 357 911 q 346 885 353 893 q 345 846 339 865 q 354 807 351 826 q 317 765 331 789 q 292 715 303 740 q 285 711 285 713 q 279 712 282 714 q 274 711 276 710 q 255 716 263 708 q 236 726 247 724 q 215 750 225 738 q 192 773 204 763 q 167 788 181 783 q 135 789 153 793 q 128 801 128 793 q 128 815 129 808 q 158 823 142 829 q 189 817 174 817 l 193 819 q 163 833 179 831 q 129 839 146 835 q 119 856 121 847 q 124 864 124 858 q 129 872 124 871 q 160 858 144 865 q 193 847 176 851 q 203 851 200 847 q 187 868 199 864 q 163 874 175 872 q 142 882 151 876 q 132 903 133 888 q 151 913 138 910 q 183 905 169 914 q 213 886 197 896 q 225 879 219 888 q 213 852 225 864 q 199 825 201 840 q 193 808 190 819 l 199 803 q 216 838 208 821 q 235 874 224 856 q 247 886 244 879 q 214 899 228 888 q 185 921 200 911 q 177 923 182 924 q 174 928 172 922 q 181 942 176 938 q 193 951 186 946 q 209 949 203 953 q 222 940 215 946 q 233 929 228 935 q 246 921 239 924 q 269 899 258 911 q 292 879 279 888 q 272 839 278 861 q 272 793 265 817 q 280 783 279 789 q 290 779 281 778 l 294 785 q 280 814 279 796 q 283 847 281 832 q 299 858 290 853 q 310 872 307 863 q 313 890 313 881 q 314 912 313 901 q 319 931 315 922 q 333 943 322 939 q 351 944 342 940 q 364 936 361 949 q 368 918 368 929 m 831 235 q 822 216 828 224 q 813 199 817 208 q 805 181 810 189 q 797 161 800 172 q 783 165 792 165 q 771 164 776 165 l 768 165 q 718 160 743 163 q 667 156 693 158 q 663 174 668 165 q 653 190 658 182 q 644 208 647 199 q 649 226 642 217 q 687 247 668 236 q 724 272 706 257 q 736 280 731 275 q 746 289 742 285 q 763 309 753 300 q 778 329 772 318 l 782 329 q 792 282 789 306 q 814 239 794 258 l 831 235 m 626 217 l 625 181 q 443 96 539 129 q 374 74 410 83 q 300 75 338 65 q 288 85 290 78 q 282 99 286 92 q 288 135 279 119 q 312 164 297 151 q 343 186 326 176 q 374 204 360 196 q 397 205 385 204 q 422 206 410 206 q 445 201 435 206 q 464 188 456 197 q 528 184 496 181 q 586 204 561 188 q 606 211 596 208 q 626 217 615 214 m 644 111 q 619 89 629 103 q 590 71 608 75 q 567 58 579 61 q 540 51 554 54 q 538 67 533 58 q 531 81 542 76 q 437 37 488 49 q 335 14 386 25 q 304 12 319 15 q 275 17 289 8 q 261 28 264 21 q 258 43 258 35 q 260 63 258 53 q 260 82 261 74 l 261 85 l 260 86 q 261 90 263 88 q 260 94 260 92 q 275 69 264 81 q 301 53 286 57 q 397 63 353 46 q 486 94 442 79 q 565 135 526 114 q 640 185 604 156 q 649 149 654 169 q 644 111 644 129 z "},"E":{"ha":1921,"x_min":0,"x_max":1803,"o":"m 1801 868 q 1798 896 1803 883 q 1785 920 1793 908 q 1770 944 1778 932 q 1760 971 1763 957 q 1747 981 1754 981 q 1733 979 1740 982 q 1719 974 1726 976 q 1706 978 1713 972 q 1712 1001 1706 990 q 1726 1023 1718 1013 q 1739 1044 1733 1033 q 1744 1069 1744 1056 q 1738 1084 1744 1078 q 1725 1094 1732 1090 q 1672 1072 1693 1097 q 1657 1043 1663 1058 q 1647 1013 1651 1028 q 1635 983 1642 997 q 1617 956 1628 968 q 1594 950 1604 947 q 1583 948 1590 947 q 1574 949 1576 949 l 1572 946 q 1568 949 1571 946 q 1545 941 1557 942 q 1525 928 1533 940 l 1513 863 q 1510 817 1508 840 q 1518 774 1511 793 q 1438 705 1478 738 q 1361 632 1397 672 q 1335 641 1350 640 q 1304 639 1319 642 q 1274 599 1292 617 q 1239 563 1256 582 q 1177 522 1211 540 q 1106 495 1143 504 q 1032 488 1069 486 q 960 508 994 490 q 892 583 911 533 q 871 683 874 632 q 889 689 878 690 q 908 693 900 688 q 966 688 936 690 q 1026 688 996 686 q 1097 710 1064 694 q 1168 731 1129 725 q 1304 753 1233 750 q 1446 764 1375 757 q 1458 780 1451 772 q 1469 796 1465 788 q 1483 968 1496 879 q 1431 1128 1471 1057 q 1312 1266 1386 1207 q 1158 1356 1238 1325 q 1085 1376 1122 1369 q 1007 1385 1047 1382 l 1003 1389 l 954 1389 l 953 1385 q 779 1351 861 1379 q 626 1264 697 1322 q 510 1138 557 1207 q 438 992 464 1069 q 406 829 413 914 q 410 656 399 744 l 407 650 q 333 596 371 622 q 263 533 296 569 q 232 535 247 536 q 201 533 217 535 q 121 517 158 529 q 104 507 113 507 q 90 511 97 507 q 76 522 83 515 q 60 529 68 528 q 40 534 50 543 q 22 518 29 525 q 16 502 19 510 q 17 485 13 494 q 30 463 31 474 q 23 440 29 451 q 8 417 17 429 q 0 393 0 406 q 10 390 6 390 q 22 386 15 389 q 28 370 31 381 q 32 353 25 360 q 58 347 47 356 q 78 329 68 339 q 98 313 88 319 q 125 311 108 306 q 139 327 135 317 q 144 349 143 338 q 145 371 144 360 q 150 392 146 382 q 188 390 176 400 q 203 364 199 381 q 211 328 208 347 q 224 299 214 310 q 237 286 228 289 q 256 283 246 283 q 276 285 265 283 q 296 286 288 286 q 310 299 306 290 q 319 315 314 308 l 306 329 q 300 363 297 344 q 314 396 303 382 q 332 438 318 421 q 365 467 346 454 q 404 489 383 479 q 444 508 425 499 q 503 400 471 450 q 588 301 536 350 l 588 294 q 518 267 553 282 q 451 232 483 251 q 410 203 431 219 q 376 165 390 186 q 354 121 361 144 q 353 69 347 97 q 369 42 358 53 q 395 24 381 31 q 425 13 410 17 q 456 4 440 8 q 653 7 556 -7 q 839 53 751 21 l 1000 46 l 1003 47 q 1063 45 1032 44 q 1122 47 1093 46 q 1165 55 1144 47 q 1207 51 1186 63 q 1211 49 1210 50 q 1215 50 1213 47 q 1300 33 1254 38 q 1369 26 1333 29 q 1439 22 1404 22 q 1509 27 1475 22 q 1574 44 1543 32 q 1602 78 1599 56 q 1613 122 1606 101 q 1632 136 1621 132 q 1656 142 1643 140 q 1680 146 1668 143 q 1701 157 1692 149 q 1700 190 1711 176 q 1592 251 1650 231 q 1476 293 1535 272 q 1461 297 1469 296 q 1446 303 1453 299 q 1479 349 1468 324 q 1507 397 1490 374 q 1510 431 1515 415 q 1497 460 1506 446 q 1482 490 1489 475 q 1479 522 1475 504 q 1542 612 1507 571 q 1618 694 1578 653 q 1679 703 1649 689 q 1717 740 1697 721 q 1755 778 1738 758 q 1785 821 1772 799 q 1801 868 1799 843 m 1731 1064 q 1701 997 1717 1029 q 1671 933 1686 965 q 1664 951 1671 943 q 1650 968 1657 960 q 1641 985 1643 976 q 1651 1006 1639 994 q 1672 1046 1658 1028 q 1700 1082 1685 1064 q 1728 1071 1718 1086 q 1728 1067 1729 1068 q 1731 1064 1728 1065 m 1749 926 q 1717 899 1733 911 q 1679 883 1700 886 q 1679 906 1672 894 q 1693 929 1686 918 q 1715 949 1703 942 q 1738 967 1726 957 q 1749 950 1751 964 q 1749 926 1746 936 m 1775 907 q 1762 863 1771 886 q 1728 836 1753 840 l 1726 838 q 1718 837 1722 835 q 1710 840 1714 839 l 1700 856 q 1735 889 1717 871 q 1775 907 1753 907 m 1776 819 l 1753 796 q 1732 795 1742 794 q 1715 803 1722 796 q 1742 825 1726 818 q 1772 842 1757 832 q 1778 832 1778 839 q 1776 819 1779 825 m 1725 779 q 1693 734 1714 754 q 1646 708 1672 714 q 1596 719 1615 706 q 1569 665 1586 690 q 1531 615 1551 639 q 1490 568 1511 592 q 1453 518 1469 544 q 1424 518 1439 514 q 1397 533 1408 522 q 1374 570 1381 549 q 1367 613 1368 592 q 1372 624 1369 619 q 1376 636 1375 629 q 1448 704 1408 676 q 1525 760 1488 732 q 1544 754 1535 753 q 1544 763 1549 760 q 1539 771 1540 767 q 1522 803 1526 785 q 1519 842 1518 822 q 1526 881 1521 863 q 1540 914 1532 899 q 1560 929 1549 926 q 1583 933 1571 932 q 1606 936 1594 933 q 1625 950 1617 939 q 1638 949 1633 953 q 1644 940 1642 946 q 1647 928 1646 935 q 1650 917 1647 921 q 1635 895 1647 903 q 1611 885 1622 888 q 1596 887 1603 883 q 1583 894 1589 890 q 1570 899 1576 897 q 1556 896 1564 900 l 1581 868 q 1574 863 1578 865 q 1574 856 1571 860 q 1595 842 1583 849 q 1611 821 1607 835 l 1615 790 q 1623 786 1618 789 q 1632 790 1628 783 q 1630 829 1638 811 q 1607 863 1622 847 q 1624 872 1614 869 q 1643 878 1633 874 q 1662 852 1654 867 q 1678 823 1669 838 q 1697 797 1686 808 q 1725 779 1707 785 m 1119 765 q 1095 732 1113 746 q 1058 711 1078 718 q 993 701 1029 703 q 932 719 957 699 q 1015 751 969 744 q 1106 765 1061 757 l 1119 765 m 1419 418 q 1414 385 1421 400 q 1397 357 1407 371 q 1375 330 1386 343 q 1358 303 1364 317 q 1231 212 1304 244 q 1079 169 1158 179 q 919 169 1000 158 q 768 208 839 179 q 682 251 725 225 q 600 311 639 278 q 530 385 561 344 q 481 469 499 425 q 499 480 490 472 q 514 496 507 488 q 518 511 517 503 q 522 526 519 519 q 522 534 518 531 q 526 543 526 538 l 525 544 q 524 595 532 572 q 508 642 517 618 q 481 665 494 653 q 449 672 468 678 q 418 660 433 664 q 435 933 404 803 q 549 1171 465 1064 q 708 1307 618 1260 q 903 1371 799 1354 q 910 1372 906 1368 q 921 1371 915 1375 l 928 1374 q 975 1374 951 1372 q 1019 1371 999 1376 l 1026 1372 q 1133 1346 1079 1367 q 1233 1292 1188 1325 q 1313 1213 1279 1258 q 1361 1114 1347 1168 q 1375 1074 1369 1094 q 1386 1033 1381 1054 q 1401 937 1396 986 q 1400 836 1406 888 l 1390 825 q 1140 805 1260 826 q 904 751 1021 783 q 857 753 881 753 q 811 749 833 754 q 781 753 797 756 q 750 757 764 751 q 745 756 747 753 q 740 758 743 758 l 739 757 q 700 774 719 764 q 669 801 681 785 q 675 812 669 808 q 686 818 681 815 q 693 825 692 821 q 686 838 694 829 q 639 815 663 825 q 596 786 615 806 q 595 783 594 785 q 593 781 596 782 q 600 776 596 775 q 608 776 604 778 q 630 753 625 769 q 643 724 635 736 q 679 623 660 672 q 733 529 699 574 q 772 493 750 506 q 816 474 793 481 q 863 462 839 467 q 911 450 888 457 q 1072 458 994 440 q 1211 524 1149 475 q 1256 566 1235 543 q 1294 613 1278 589 q 1357 516 1326 565 q 1419 418 1388 467 m 1592 160 q 1594 131 1600 144 q 1579 107 1589 118 q 1573 108 1576 107 q 1567 106 1569 108 q 1474 111 1515 103 q 1468 114 1471 111 q 1463 113 1465 117 q 1383 131 1421 118 q 1307 156 1346 144 q 1274 169 1290 161 q 1239 179 1258 176 q 1233 183 1236 185 q 1228 185 1231 182 q 1266 203 1249 192 q 1300 228 1283 214 q 1315 236 1308 231 q 1328 247 1321 242 q 1366 267 1344 260 q 1410 275 1388 274 q 1453 272 1432 276 q 1492 253 1475 267 q 1550 214 1524 240 q 1592 160 1576 188 m 1590 90 q 1580 67 1592 76 q 1557 51 1568 57 q 1348 77 1446 44 q 1161 160 1250 110 q 1183 172 1168 171 q 1211 171 1197 174 q 1268 147 1242 164 q 1326 124 1294 131 l 1331 121 q 1456 95 1393 106 q 1590 90 1519 85 m 886 475 q 882 478 883 478 q 873 478 878 476 q 863 481 868 479 q 852 484 858 482 q 839 486 846 486 q 819 497 829 493 q 800 507 808 500 q 749 549 769 524 q 711 601 729 574 q 712 603 711 603 q 713 606 713 604 l 711 607 l 708 606 q 707 611 711 611 q 703 615 703 611 q 697 627 700 622 q 694 639 694 632 q 727 624 713 635 q 755 600 742 613 q 781 575 768 588 q 811 554 794 563 q 813 561 813 554 q 805 574 810 568 q 799 588 800 581 q 787 603 792 594 q 778 621 782 613 q 808 614 794 621 q 831 595 821 607 q 850 570 842 583 q 865 544 858 557 q 878 511 874 529 q 886 475 882 493 m 763 157 q 733 140 751 140 q 697 132 714 139 l 696 133 q 687 129 693 128 q 678 128 681 131 q 653 119 667 121 q 629 115 640 117 q 610 112 618 118 q 590 108 601 106 q 571 105 581 101 q 553 100 561 108 q 550 106 553 104 q 547 99 551 99 q 539 97 542 100 q 533 100 539 100 l 531 96 l 528 97 q 460 90 496 90 q 390 97 424 90 q 389 101 392 99 l 385 97 q 382 106 385 103 q 383 115 379 110 q 378 119 376 115 q 378 126 381 124 q 390 158 382 142 q 413 183 397 175 q 521 242 460 222 q 528 243 524 240 q 536 243 533 246 q 544 247 540 249 q 553 249 547 244 q 557 247 554 246 q 561 250 560 249 q 591 253 576 251 q 621 254 606 256 l 625 249 q 635 250 631 253 q 646 247 640 247 q 697 218 671 232 q 746 183 722 204 q 744 183 744 185 q 742 182 743 182 q 744 178 742 181 q 747 178 746 178 q 747 179 747 179 l 763 157 m 499 543 q 417 510 454 533 q 342 467 381 488 l 328 481 q 315 449 319 465 q 307 417 311 433 q 295 386 303 401 q 274 358 288 371 q 292 338 285 350 q 303 314 299 326 q 286 298 297 301 q 264 292 275 294 q 244 294 251 289 q 234 307 238 299 q 228 324 231 315 q 219 340 225 333 q 217 349 217 344 q 214 358 217 354 l 215 360 q 193 399 211 389 q 153 412 175 408 q 108 419 131 415 q 69 439 85 422 q 52 456 61 447 q 36 474 43 464 q 26 494 29 483 q 28 518 24 506 q 39 528 33 528 q 53 523 46 528 q 66 512 60 518 q 78 503 72 506 q 120 467 97 482 q 171 461 143 453 q 149 476 161 472 q 125 489 136 479 q 147 512 131 506 q 181 519 164 518 q 259 524 226 507 q 320 566 292 540 q 378 619 349 592 q 449 654 408 646 q 469 651 460 651 q 488 643 479 650 q 502 595 503 624 q 499 543 501 567 m 826 143 q 808 114 819 125 q 781 96 796 103 q 751 83 767 89 q 722 72 736 78 q 576 40 650 53 q 421 31 501 28 q 374 57 389 29 q 367 89 368 75 q 436 71 400 74 q 510 72 472 68 q 583 83 547 75 q 653 100 619 92 q 738 124 696 111 q 824 144 779 136 l 826 143 m 138 374 q 133 358 133 367 q 130 342 132 350 q 123 328 128 333 q 108 322 118 322 q 94 348 96 333 q 94 376 92 363 q 106 393 96 386 q 124 386 117 393 q 138 374 131 379 m 76 403 q 75 375 78 388 q 61 353 72 363 q 48 357 50 350 q 43 371 46 364 q 65 413 42 397 q 76 403 75 410 m 40 425 q 38 405 39 415 q 26 392 36 394 q 13 397 19 390 q 22 417 15 407 q 40 425 29 426 m 1158 1007 q 1140 1076 1149 1042 q 1119 1144 1131 1111 q 1097 1171 1114 1164 q 1063 1179 1081 1178 q 1013 1125 1032 1156 q 979 1064 994 1094 q 965 1085 969 1074 q 958 1109 961 1097 q 951 1133 956 1121 q 936 1153 947 1144 q 922 1161 928 1156 q 904 1164 915 1167 q 833 1107 858 1149 q 794 1024 807 1065 q 791 1010 793 1017 q 790 999 789 1004 q 785 964 788 982 q 789 929 782 946 q 904 967 844 956 q 1026 990 964 979 l 1029 989 q 1061 995 1044 996 q 1093 1000 1078 994 l 1096 999 l 1097 1000 q 1112 1002 1104 1003 q 1125 1001 1119 1001 q 1140 1004 1132 1004 q 1158 1007 1150 1004 m 1071 946 q 1036 971 1058 963 q 972 946 997 978 q 1021 949 994 944 q 1035 933 1032 943 q 1040 914 1038 924 q 1015 890 1028 900 q 989 868 1001 881 l 997 868 q 1035 874 1017 865 q 1068 894 1053 882 q 1076 919 1076 906 q 1071 946 1076 933 m 1128 1018 q 1091 1016 1110 1018 q 1053 1015 1072 1014 q 1058 1062 1060 1036 q 1049 1108 1056 1088 q 1039 1110 1043 1108 q 1029 1110 1035 1113 l 1018 1103 q 1028 1119 1021 1114 q 1043 1132 1036 1124 l 1085 1158 q 1106 1137 1101 1153 q 1119 1108 1111 1121 q 1128 1064 1124 1086 q 1128 1018 1132 1042 m 953 1004 q 915 990 933 996 q 878 978 897 985 l 876 979 q 884 1014 879 996 q 882 1050 889 1032 q 868 1064 876 1060 q 850 1071 860 1068 q 838 1070 843 1074 q 826 1069 833 1067 q 856 1110 838 1089 q 896 1142 874 1131 q 928 1118 919 1139 q 942 1078 936 1097 l 953 1004 z "},"F":{"ha":1428,"x_min":157,"x_max":1228,"o":"m 1228 122 q 1217 138 1228 135 q 1200 151 1207 142 q 1148 171 1176 164 q 1090 171 1119 178 q 1063 191 1075 179 q 1035 213 1050 203 l 1026 214 q 978 238 1004 232 q 925 251 951 244 q 906 308 911 278 q 899 371 900 339 q 899 435 897 403 q 901 500 900 468 q 922 511 911 508 q 942 525 933 514 q 965 559 950 543 q 996 591 981 575 q 1023 625 1011 607 q 1035 665 1035 643 q 985 715 1011 690 q 928 750 960 739 q 910 756 919 758 q 892 758 900 753 q 883 769 885 763 q 879 782 881 775 q 883 792 879 789 q 892 800 888 796 q 944 805 918 800 q 997 813 969 810 q 1013 820 1004 817 q 1024 835 1022 824 q 1019 899 1026 867 q 1008 963 1011 931 q 988 974 999 971 q 969 988 976 978 q 949 1003 961 999 q 922 1010 936 1008 q 894 1012 908 1011 q 868 1017 881 1013 q 867 1024 864 1021 q 867 1065 865 1043 q 865 1107 868 1086 l 867 1108 q 898 1134 879 1128 q 938 1140 917 1140 q 980 1134 958 1139 q 1019 1126 1001 1129 q 1035 1215 1026 1171 q 1056 1304 1044 1260 q 1017 1338 1036 1322 q 974 1363 997 1353 q 903 1385 942 1382 q 825 1389 865 1389 q 772 1381 797 1386 q 724 1364 747 1375 q 704 1355 713 1361 q 686 1346 696 1349 q 649 1315 668 1331 q 614 1279 629 1299 q 582 1274 594 1279 q 562 1248 563 1267 q 556 1215 561 1229 q 560 1194 553 1203 q 568 1175 567 1186 q 565 1098 565 1139 q 572 1021 564 1057 l 563 1014 q 515 1008 539 1007 q 467 1004 490 1008 q 447 1000 458 1001 q 432 989 436 999 q 428 915 429 953 q 433 840 426 876 q 450 821 440 828 q 472 810 460 814 q 494 805 483 807 q 517 797 506 803 q 531 795 522 794 q 546 796 539 796 q 558 792 553 796 q 565 781 564 789 q 542 759 554 771 q 518 740 529 747 q 497 719 507 732 q 472 704 486 707 q 450 713 463 711 q 425 715 438 714 q 401 716 413 715 q 379 724 389 717 q 376 738 376 731 q 368 750 375 746 q 325 770 349 763 q 289 799 301 778 l 261 775 q 263 756 257 765 q 261 735 268 746 q 217 710 238 726 q 186 684 197 701 q 164 651 175 667 q 165 631 157 640 q 181 611 174 621 q 193 600 193 610 q 203 585 193 590 q 227 590 218 576 q 247 607 236 603 q 305 621 275 617 q 361 639 335 625 q 386 617 372 624 q 416 606 400 610 q 449 601 432 603 q 481 594 465 599 q 519 614 501 601 q 556 642 538 626 q 558 631 558 636 q 557 618 557 625 l 564 386 l 565 276 q 522 258 544 260 q 481 227 504 239 q 433 207 457 215 q 389 183 411 196 q 351 150 367 171 q 327 124 340 136 q 307 96 314 111 q 307 76 300 85 q 318 60 314 68 q 333 50 325 54 q 353 49 342 46 q 361 40 358 44 q 368 32 364 36 q 437 7 399 10 q 514 7 475 4 l 757 0 q 910 3 835 -3 q 1056 24 985 8 q 1117 42 1088 31 q 1171 78 1147 53 q 1184 91 1175 88 q 1203 97 1193 94 q 1220 105 1213 100 q 1228 122 1228 110 m 726 1226 q 719 1235 724 1233 q 710 1240 714 1238 q 696 1240 701 1243 q 686 1232 690 1236 q 678 1214 682 1224 q 678 1193 675 1204 q 664 1204 668 1196 q 656 1219 660 1213 q 667 1256 658 1239 q 694 1279 675 1272 q 708 1276 703 1282 q 719 1268 713 1271 q 728 1249 724 1260 q 726 1226 733 1238 m 628 1242 l 625 1240 q 626 1234 628 1238 q 625 1228 625 1231 q 610 1233 618 1231 q 596 1228 603 1235 q 586 1210 589 1221 q 589 1189 583 1199 q 583 1186 588 1186 q 566 1211 572 1197 q 565 1240 560 1225 q 574 1255 568 1247 q 589 1265 581 1263 q 608 1263 599 1264 q 624 1251 617 1261 q 628 1242 624 1246 m 1015 665 q 994 610 1008 636 q 954 564 981 585 l 943 572 q 936 558 933 568 q 935 542 939 549 q 923 533 928 539 q 913 523 918 528 q 902 516 908 518 q 888 519 896 514 q 889 527 886 524 q 890 535 892 531 l 883 540 q 873 529 876 536 q 865 516 869 522 q 856 505 861 510 q 842 501 851 500 q 838 515 835 508 q 843 528 840 521 q 851 550 853 540 q 839 546 843 550 q 832 536 835 542 q 825 526 829 531 q 813 524 821 522 q 812 540 808 532 q 820 554 815 547 q 831 568 825 561 q 838 583 836 575 q 826 583 831 589 q 817 575 822 578 q 806 560 810 569 q 793 553 803 550 q 807 583 797 569 q 829 607 817 596 q 819 609 824 614 q 810 606 815 604 q 797 594 803 599 q 781 590 790 590 q 772 593 778 592 q 768 601 765 594 q 775 613 767 611 q 789 618 783 614 q 813 630 800 628 q 839 635 826 632 q 865 628 854 638 q 885 611 876 619 q 894 594 886 601 q 904 578 901 588 q 910 576 908 578 q 909 595 910 585 q 904 614 908 606 q 907 644 900 629 q 925 671 914 660 q 926 676 924 674 q 925 681 928 678 q 910 675 915 683 q 900 664 906 667 q 874 673 888 669 q 846 681 860 676 q 833 701 835 689 q 835 726 832 714 l 863 756 q 922 741 892 749 q 974 710 953 733 q 997 690 989 703 q 1015 665 1006 676 m 990 1347 q 974 1269 988 1306 q 961 1189 961 1232 l 960 1186 q 874 1178 914 1193 q 808 1126 833 1163 q 797 1074 797 1103 q 800 1018 797 1046 l 810 1000 q 880 1000 846 997 q 946 993 914 1003 l 949 854 q 879 849 914 850 q 811 842 844 849 q 810 819 807 831 q 813 796 814 808 q 809 742 814 768 q 810 692 804 717 q 809 676 807 685 q 813 660 811 668 q 812 647 814 653 q 800 636 810 640 q 774 626 785 635 q 751 610 763 618 l 747 593 q 761 581 754 586 q 778 576 768 575 q 780 547 774 560 q 797 523 786 535 q 818 499 807 511 q 833 475 829 488 q 834 354 835 414 q 853 242 833 294 l 589 233 q 585 241 585 236 q 583 249 586 246 q 583 263 586 256 q 582 278 581 271 q 574 458 571 365 l 581 679 q 582 737 583 707 q 588 794 581 767 q 588 801 585 797 q 588 807 590 804 q 591 822 593 814 q 592 838 589 831 l 589 840 q 522 844 556 847 q 456 836 488 842 q 433 909 435 867 q 443 986 432 951 q 509 1001 475 997 q 579 1000 543 1006 q 586 1021 590 1007 q 582 1043 582 1035 q 579 1104 585 1074 q 576 1167 574 1135 q 602 1164 588 1161 q 628 1174 617 1167 q 637 1189 635 1181 q 642 1207 639 1197 q 658 1183 649 1194 q 682 1169 668 1172 q 713 1177 697 1172 q 735 1199 728 1182 q 745 1229 742 1213 q 743 1263 749 1246 q 727 1281 736 1274 q 706 1292 718 1289 q 698 1292 701 1294 q 690 1292 694 1289 q 661 1273 669 1289 q 646 1242 653 1257 q 635 1258 643 1251 q 625 1276 628 1265 q 661 1317 642 1301 q 704 1347 681 1332 q 741 1360 724 1353 q 778 1372 758 1367 q 888 1378 831 1386 q 990 1347 944 1371 m 1104 104 q 1098 92 1101 97 q 1089 82 1094 88 q 981 82 1035 72 q 878 107 926 92 q 819 124 846 111 q 760 143 792 138 q 747 155 753 147 q 749 169 742 163 q 756 175 751 172 q 760 182 760 178 q 769 181 765 185 q 778 175 774 178 q 828 167 801 171 q 878 175 854 163 l 885 175 q 915 204 901 188 q 925 242 929 221 l 926 244 q 994 222 961 235 q 1056 188 1028 210 q 1074 170 1064 179 q 1093 152 1085 161 q 1105 131 1101 143 q 1104 104 1108 119 m 557 668 q 533 638 549 651 q 501 614 517 625 q 449 610 476 610 q 400 625 421 610 q 381 637 389 628 q 361 651 372 646 q 327 635 346 639 q 289 626 308 631 q 252 615 269 622 q 221 593 235 608 l 210 593 q 220 622 206 613 q 244 643 235 632 q 235 644 240 647 q 226 642 231 642 q 209 626 217 635 q 190 611 201 617 q 189 622 188 617 q 194 629 190 626 q 203 635 199 632 q 211 642 208 638 q 236 656 225 647 q 253 679 247 664 q 252 688 254 685 q 250 697 250 692 q 258 710 256 701 q 241 708 247 718 q 228 693 235 697 q 208 684 217 690 q 189 676 200 678 q 233 714 208 701 q 286 733 258 726 q 288 722 288 732 q 288 712 285 717 q 294 701 292 707 q 305 695 300 699 q 317 693 310 692 l 319 697 q 305 710 315 704 q 297 726 294 715 q 304 731 300 731 q 307 738 308 732 q 296 745 303 742 q 283 751 289 749 q 273 759 276 754 q 271 772 269 764 l 288 789 q 305 772 294 778 q 326 760 315 765 q 348 750 338 756 q 367 735 358 744 q 368 713 372 724 q 433 706 401 710 q 490 681 465 701 q 491 685 493 683 q 490 690 489 688 q 502 715 488 707 q 525 731 517 722 q 550 729 539 735 q 561 700 558 717 q 557 668 564 683 m 911 239 q 901 210 908 224 q 879 189 893 197 q 827 178 856 182 q 776 190 799 175 q 781 206 774 200 q 794 214 788 211 q 803 208 801 214 q 811 200 804 203 q 858 215 839 200 q 897 247 878 229 q 906 246 903 250 q 911 239 908 242 m 1129 76 q 1115 55 1118 68 q 1096 42 1113 42 q 969 39 1031 24 q 856 83 908 54 l 844 69 l 846 68 q 832 65 839 63 q 818 68 825 68 l 768 89 q 759 110 761 99 q 756 132 757 121 q 917 82 833 99 q 1092 68 1000 65 l 1124 99 q 1129 76 1133 89 m 231 672 q 203 649 218 657 q 171 635 189 642 q 194 663 181 651 q 225 681 208 674 q 231 677 228 678 q 231 672 233 676 m 625 199 q 565 190 597 188 q 506 203 532 192 q 500 231 494 214 q 523 249 511 240 q 549 261 535 258 q 553 261 550 258 q 557 261 556 264 q 560 262 558 264 q 564 261 561 260 q 565 253 567 257 q 563 244 563 249 q 551 235 556 242 q 539 225 546 229 q 544 215 540 218 q 554 208 549 213 q 592 210 574 206 q 625 203 610 215 l 625 199 m 681 135 q 519 108 601 118 q 350 104 438 99 q 344 114 347 110 q 344 125 340 118 l 346 126 l 344 129 q 379 163 358 150 q 419 192 400 176 l 481 221 q 488 203 482 210 q 503 192 494 197 q 519 183 511 188 q 535 172 528 178 q 608 173 574 163 q 674 194 642 183 q 685 166 681 182 q 681 135 689 150 m 690 121 q 682 97 683 110 q 669 75 681 83 q 628 72 647 78 q 589 67 608 65 q 585 76 585 71 q 576 83 585 83 q 568 82 571 86 q 563 75 565 78 q 515 64 539 68 q 467 53 490 60 l 461 56 q 413 51 439 50 q 365 51 388 53 q 339 60 353 56 q 319 78 325 64 q 321 94 324 85 q 328 106 318 103 q 375 90 349 90 q 431 88 403 90 q 561 101 497 92 q 689 122 625 110 l 690 121 m 779 1132 q 769 1144 772 1136 q 756 1147 765 1153 q 744 1126 756 1133 q 724 1111 732 1119 l 719 1111 q 706 1105 713 1106 q 692 1099 699 1104 q 647 1092 671 1094 q 603 1096 624 1089 q 601 1090 600 1093 q 599 1083 601 1086 q 611 1081 604 1081 q 624 1079 618 1082 q 639 1058 638 1071 q 646 1035 640 1046 q 659 1021 649 1022 q 681 1019 669 1019 q 708 1038 699 1022 q 728 1067 718 1053 q 745 1106 735 1086 q 779 1132 756 1125 m 653 1111 q 635 1124 646 1121 q 622 1140 625 1126 q 633 1149 626 1147 q 647 1156 640 1151 q 626 1153 636 1158 q 606 1143 615 1147 q 605 1134 606 1139 q 607 1126 604 1129 q 653 1111 626 1107 m 714 1000 q 685 994 700 993 q 654 993 669 996 q 690 975 669 974 q 714 1000 704 983 m 376 688 l 376 689 q 360 692 369 696 q 343 692 351 688 q 325 681 333 686 q 310 665 317 675 q 340 685 322 681 q 376 688 358 690 m 729 1103 q 722 1085 729 1092 q 707 1071 715 1078 q 689 1067 700 1067 q 672 1060 678 1068 q 694 1058 683 1057 q 714 1063 704 1060 q 703 1049 711 1054 q 688 1036 694 1043 q 676 1031 682 1035 q 665 1033 671 1026 q 653 1054 654 1042 q 650 1079 653 1067 q 676 1085 663 1083 q 701 1093 690 1086 q 715 1098 708 1094 q 729 1103 722 1101 z "},"G":{"ha":1599,"x_min":-1,"x_max":1407,"o":"m 1407 621 q 1404 628 1404 624 q 1400 635 1404 632 q 1367 640 1382 633 q 1340 656 1353 646 q 1317 679 1328 667 q 1294 703 1306 692 q 1263 717 1275 704 q 1236 740 1251 731 q 1216 766 1225 753 q 1198 792 1207 779 q 1178 816 1189 804 q 1154 838 1168 828 q 1115 849 1136 849 q 1075 844 1094 850 q 1073 987 1075 915 q 1074 1131 1071 1058 l 1083 1336 q 1041 1365 1063 1351 q 994 1382 1019 1378 q 883 1388 940 1386 q 774 1383 826 1390 q 774 1363 772 1374 q 768 1344 775 1351 q 726 1359 746 1350 q 685 1371 707 1368 q 622 1385 656 1382 q 553 1386 588 1389 q 488 1374 519 1383 q 429 1351 456 1365 q 390 1333 408 1344 q 353 1310 371 1322 q 266 1210 296 1269 q 222 1088 236 1150 q 217 1052 218 1068 q 214 1017 217 1036 q 215 991 211 1003 q 213 968 218 979 q 185 989 194 974 q 163 1015 176 1004 q 147 1013 154 1019 q 131 1013 139 1006 q 116 1026 129 1028 q 93 1028 103 1025 q 85 1017 90 1019 q 72 1017 79 1015 q 58 1019 65 1018 q 44 1017 50 1019 q 40 1013 40 1015 q 36 1007 39 1010 q 42 967 36 986 q 43 926 49 949 q 31 918 39 917 q 15 917 22 919 q 14 909 13 914 q 13 901 15 904 q 15 888 15 894 q 22 878 15 882 q 55 860 40 872 q 82 835 69 849 q 108 808 94 821 q 138 786 121 794 q 128 741 132 765 q 124 693 124 717 q 128 647 124 669 q 147 606 133 624 q 155 597 151 603 q 163 588 158 592 q 172 582 167 583 q 183 583 176 581 q 255 603 221 589 q 321 636 289 617 q 372 658 346 647 q 425 674 397 669 q 499 647 458 657 q 583 636 540 638 q 666 643 625 635 q 740 671 707 651 q 751 678 746 674 q 763 676 757 683 q 766 626 765 653 q 760 575 767 599 q 751 533 760 551 q 726 499 742 515 q 701 465 718 479 q 671 435 685 450 q 647 422 658 429 q 621 411 635 414 q 574 417 593 404 q 539 449 556 431 q 505 485 522 468 q 461 500 488 501 q 372 495 414 511 q 290 461 331 479 q 258 440 274 450 q 222 422 242 429 q 247 370 233 396 q 276 322 260 344 q 285 313 283 319 q 294 300 288 306 q 286 276 297 286 q 267 256 275 265 q 181 244 219 261 q 106 207 142 226 q 78 178 86 197 q 58 142 69 158 q 39 124 53 125 q 15 113 25 122 q 3 98 8 106 q 0 79 -1 90 q 13 65 13 76 q 22 47 13 54 q 32 44 28 43 q 41 47 36 44 q 50 50 46 49 q 60 49 54 51 q 79 33 72 42 q 99 17 86 24 q 142 13 119 18 q 186 14 164 7 q 246 17 215 11 q 306 26 276 22 q 399 41 354 32 q 493 51 444 50 q 519 49 506 49 q 546 50 533 50 q 571 45 560 50 q 589 26 582 40 l 856 8 l 857 10 q 874 8 867 7 q 890 6 881 8 l 922 6 q 940 4 929 3 q 958 3 950 6 q 1005 4 981 7 q 1053 1 1029 1 q 1098 4 1076 0 q 1136 26 1119 8 q 1149 31 1142 31 q 1161 36 1156 31 q 1186 29 1175 42 q 1197 46 1197 36 q 1208 58 1197 56 l 1219 49 q 1233 56 1231 46 q 1238 72 1235 65 q 1213 92 1225 83 q 1185 108 1200 101 q 1182 100 1182 104 q 1176 93 1182 96 q 1158 94 1168 96 q 1144 104 1149 93 q 1144 131 1144 117 q 1138 157 1143 146 l 1132 161 q 1118 188 1129 176 q 1096 206 1107 199 q 1010 242 1054 228 q 918 261 967 256 l 913 265 q 949 309 928 290 q 985 353 969 328 q 1009 390 996 374 q 1026 429 1022 406 q 1054 499 1044 465 q 1074 613 1069 553 q 1075 733 1079 672 q 1089 742 1081 740 q 1104 747 1097 744 q 1127 701 1115 724 q 1146 654 1139 679 q 1134 622 1139 639 q 1132 586 1129 606 q 1123 574 1129 578 q 1110 568 1117 571 q 1098 563 1104 565 q 1089 551 1092 560 q 1089 531 1083 540 q 1138 506 1107 506 q 1165 534 1156 517 q 1186 567 1175 551 q 1244 528 1218 556 q 1294 476 1271 501 q 1310 482 1303 476 q 1323 494 1317 488 q 1337 505 1329 501 q 1356 504 1344 508 q 1365 515 1367 507 q 1367 529 1363 522 q 1374 539 1368 536 q 1386 543 1379 542 q 1394 553 1394 546 q 1397 567 1394 560 q 1397 594 1390 582 q 1407 621 1404 607 m 1394 615 q 1389 605 1396 607 q 1376 600 1382 603 q 1353 608 1363 597 q 1338 629 1344 619 l 1319 610 q 1352 591 1335 599 q 1383 568 1369 583 q 1388 564 1385 565 q 1389 560 1390 563 q 1354 554 1372 547 q 1329 574 1339 560 q 1306 597 1319 589 q 1294 589 1296 594 l 1294 579 q 1323 558 1310 569 q 1351 536 1336 546 q 1357 528 1354 532 q 1360 519 1360 525 q 1331 514 1346 507 q 1322 522 1324 515 q 1317 532 1321 528 q 1301 553 1310 543 q 1285 574 1293 564 q 1274 568 1278 574 q 1267 560 1271 563 q 1283 548 1274 554 q 1297 532 1292 542 q 1303 516 1300 524 q 1308 499 1307 508 l 1300 490 q 1246 544 1272 517 q 1183 579 1219 572 q 1171 565 1175 574 q 1163 548 1167 557 q 1155 531 1160 539 q 1139 521 1150 524 q 1118 522 1128 519 q 1103 535 1108 524 q 1118 560 1107 549 q 1139 582 1129 571 q 1153 606 1149 593 q 1151 636 1158 619 q 1153 672 1160 656 q 1138 703 1147 688 q 1121 734 1129 718 q 1117 769 1113 750 q 1108 775 1117 775 q 1101 764 1106 769 q 1090 756 1097 758 q 1060 752 1076 751 q 1031 747 1044 753 q 1019 779 1025 763 q 1022 811 1013 796 q 1076 833 1043 833 q 1138 831 1110 833 l 1160 815 q 1206 765 1185 790 q 1244 708 1228 739 q 1294 686 1274 706 q 1328 643 1314 667 q 1362 630 1344 636 q 1394 615 1379 624 m 1018 1360 l 1006 1210 l 999 986 l 996 721 q 993 665 994 693 q 990 610 992 636 l 989 608 q 988 597 992 603 q 989 583 985 590 q 985 577 988 581 q 988 571 983 574 q 984 556 986 564 q 985 540 982 549 q 835 296 956 396 q 820 287 826 293 q 806 279 814 281 l 739 233 q 703 215 721 224 q 667 201 686 207 q 528 196 599 190 q 399 229 457 201 q 360 250 375 233 q 325 281 344 267 q 278 340 301 311 q 244 406 254 369 q 241 413 242 408 q 239 419 240 417 q 302 455 271 435 q 369 482 333 475 l 419 492 q 447 456 435 475 q 482 429 460 438 q 552 401 513 406 q 632 403 592 396 q 685 438 660 418 q 726 485 710 457 q 778 678 793 564 q 772 734 774 706 q 765 790 771 763 q 734 758 750 774 q 699 732 718 743 q 660 707 681 717 q 618 688 639 697 q 538 669 582 672 q 453 675 493 667 q 409 688 429 678 q 369 710 389 697 q 301 772 331 736 q 253 849 271 808 q 231 922 238 882 q 226 1001 225 961 q 235 1081 228 1042 q 253 1156 242 1121 q 282 1217 263 1188 q 326 1272 301 1247 q 381 1317 351 1297 q 443 1349 411 1338 q 508 1371 472 1363 q 579 1380 543 1379 q 650 1372 615 1381 q 713 1344 685 1364 q 744 1317 728 1329 q 775 1289 760 1304 q 786 1311 786 1297 q 785 1338 786 1325 q 787 1363 785 1351 q 806 1379 789 1375 l 975 1372 q 999 1367 986 1367 q 1018 1360 1011 1368 m 904 256 q 890 231 904 242 q 831 224 863 222 q 768 226 799 225 q 817 254 790 246 q 871 272 843 263 l 890 276 q 901 267 896 272 q 904 256 906 263 m 1128 135 q 1129 105 1135 119 q 1119 75 1124 90 q 1113 73 1117 72 q 1107 69 1108 74 q 1101 69 1104 67 q 1096 69 1099 72 l 1097 67 l 1068 67 l 1069 69 q 1065 70 1067 72 q 1060 67 1063 68 q 1058 71 1061 68 q 1056 69 1057 68 q 1051 69 1054 69 l 1050 71 q 1046 69 1047 68 q 1042 69 1044 69 q 1035 71 1039 75 q 1029 74 1031 67 q 1013 74 1021 76 q 999 74 1006 72 q 965 89 982 78 l 964 88 q 918 103 940 94 q 872 117 896 113 l 868 119 q 809 130 840 128 q 747 132 778 132 q 726 182 728 153 q 735 200 731 192 q 750 213 739 208 q 778 215 765 218 q 804 206 792 211 q 830 199 817 201 q 860 203 843 196 q 894 216 878 208 q 926 231 910 224 q 933 235 929 235 q 940 238 936 236 q 953 236 947 235 q 965 231 958 238 q 981 229 974 233 q 994 228 988 225 q 1031 214 1013 221 q 1065 194 1049 207 q 1078 185 1074 192 q 1092 178 1083 179 l 1092 174 q 1113 158 1101 165 q 1128 135 1125 150 m 310 743 l 308 740 q 276 722 292 733 q 242 706 261 710 q 236 748 242 728 q 224 788 231 768 q 223 799 224 793 q 225 811 222 806 q 226 822 222 817 q 232 832 231 826 q 227 852 233 843 q 213 870 221 861 q 202 888 206 879 q 206 908 199 897 q 212 911 210 907 q 217 915 214 915 q 285 771 226 833 q 297 758 292 765 q 310 743 303 750 m 344 656 q 280 624 311 642 q 213 600 249 607 q 190 594 203 593 q 167 597 178 596 q 146 636 147 617 q 133 682 135 657 q 132 735 126 708 q 146 785 138 761 q 133 800 139 792 q 119 811 128 808 q 70 865 92 835 q 53 933 49 894 l 53 1007 q 60 1008 56 1010 q 68 1008 64 1007 q 83 991 81 1001 q 85 968 86 981 q 81 943 83 956 q 82 919 78 931 q 89 922 89 917 q 92 931 89 928 l 104 1017 q 113 1015 108 1015 q 119 1011 117 1015 q 123 966 126 990 q 114 919 119 942 l 117 917 q 131 936 126 925 q 139 959 136 947 q 145 983 142 971 q 158 1004 149 994 q 168 975 168 993 q 164 942 168 957 q 160 931 164 935 q 152 922 156 926 q 149 913 149 918 q 156 903 149 908 q 174 924 171 910 q 182 953 176 939 l 193 963 q 200 947 196 956 q 201 931 204 939 q 202 923 204 928 q 199 915 200 918 q 185 900 192 908 q 171 885 178 892 q 201 860 188 876 q 214 825 214 844 q 210 772 204 799 q 215 718 215 746 q 222 694 221 707 q 229 669 222 681 q 238 671 236 668 q 242 678 240 674 q 244 687 243 682 q 251 693 246 692 q 283 710 269 697 q 317 718 297 722 q 337 690 332 707 q 344 656 342 674 m 1139 60 q 1128 35 1136 47 q 1107 17 1121 24 q 984 19 1044 14 q 876 60 924 24 q 858 72 865 63 q 843 88 851 81 q 835 70 839 79 q 833 53 832 61 q 788 62 813 63 q 743 72 763 61 q 732 87 738 79 q 733 104 726 94 q 744 113 736 114 q 757 114 751 111 q 826 108 793 115 q 890 93 858 100 q 997 58 943 74 q 1113 47 1051 42 q 1126 55 1119 50 q 1139 60 1132 60 m 43 878 q 25 883 35 876 q 19 892 22 888 q 19 904 15 897 q 35 911 24 908 q 43 878 46 896 m 717 122 q 610 133 664 128 q 500 135 557 138 q 486 168 490 150 q 599 164 542 167 q 706 179 656 161 q 706 164 703 171 q 712 151 708 157 q 717 138 715 144 q 717 122 719 131 m 381 214 q 340 208 363 208 q 303 219 318 208 q 291 239 300 231 q 283 260 282 247 l 303 276 q 342 244 322 263 q 381 214 361 226 m 463 186 q 425 144 453 158 q 371 119 397 131 q 328 106 350 111 q 282 97 306 100 l 278 94 q 222 88 247 88 l 217 83 q 158 77 188 81 q 97 78 128 74 q 78 92 82 79 q 69 117 74 106 q 71 124 72 119 q 75 129 69 128 q 77 145 72 138 q 85 160 82 153 l 122 196 l 125 196 q 190 233 153 222 q 267 238 226 243 l 279 218 q 293 202 288 210 q 311 192 299 194 q 322 190 317 189 q 332 190 326 192 q 333 188 332 188 q 336 186 335 188 q 347 189 339 190 q 360 190 354 188 l 363 188 q 377 192 368 190 q 392 189 386 194 q 393 194 393 190 q 429 194 411 193 q 463 186 447 196 m 471 89 q 431 67 453 71 q 385 60 408 63 q 380 76 381 67 q 368 89 379 86 q 310 55 342 64 q 247 35 279 46 q 176 26 215 24 q 100 28 136 28 q 78 63 85 39 q 199 60 139 56 q 314 83 260 64 q 389 109 353 93 q 461 142 425 125 q 466 149 464 144 q 471 156 468 153 q 476 122 475 140 q 471 89 478 104 m 671 1114 q 670 1160 674 1138 q 646 1196 667 1183 q 601 1185 621 1201 q 567 1154 582 1169 q 560 1175 563 1165 q 551 1196 557 1185 q 525 1207 540 1208 q 496 1201 510 1206 q 453 1071 440 1147 q 466 1045 456 1056 q 488 1026 476 1035 q 523 1032 508 1018 q 551 1057 538 1046 l 556 1054 q 563 1041 557 1047 q 572 1028 568 1035 q 595 1020 583 1022 q 618 1022 607 1018 q 652 1065 642 1042 q 671 1114 663 1089 m 561 963 q 556 961 557 963 q 528 959 543 960 q 504 971 513 958 q 509 984 504 979 q 519 993 514 989 q 531 1001 525 997 q 540 1010 536 1004 q 511 1003 524 1013 q 493 979 499 993 q 503 953 493 965 q 524 944 511 944 q 547 943 536 944 q 554 952 553 946 q 561 963 556 958 m 685 929 q 674 939 679 935 q 663 949 668 943 q 617 934 640 942 q 571 922 594 926 q 523 916 547 917 q 474 922 499 915 q 462 933 467 925 q 447 940 457 942 q 438 935 442 938 q 433 925 433 932 q 451 922 444 925 q 468 915 458 918 q 478 906 472 910 q 486 896 485 903 q 501 874 494 886 q 517 851 508 861 q 537 837 525 842 q 565 838 549 832 q 597 861 588 840 q 618 899 607 882 q 642 926 626 915 q 658 940 650 935 q 667 935 663 938 q 671 926 671 932 q 678 927 674 928 q 685 929 682 926 m 589 810 q 561 808 576 807 q 535 806 546 810 l 540 799 q 565 793 553 792 q 581 797 572 796 q 589 810 589 799 m 657 1133 q 658 1124 657 1131 q 656 1113 658 1118 q 642 1122 649 1118 q 628 1128 636 1126 q 611 1122 619 1126 q 600 1110 603 1117 q 592 1076 590 1094 q 601 1043 594 1058 q 606 1039 603 1040 q 607 1035 608 1038 q 594 1032 600 1029 q 581 1038 588 1035 q 567 1078 563 1053 q 574 1124 571 1104 q 597 1162 581 1143 q 635 1188 614 1181 q 646 1183 640 1185 q 654 1175 651 1182 q 658 1155 657 1165 q 657 1133 660 1144 m 550 1119 q 536 1133 540 1124 q 518 1136 532 1142 q 492 1103 499 1124 q 489 1058 486 1082 q 494 1049 494 1056 q 501 1043 494 1043 q 490 1041 496 1044 q 481 1046 483 1038 q 464 1076 465 1057 q 461 1111 463 1094 q 478 1161 465 1136 q 519 1196 492 1186 q 530 1195 526 1199 q 539 1190 533 1192 q 553 1157 551 1176 q 550 1119 556 1138 m 589 908 q 575 887 585 897 q 551 875 565 876 q 533 885 540 876 q 518 903 525 893 q 536 903 528 906 q 554 901 544 901 q 572 905 564 901 q 589 908 579 908 z "},"H":{"ha":1697,"x_min":-1,"x_max":1531,"o":"m 794 1071 q 794 1079 793 1075 q 792 1086 794 1083 l 751 1093 q 738 1106 744 1100 q 732 1124 732 1113 q 749 1138 738 1139 q 772 1143 761 1138 q 726 1157 751 1164 q 703 1134 713 1147 q 696 1106 694 1121 q 710 1075 696 1089 q 751 1065 729 1064 q 794 1071 774 1065 m 1531 1106 q 1508 1161 1525 1135 q 1467 1210 1490 1188 q 1415 1250 1443 1232 q 1363 1281 1388 1268 q 1352 1309 1358 1296 q 1339 1336 1346 1322 q 1292 1370 1319 1356 q 1236 1372 1265 1385 q 1213 1358 1226 1356 q 1183 1360 1199 1360 l 951 1354 q 935 1358 940 1351 q 926 1375 929 1365 q 909 1385 917 1378 q 889 1388 901 1392 q 860 1372 874 1385 q 840 1347 847 1360 q 818 1272 822 1314 q 833 1194 814 1229 q 855 1174 840 1181 q 885 1168 869 1167 q 897 1172 892 1168 q 907 1174 901 1176 q 899 1089 899 1133 q 906 1006 899 1046 l 901 1001 l 876 1006 q 765 1015 824 1013 q 657 1001 707 1018 l 653 1006 q 653 1086 650 1046 q 654 1168 657 1126 l 658 1171 q 674 1169 665 1171 q 689 1169 682 1167 q 699 1174 693 1172 q 707 1182 704 1176 q 734 1253 731 1213 q 729 1331 738 1293 q 723 1344 728 1338 q 717 1360 718 1351 q 700 1378 707 1367 q 679 1386 693 1389 q 651 1374 664 1386 q 632 1351 639 1363 q 610 1351 619 1357 q 325 1351 468 1360 l 324 1354 q 320 1353 321 1356 q 317 1351 319 1351 q 294 1294 299 1325 q 285 1231 289 1263 q 272 1145 274 1190 q 263 1058 269 1100 q 259 1033 261 1047 q 254 1007 257 1019 q 240 999 247 1003 q 225 993 233 994 q 172 963 200 978 q 118 932 144 949 q 69 895 92 915 q 31 847 46 875 q 45 782 32 811 q 74 722 58 753 q 103 678 88 701 q 139 634 119 654 q 183 603 158 614 q 236 596 207 592 q 243 601 239 599 q 250 597 247 603 l 261 522 q 262 501 260 513 q 267 481 264 490 l 265 479 l 286 313 l 296 304 q 324 297 310 301 q 346 279 338 292 q 329 265 336 275 q 311 263 322 254 q 299 261 303 264 q 294 253 296 258 q 290 241 292 247 q 283 232 289 235 q 271 231 276 229 q 260 235 265 233 q 256 226 258 229 q 256 217 254 222 q 244 197 249 208 q 225 186 239 186 q 160 172 189 186 q 115 124 131 157 q 90 113 101 122 q 72 92 78 104 l 51 100 q 42 91 47 93 q 28 89 36 89 q 13 90 21 89 q 0 88 6 90 q 3 76 -1 79 q 15 71 8 72 q 26 67 21 69 q 33 60 32 65 l 68 67 q 83 62 78 69 q 97 51 89 54 q 111 31 103 42 q 131 17 119 21 q 244 10 190 3 q 349 31 297 17 q 451 62 400 46 q 558 82 503 78 l 561 79 q 560 74 560 78 q 565 63 560 65 q 576 60 569 60 q 590 64 583 61 q 603 67 597 67 q 688 68 644 68 q 771 64 731 68 q 797 60 783 63 q 819 51 810 58 q 814 47 817 49 q 808 43 811 46 q 810 30 813 38 q 815 18 808 22 l 881 24 l 1108 25 l 1119 38 q 1244 3 1178 15 q 1375 13 1311 -8 q 1401 24 1388 18 q 1422 43 1415 29 q 1464 58 1440 58 q 1507 68 1488 58 q 1516 83 1515 74 q 1517 100 1517 92 q 1497 114 1508 110 q 1474 119 1486 118 q 1449 119 1461 119 q 1424 119 1436 118 q 1399 140 1411 129 q 1373 158 1386 150 q 1344 166 1360 165 q 1313 157 1329 167 q 1291 175 1303 168 q 1272 194 1279 182 q 1267 209 1269 201 q 1268 224 1265 217 l 1247 224 q 1237 239 1240 231 q 1238 256 1233 247 q 1289 264 1261 267 q 1342 265 1317 261 l 1349 269 l 1354 964 q 1428 1009 1390 988 q 1506 1051 1467 1031 q 1526 1075 1521 1061 q 1531 1106 1531 1089 m 1515 1076 q 1410 1013 1461 1049 q 1301 960 1360 978 q 1283 996 1288 975 q 1288 1035 1278 1017 l 1293 1046 q 1342 1072 1318 1057 q 1393 1093 1365 1086 q 1435 1076 1408 1074 q 1441 1078 1436 1079 q 1443 1083 1446 1078 q 1392 1120 1411 1092 q 1363 1176 1374 1149 q 1331 1178 1347 1181 q 1301 1186 1314 1175 q 1304 1193 1301 1190 q 1309 1198 1307 1196 q 1311 1203 1311 1200 q 1304 1208 1311 1206 q 1285 1199 1293 1206 q 1268 1186 1276 1193 q 1251 1175 1260 1179 q 1229 1174 1242 1171 q 1253 1206 1240 1189 q 1282 1233 1265 1222 q 1275 1239 1279 1240 q 1267 1236 1271 1238 q 1238 1214 1251 1226 q 1206 1200 1225 1201 q 1237 1240 1215 1224 q 1275 1276 1258 1256 q 1274 1284 1278 1282 q 1268 1289 1271 1286 l 1260 1286 q 1226 1257 1242 1274 q 1188 1238 1210 1240 q 1199 1265 1189 1254 q 1221 1285 1208 1276 q 1245 1304 1233 1294 q 1264 1326 1257 1314 l 1254 1338 q 1225 1312 1243 1318 q 1192 1293 1207 1306 q 1193 1317 1188 1307 q 1209 1336 1199 1328 q 1231 1352 1219 1344 q 1250 1369 1243 1360 q 1322 1336 1293 1374 q 1337 1304 1328 1321 q 1358 1273 1346 1288 q 1386 1248 1371 1258 q 1419 1236 1401 1238 q 1483 1163 1461 1204 q 1515 1076 1504 1122 m 1375 1107 q 1365 1101 1369 1104 q 1356 1094 1361 1097 l 1350 1144 q 1375 1107 1369 1125 m 926 1338 q 928 1269 932 1304 q 908 1206 925 1233 q 896 1198 901 1201 q 883 1192 890 1194 q 894 1237 892 1211 q 885 1282 897 1263 q 874 1290 882 1292 q 858 1288 865 1289 l 842 1279 q 850 1330 840 1306 q 883 1374 860 1354 q 911 1365 901 1379 q 926 1338 921 1351 m 717 1275 q 710 1228 715 1250 q 689 1186 704 1206 q 673 1185 681 1182 q 658 1194 665 1188 q 666 1206 660 1201 q 675 1217 672 1210 q 683 1261 682 1236 q 671 1306 683 1286 q 665 1310 668 1308 q 660 1314 663 1311 q 645 1308 651 1313 q 633 1296 639 1303 q 640 1318 638 1306 q 645 1341 642 1331 q 656 1360 649 1351 q 675 1374 663 1369 q 699 1359 692 1369 q 710 1335 707 1349 q 715 1305 714 1321 q 717 1275 715 1289 m 1261 690 l 1254 338 q 1251 315 1258 321 q 1233 308 1244 308 q 1209 308 1222 307 q 1186 307 1196 308 q 1176 306 1182 311 q 1099 303 1138 304 q 1024 300 1060 303 q 1019 300 1021 297 q 1015 300 1018 303 q 1003 299 1008 301 q 993 299 999 296 q 988 297 992 297 l 985 299 q 960 296 974 296 q 938 292 947 296 q 933 293 935 294 l 932 292 q 922 291 928 293 q 910 290 917 289 q 899 433 901 361 q 897 579 897 504 l 900 757 q 896 765 900 763 l 858 763 l 646 758 q 635 756 642 756 q 624 756 629 757 q 616 753 619 756 q 614 742 613 750 l 590 465 q 590 456 589 458 q 589 447 592 453 q 590 378 586 411 q 594 311 593 346 l 544 313 l 328 322 l 313 319 q 277 449 286 382 q 265 586 268 515 q 285 576 276 583 q 308 571 294 568 q 324 590 313 582 q 344 606 335 597 q 360 623 354 614 q 361 647 365 632 q 376 661 372 651 q 385 679 381 671 q 381 692 385 686 q 385 704 378 699 q 393 718 390 711 q 393 732 396 725 q 375 747 386 743 q 354 757 364 750 q 308 783 331 769 q 257 792 285 796 l 269 915 l 290 1157 q 299 1235 293 1196 q 315 1311 304 1274 q 315 1321 313 1315 q 318 1332 318 1326 l 499 1349 q 557 1346 528 1346 q 614 1339 586 1346 l 615 1335 q 610 1294 614 1315 q 604 1251 606 1272 q 609 1211 603 1231 q 636 1179 615 1192 l 639 1006 q 623 998 632 1000 q 604 994 614 996 q 596 1002 603 1001 q 585 996 589 1003 q 576 984 575 992 q 572 969 578 976 q 576 957 575 963 q 583 947 576 951 q 592 951 592 944 q 594 964 592 960 q 753 988 668 985 q 915 976 838 990 q 947 968 932 974 q 976 957 961 963 l 978 993 q 953 993 965 997 q 928 996 940 989 q 921 1053 922 1024 q 921 1115 919 1083 q 926 1177 922 1147 q 946 1233 931 1207 q 950 1283 950 1257 q 947 1336 950 1311 l 1183 1342 q 1177 1327 1182 1333 q 1168 1314 1172 1321 q 1162 1300 1164 1307 q 1164 1283 1160 1293 q 1171 1278 1167 1281 q 1175 1269 1175 1275 q 1166 1252 1172 1260 q 1168 1233 1160 1244 q 1188 1225 1179 1235 q 1188 1213 1189 1218 q 1185 1201 1186 1207 q 1184 1190 1183 1194 q 1193 1181 1185 1185 q 1206 1174 1201 1181 q 1215 1160 1211 1167 q 1225 1151 1219 1154 q 1242 1156 1231 1149 l 1244 1150 l 1260 875 l 1261 690 m 1399 92 q 1366 71 1383 79 q 1332 51 1349 63 q 1245 60 1283 46 q 1167 88 1207 75 q 1094 121 1128 100 q 1021 150 1061 142 q 994 154 1010 154 q 967 156 981 154 q 944 163 954 157 q 931 182 935 168 q 960 254 931 226 q 989 243 975 250 q 1018 229 1003 236 q 1059 234 1042 221 q 1092 263 1076 247 q 1126 288 1108 279 q 1168 279 1144 296 l 1194 253 q 1185 235 1194 240 q 1168 219 1175 231 q 1154 212 1161 217 q 1144 199 1147 207 q 1158 197 1151 192 q 1171 203 1164 201 q 1194 221 1182 210 q 1221 229 1206 232 q 1205 205 1218 213 q 1182 186 1192 197 q 1174 172 1175 179 q 1185 172 1179 169 q 1199 178 1192 175 q 1224 194 1211 185 q 1251 207 1236 204 q 1264 186 1257 196 q 1282 169 1271 176 q 1274 158 1283 158 q 1263 147 1264 157 q 1269 144 1265 143 q 1279 147 1274 146 q 1288 147 1285 143 q 1297 147 1290 150 q 1303 147 1300 146 q 1310 150 1307 149 q 1316 149 1313 146 q 1322 149 1319 153 q 1350 151 1336 150 q 1375 143 1364 153 q 1387 133 1382 138 q 1397 122 1392 129 q 1397 107 1394 114 q 1399 92 1400 100 m 1407 68 q 1392 40 1406 51 q 1364 22 1379 28 q 1239 19 1301 6 q 1119 54 1176 33 q 1091 72 1104 63 q 1069 97 1078 82 q 1058 92 1063 97 q 1051 81 1054 86 q 1042 74 1047 76 q 1031 76 1038 72 q 987 89 1010 86 q 943 99 964 92 q 942 110 943 103 q 940 125 940 118 q 942 137 939 132 q 953 142 944 142 q 1034 125 997 140 q 1107 94 1071 110 q 1142 78 1125 88 q 1177 60 1160 68 q 1214 47 1194 51 q 1254 42 1233 42 q 1335 38 1293 35 q 1407 68 1376 40 m 938 263 q 931 242 936 251 q 919 224 925 233 q 912 206 914 215 q 914 185 910 196 l 907 182 l 611 200 q 604 226 608 214 q 594 250 600 239 q 637 268 613 267 q 685 269 661 269 l 688 269 q 688 327 690 299 q 688 385 685 356 l 696 619 l 700 679 q 744 687 721 686 q 790 686 767 688 q 835 685 813 685 q 881 690 858 685 l 883 317 q 892 291 889 304 q 906 267 894 278 q 915 267 910 265 q 924 271 919 269 q 933 272 929 272 q 938 263 936 271 m 238 851 q 241 804 244 828 q 222 763 238 781 q 203 790 211 775 q 185 821 196 806 q 210 838 197 831 q 238 851 222 846 m 367 721 q 328 727 344 718 q 296 747 311 736 q 290 739 293 743 q 290 729 288 735 q 309 717 299 721 q 331 708 319 713 q 351 697 342 704 q 365 676 361 690 q 333 682 351 675 q 304 694 318 688 q 274 701 290 701 q 265 694 271 700 l 268 685 q 315 666 290 676 q 343 629 340 656 q 324 627 333 625 q 306 634 315 629 q 288 644 297 639 q 269 651 279 649 q 250 651 261 657 q 278 628 261 636 q 310 611 294 619 q 312 604 313 608 q 311 596 311 600 q 271 605 288 593 q 236 628 254 617 q 224 628 228 631 q 219 621 221 625 q 214 613 217 617 q 206 610 211 608 q 161 639 178 614 q 128 683 144 664 q 81 758 103 719 q 42 838 58 797 q 42 840 44 839 q 39 844 40 842 q 115 918 74 886 q 206 965 156 950 q 213 967 208 968 q 222 969 218 967 q 235 931 226 950 q 247 892 243 911 q 213 865 232 876 q 174 840 193 854 q 158 847 165 842 q 144 858 151 853 q 131 865 138 864 q 117 857 124 865 q 126 849 119 850 q 138 846 132 849 q 178 794 168 825 q 204 733 189 763 q 197 723 200 728 q 190 711 193 718 q 210 711 199 704 q 226 733 218 719 q 244 757 235 746 q 265 773 253 768 q 293 771 276 778 q 331 750 313 760 q 367 726 350 740 l 367 721 m 572 178 q 570 168 574 171 q 561 165 567 165 q 550 165 556 165 q 540 163 544 165 q 474 140 506 156 q 412 108 443 124 q 348 79 381 92 q 278 67 315 67 q 208 48 249 49 q 140 67 168 47 q 131 106 132 82 q 142 144 131 129 q 189 169 161 165 q 242 167 217 174 q 254 161 249 167 q 265 167 260 156 q 256 188 268 179 q 267 201 261 194 q 269 218 272 208 q 290 215 282 221 q 307 203 299 210 q 324 191 315 196 q 343 192 332 186 l 343 199 q 332 208 339 203 q 319 217 325 213 q 311 228 314 222 q 311 243 308 235 q 327 236 319 242 q 342 225 335 231 q 358 216 350 219 q 375 215 365 213 q 372 231 376 225 q 361 240 368 236 q 347 248 354 244 q 335 257 340 251 q 365 280 349 272 q 399 292 381 288 q 422 272 411 283 q 444 251 432 261 q 469 238 456 242 q 499 240 482 233 q 515 247 508 240 q 526 260 521 253 q 537 272 531 267 q 553 279 543 278 q 558 278 553 278 l 560 279 q 560 272 564 275 q 560 265 557 269 q 570 244 564 254 q 581 222 576 233 q 584 199 585 210 q 572 178 583 188 m 597 132 q 579 104 597 113 q 535 96 558 97 q 493 86 513 94 q 491 97 490 90 q 486 106 492 103 q 469 99 476 107 q 456 86 463 92 q 386 57 421 71 q 313 36 351 43 q 306 35 310 38 q 297 32 301 33 q 217 24 258 29 q 140 31 176 19 q 122 42 131 35 q 111 61 113 50 l 115 64 q 181 34 146 39 q 251 35 215 29 q 322 56 288 42 q 388 81 357 69 q 467 112 428 96 q 546 142 506 128 l 594 150 q 596 142 597 144 q 597 132 594 139 m 839 939 q 772 935 804 940 q 704 933 740 931 l 707 925 q 746 897 722 903 q 796 896 769 890 q 824 911 811 899 q 839 939 836 924 z "},"I":{"ha":1410,"x_min":185,"x_max":1204,"o":"m 1204 542 q 1191 566 1204 558 q 1169 585 1178 574 q 1180 625 1178 604 q 1182 669 1182 646 q 1138 698 1163 689 q 1086 713 1114 707 q 1008 808 1046 761 q 935 907 971 856 q 942 1008 936 958 q 954 1108 947 1058 q 958 1127 957 1117 q 958 1147 958 1138 q 960 1167 958 1157 q 969 1183 963 1176 l 968 1183 q 963 1201 956 1192 q 971 1219 969 1210 q 962 1224 963 1221 q 964 1230 961 1226 q 969 1238 967 1233 q 969 1247 972 1243 q 919 1315 958 1290 q 815 1336 869 1329 q 801 1338 808 1335 q 788 1338 794 1340 q 785 1340 786 1340 q 781 1340 783 1339 q 770 1355 769 1344 q 768 1374 771 1365 q 744 1384 760 1385 q 715 1388 728 1383 q 697 1383 706 1389 q 690 1377 694 1376 q 682 1381 686 1378 q 672 1388 678 1385 q 661 1388 667 1390 q 654 1385 658 1386 q 649 1379 650 1385 q 658 1360 651 1368 q 667 1340 664 1351 q 650 1333 660 1333 q 631 1329 640 1332 q 603 1328 618 1326 q 578 1322 589 1329 q 569 1281 575 1300 q 560 1239 563 1261 l 557 1235 q 544 1243 550 1238 q 531 1247 539 1249 q 525 1234 521 1242 q 529 1219 529 1226 q 507 1207 518 1211 q 511 1198 506 1201 q 519 1190 517 1194 q 517 1171 522 1179 q 506 1156 513 1163 q 526 1144 515 1149 q 547 1131 538 1139 l 533 1004 q 533 991 536 997 q 533 979 531 985 q 526 942 526 961 q 524 903 526 922 q 453 847 488 878 q 390 778 418 815 q 360 725 372 753 q 349 665 349 697 q 382 634 363 644 q 424 620 401 624 q 471 618 447 617 q 517 622 494 619 l 521 619 q 524 532 521 575 q 529 446 528 489 q 533 403 529 424 l 531 401 q 539 330 535 365 q 547 258 543 294 l 526 238 q 494 258 506 240 q 472 248 483 254 q 450 238 461 242 q 444 247 444 242 q 440 258 444 253 q 434 256 433 261 q 432 247 435 250 q 408 247 419 244 q 386 254 397 250 q 381 283 383 269 q 371 308 378 297 q 355 326 368 324 q 329 332 342 329 q 299 329 315 328 q 268 332 283 331 q 240 330 253 333 q 217 311 226 326 q 215 204 201 257 q 275 117 229 151 q 297 106 283 107 q 323 105 310 104 q 349 104 336 106 q 369 92 361 103 q 326 72 350 78 q 281 58 303 67 q 244 44 263 49 q 213 22 225 39 q 276 19 243 17 q 340 15 310 21 q 378 17 358 19 q 416 12 397 14 q 452 12 435 10 q 485 28 469 14 q 610 40 546 38 q 738 35 675 42 q 753 31 746 35 q 768 31 760 26 q 786 31 778 35 q 801 19 794 26 l 967 15 q 972 11 969 15 q 978 10 974 7 q 1051 1 1013 -6 q 1125 10 1089 8 q 1147 14 1136 17 q 1169 17 1158 11 q 1182 19 1181 14 q 1183 31 1183 24 q 1183 44 1182 38 q 1194 51 1185 51 q 1197 69 1199 61 q 1193 88 1194 78 q 1184 101 1190 96 q 1172 113 1178 107 q 1161 126 1165 119 q 1157 143 1157 132 q 1119 169 1146 168 q 1068 168 1092 171 q 1035 156 1049 167 q 1003 147 1022 146 q 997 156 997 151 q 999 165 997 160 q 1001 174 1000 169 q 1000 182 1003 178 q 994 185 997 183 q 988 181 990 188 q 974 177 981 181 q 961 174 968 174 q 958 176 958 175 q 956 181 958 179 q 964 208 958 196 q 969 236 969 221 q 959 247 967 246 q 943 249 951 249 q 927 251 935 249 q 917 265 919 254 q 903 519 903 389 q 924 772 904 650 q 960 732 943 753 q 996 692 976 711 q 980 651 988 671 q 960 613 972 631 q 946 605 953 608 q 932 599 939 601 l 935 585 q 954 571 942 572 q 995 586 978 574 q 1035 601 1013 599 q 1039 585 1040 594 q 1039 568 1038 576 q 1042 558 1038 561 q 1049 549 1047 556 q 1093 553 1072 539 q 1140 524 1114 533 q 1194 525 1167 515 q 1201 532 1201 528 q 1204 542 1201 538 m 194 781 l 185 789 l 185 778 l 188 779 q 190 776 189 776 q 192 772 192 775 l 190 779 q 194 781 193 782 m 1192 539 q 1173 528 1182 533 q 1151 528 1164 524 q 1120 547 1135 535 q 1092 572 1106 558 q 1064 599 1078 586 q 1033 619 1050 611 q 1023 624 1029 621 q 1014 619 1017 626 q 1010 608 1015 613 q 1003 599 1006 603 q 979 590 992 592 q 956 583 967 589 q 950 590 954 588 q 946 599 946 593 q 966 604 958 599 q 978 618 974 610 q 987 637 983 626 q 993 656 990 647 q 997 664 993 661 q 1006 669 1001 667 q 1013 676 1010 672 q 1011 686 1015 679 q 1007 701 1013 692 q 998 711 1004 707 q 992 722 992 715 q 956 762 972 743 q 921 801 940 781 q 908 809 915 806 q 903 822 901 813 q 906 853 904 838 q 921 879 908 868 q 976 830 949 857 q 1026 775 1003 803 l 1026 772 q 1053 743 1039 757 q 1071 713 1067 729 q 1102 694 1083 700 q 1138 683 1121 689 q 1166 664 1156 676 q 1171 625 1176 651 q 1161 636 1163 628 q 1157 651 1160 644 q 1151 642 1151 647 q 1151 630 1150 636 q 1153 617 1153 624 q 1149 606 1153 611 q 1145 619 1147 613 q 1136 629 1143 625 q 1131 631 1133 629 q 1126 628 1129 632 q 1131 618 1129 624 q 1129 607 1133 613 q 1116 617 1122 611 q 1103 619 1110 624 q 1108 601 1103 608 q 1122 588 1114 593 q 1140 578 1131 583 q 1156 568 1149 574 q 1165 563 1161 565 q 1176 560 1169 560 q 1186 550 1181 554 q 1192 539 1192 546 m 558 1218 q 551 1183 551 1201 q 549 1146 550 1165 q 535 1153 542 1149 q 521 1161 528 1157 q 531 1177 535 1168 q 524 1196 526 1186 q 535 1195 529 1196 q 543 1200 540 1194 q 540 1217 543 1208 q 543 1232 538 1225 q 551 1225 549 1231 q 558 1218 553 1219 m 954 1211 l 932 1199 q 931 1204 932 1203 q 922 1192 928 1197 q 915 1178 917 1186 q 924 1178 919 1174 q 933 1175 929 1182 q 935 1178 935 1176 l 939 1178 q 922 1169 932 1171 q 903 1163 913 1167 q 884 1148 896 1154 q 875 1128 872 1142 q 882 1122 879 1126 q 890 1121 885 1118 q 913 1139 900 1135 q 926 1121 924 1136 q 922 1094 924 1108 q 910 1072 921 1081 q 901 1067 907 1069 q 890 1068 896 1065 q 883 1076 886 1072 q 875 1083 879 1081 q 867 1024 867 1056 q 865 964 868 993 l 858 875 q 855 869 851 872 q 856 864 858 867 q 853 794 856 829 q 847 724 850 760 q 846 728 849 725 q 845 719 843 724 q 846 708 847 714 q 844 696 844 703 q 844 685 844 689 l 846 685 q 842 666 842 678 q 840 643 843 654 l 843 604 q 839 601 842 604 q 839 453 843 526 l 843 443 q 847 353 836 396 q 846 346 844 347 l 853 297 q 849 296 850 297 q 846 293 849 294 l 846 289 q 879 257 863 272 q 890 214 896 242 q 872 203 881 207 q 850 201 863 199 q 842 224 850 213 q 822 240 833 235 q 804 233 811 239 q 786 228 797 228 q 697 225 740 217 q 608 238 653 233 q 585 250 600 247 q 578 241 578 247 q 581 231 579 235 l 594 218 q 590 206 594 211 q 582 196 586 201 q 575 185 578 190 q 574 172 572 179 q 568 176 572 175 q 560 179 564 176 l 526 214 q 541 228 532 222 q 558 240 550 233 q 571 254 565 246 q 576 274 576 263 q 573 281 575 276 q 567 286 571 285 q 544 437 551 360 q 535 593 538 514 q 551 572 546 583 q 572 557 557 560 q 634 528 600 538 q 707 525 668 518 q 713 528 710 526 q 718 528 715 529 q 734 540 725 535 q 750 553 743 544 l 747 554 q 751 578 749 565 q 754 604 754 592 q 751 628 754 617 q 735 647 747 640 q 715 657 725 654 q 694 663 706 660 q 675 672 685 668 q 657 683 665 675 l 653 690 l 651 688 q 630 712 639 699 q 624 742 621 725 q 630 756 625 750 q 640 768 635 763 q 647 780 644 774 q 649 796 650 786 q 647 807 651 803 q 643 817 642 811 q 617 830 631 822 q 589 829 603 838 q 578 820 585 824 q 569 810 572 817 q 569 802 567 806 q 569 794 572 799 q 572 790 575 792 q 572 785 568 788 q 569 779 574 782 q 569 774 564 776 q 558 756 567 763 q 542 738 549 749 q 536 847 533 790 q 542 958 539 904 q 544 976 543 967 q 549 993 544 985 l 547 996 q 555 1072 554 1033 q 567 1147 556 1111 q 564 1149 567 1151 q 570 1169 567 1160 q 571 1190 574 1179 q 573 1191 572 1190 q 574 1192 574 1192 q 576 1212 571 1203 q 578 1232 581 1221 q 581 1240 585 1235 q 583 1247 576 1244 q 587 1278 586 1263 q 592 1307 588 1293 q 612 1318 600 1315 q 635 1321 624 1321 q 659 1322 647 1321 q 682 1326 671 1322 q 687 1326 685 1329 q 692 1326 689 1322 l 688 1329 q 696 1338 693 1331 q 682 1352 692 1349 q 665 1364 672 1356 q 671 1365 669 1364 l 667 1369 l 665 1368 l 660 1374 q 715 1333 693 1363 q 719 1339 718 1335 q 722 1347 719 1343 q 717 1362 719 1354 q 714 1378 714 1369 q 727 1357 722 1369 q 738 1333 732 1344 q 745 1338 744 1333 q 746 1347 746 1342 q 747 1358 746 1353 q 753 1364 747 1363 q 758 1349 751 1353 q 768 1336 764 1344 q 789 1328 783 1333 l 863 1321 q 865 1318 863 1318 q 888 1314 875 1322 q 897 1315 893 1318 q 906 1308 901 1311 l 906 1247 q 891 1239 899 1244 q 881 1226 883 1233 q 901 1224 890 1219 q 919 1232 911 1228 q 931 1235 926 1232 q 940 1236 935 1239 l 942 1239 q 935 1232 938 1232 l 933 1233 q 920 1224 928 1228 q 906 1214 913 1219 q 909 1210 907 1211 q 913 1206 911 1208 q 934 1210 925 1203 q 954 1211 943 1218 m 738 604 q 728 598 735 597 q 717 600 721 599 q 688 610 701 604 q 658 621 674 617 q 629 635 647 632 l 625 632 q 648 609 633 615 q 677 599 663 603 q 706 590 692 596 q 728 569 719 585 q 713 569 721 565 q 697 575 704 572 q 658 592 678 583 q 617 607 639 601 l 613 601 q 659 574 633 582 q 708 553 685 567 q 699 549 706 546 q 688 553 693 553 q 650 566 668 557 q 613 578 632 575 l 606 575 q 637 557 618 560 q 671 539 656 554 q 631 543 650 536 l 588 563 l 551 601 l 533 643 q 518 642 525 646 q 504 640 511 638 q 500 638 501 638 l 499 640 q 463 635 482 638 q 424 635 443 633 q 389 644 406 638 q 363 668 372 651 q 362 699 354 683 q 375 731 369 715 q 416 783 390 758 q 465 832 442 808 q 478 842 472 838 q 488 853 485 846 q 503 824 496 839 q 504 792 510 810 q 465 748 489 765 q 414 724 442 731 q 432 720 422 721 q 450 717 442 719 q 454 719 453 719 l 456 717 q 467 717 460 717 q 479 715 474 718 l 481 714 l 483 715 q 501 713 492 717 q 520 706 511 708 q 537 708 529 704 q 547 726 544 711 q 581 755 564 739 q 593 794 599 771 q 591 798 590 796 q 592 803 592 800 q 608 808 600 813 q 624 801 615 804 q 619 773 625 786 q 607 746 614 760 q 608 713 597 728 q 629 685 618 699 q 674 652 650 665 q 721 628 697 639 q 733 617 728 624 q 738 604 738 611 m 515 729 q 495 728 506 726 q 476 733 485 731 l 514 760 l 515 729 m 1139 79 q 1088 61 1115 69 q 1032 51 1060 53 q 977 57 1004 50 q 928 85 950 64 q 899 85 914 86 q 870 83 885 85 q 842 83 856 82 q 817 93 829 85 q 805 107 811 100 q 804 124 799 114 q 818 138 810 132 q 829 156 826 144 q 817 164 826 164 q 810 175 807 164 q 869 187 840 179 q 924 210 897 194 q 935 217 928 217 l 939 239 q 942 237 940 236 q 947 238 944 238 q 950 220 953 228 q 940 206 947 213 q 926 191 933 199 q 917 175 918 183 q 925 169 919 169 q 936 168 931 168 q 948 166 943 168 q 954 157 953 164 q 944 147 950 150 q 938 138 939 144 q 951 128 943 131 q 967 124 960 126 q 978 138 975 126 q 993 144 981 149 q 995 135 997 140 q 990 124 993 129 q 987 116 986 119 q 999 114 988 113 q 1032 144 1015 132 q 1072 157 1049 157 q 1110 158 1092 156 q 1139 143 1128 161 l 1139 79 m 1182 57 q 1158 47 1169 53 q 1135 38 1147 40 q 1074 15 1107 22 q 1007 6 1042 8 q 950 33 979 21 q 892 58 921 44 q 886 56 889 58 q 881 50 883 53 q 888 40 882 43 q 890 28 893 36 q 867 28 879 29 q 843 26 856 26 q 819 29 831 26 q 801 42 808 32 q 799 50 799 46 q 796 58 799 54 l 800 63 q 842 69 819 67 q 888 70 865 72 q 931 60 910 68 q 968 38 951 53 q 1073 40 1022 26 q 1169 74 1124 53 q 1175 81 1175 76 q 1178 88 1175 85 q 1184 74 1185 82 q 1182 57 1183 65 m 811 204 q 789 193 797 204 q 790 154 789 175 q 772 122 792 133 l 781 94 q 765 94 774 92 q 747 96 756 96 q 666 99 707 100 q 589 82 625 97 l 589 81 l 686 79 q 610 69 650 72 q 531 64 569 67 q 558 79 546 68 q 572 107 569 90 q 581 114 575 114 q 592 117 586 114 q 599 115 594 114 q 607 115 603 115 q 611 132 611 122 q 608 151 611 143 q 600 179 603 164 q 608 207 597 194 q 710 201 657 200 q 811 204 764 201 m 593 136 q 591 128 596 131 q 585 124 586 126 q 554 139 569 131 q 522 153 539 147 q 517 148 519 150 q 517 143 515 146 q 526 131 519 136 q 539 121 533 126 q 547 109 544 115 q 544 94 549 103 q 528 81 540 82 q 506 75 517 79 q 488 81 494 75 q 472 93 481 86 q 467 97 469 93 q 463 103 465 100 q 413 144 442 128 q 347 158 383 161 q 308 187 325 169 q 278 225 290 204 q 273 243 276 233 q 267 263 269 253 q 267 281 265 272 q 275 299 268 290 q 294 308 283 303 q 316 317 306 314 q 337 317 326 319 q 354 303 347 315 q 369 272 365 289 q 374 236 372 254 q 379 226 376 232 q 389 221 382 221 q 391 230 390 225 q 396 238 392 235 q 408 228 406 235 q 410 213 410 221 q 412 196 411 204 q 418 182 413 188 q 426 194 425 186 q 429 208 428 201 q 425 221 426 214 q 425 233 424 228 q 433 228 432 233 q 435 217 435 224 q 434 204 435 211 q 436 193 433 197 q 441 187 439 190 q 447 181 443 183 q 453 192 454 185 q 450 208 451 200 q 450 220 449 215 q 464 224 451 225 q 476 235 471 231 q 490 243 482 240 q 496 228 494 236 q 500 214 497 221 q 540 166 513 183 q 593 136 567 149 m 500 51 q 461 31 483 32 q 421 46 439 35 q 385 71 403 57 q 384 81 382 76 q 390 88 386 85 q 399 96 394 92 q 403 107 403 100 l 392 115 q 358 116 375 117 q 326 116 342 115 q 295 122 310 117 q 269 138 281 126 q 238 176 246 153 q 224 224 229 200 q 224 230 226 226 q 221 236 222 233 q 222 274 218 256 q 228 311 226 292 q 240 317 233 318 q 254 319 247 317 q 256 272 254 296 q 263 224 257 247 q 280 182 268 201 q 314 147 292 163 q 381 138 351 154 q 440 103 411 122 q 468 77 451 88 q 500 51 485 67 m 811 1215 q 797 1235 807 1226 q 775 1242 788 1243 q 767 1238 771 1240 q 758 1235 763 1236 q 749 1226 754 1229 q 739 1220 744 1224 q 728 1213 733 1217 q 722 1200 724 1208 l 721 1203 q 720 1190 721 1197 q 714 1179 719 1183 q 710 1150 711 1165 q 721 1124 710 1135 q 756 1122 738 1117 q 788 1138 774 1126 q 797 1151 790 1144 q 807 1167 803 1158 q 808 1178 806 1172 q 810 1186 810 1183 q 812 1201 813 1193 q 811 1215 811 1210 m 715 1210 q 703 1246 715 1226 q 681 1254 692 1254 q 660 1249 671 1254 q 640 1238 650 1244 q 624 1225 631 1231 l 622 1226 q 622 1219 625 1224 q 617 1213 619 1215 l 615 1214 l 617 1213 q 612 1188 610 1201 q 613 1161 614 1174 q 615 1153 618 1157 q 619 1146 613 1150 q 614 1138 617 1143 q 606 1135 611 1133 q 590 1122 593 1132 q 583 1101 586 1111 q 584 1068 582 1083 q 600 1042 586 1053 q 609 1040 607 1044 q 617 1039 611 1036 q 647 1033 629 1033 q 674 1040 664 1032 q 679 1043 676 1043 q 681 1047 683 1043 q 657 1043 669 1044 q 636 1049 644 1042 q 615 1060 621 1050 q 601 1078 610 1069 q 599 1088 601 1083 q 601 1096 596 1092 q 608 1112 599 1104 q 624 1124 618 1119 l 625 1121 l 628 1124 q 640 1120 635 1124 q 651 1113 646 1117 q 661 1108 656 1110 q 674 1108 667 1106 q 672 1113 675 1111 q 672 1117 668 1114 q 663 1117 665 1113 q 657 1125 661 1122 q 663 1128 660 1126 q 671 1128 667 1129 q 692 1153 683 1142 q 708 1182 700 1165 q 711 1196 711 1189 q 715 1210 711 1203 m 790 1013 q 788 1026 793 1021 q 786 1038 783 1031 l 783 1036 q 769 1044 781 1043 q 754 1039 757 1046 q 736 1018 750 1024 q 710 1006 722 1013 l 708 1008 q 658 1000 685 1000 q 607 1000 633 1000 l 607 994 q 615 992 613 996 q 622 988 618 989 q 709 986 667 974 q 790 1013 751 999 m 722 939 q 692 949 708 946 q 660 960 675 953 l 664 947 q 677 935 667 938 q 692 929 688 932 q 697 930 694 932 q 701 928 699 928 l 700 929 q 711 933 704 933 q 722 939 718 932 m 793 1182 q 785 1191 790 1188 q 774 1197 779 1194 q 744 1180 758 1190 q 724 1154 731 1169 q 735 1197 725 1176 q 765 1226 744 1217 q 793 1214 781 1229 q 797 1198 794 1207 q 793 1182 800 1189 m 693 1193 q 674 1207 688 1203 q 656 1199 663 1207 q 642 1183 649 1192 q 635 1167 639 1175 q 636 1150 632 1160 q 625 1150 632 1146 q 622 1181 619 1165 q 628 1213 625 1197 q 641 1227 633 1219 q 658 1239 649 1235 q 677 1242 668 1243 q 693 1229 686 1240 q 696 1213 699 1222 q 693 1193 693 1203 z "},"J":{"ha":1396,"x_min":207,"x_max":1182,"o":"m 1182 124 q 1156 154 1171 140 q 1119 192 1142 178 q 1074 219 1096 206 q 1053 227 1065 225 q 1031 233 1042 229 q 1010 242 1019 236 q 999 263 1001 249 q 997 284 1006 276 q 982 303 989 292 q 949 307 964 314 q 918 360 926 329 q 976 414 954 382 q 1011 483 999 446 q 1028 562 1024 521 q 1036 643 1033 603 q 1049 655 1042 650 q 1064 664 1056 660 q 1083 674 1078 665 q 1090 692 1088 682 q 1094 713 1092 703 q 1103 732 1096 724 q 1119 736 1111 740 q 1123 757 1119 747 q 1126 778 1126 767 q 1124 797 1126 789 q 1111 811 1122 806 q 1116 825 1113 818 q 1115 838 1119 832 l 1071 881 q 1052 905 1064 894 q 1035 931 1040 915 q 1007 981 1011 951 q 1000 1042 1003 1011 q 997 1063 993 1054 q 1006 1081 1000 1072 q 1016 1099 1011 1090 q 1018 1121 1021 1108 q 1001 1141 1004 1129 q 999 1166 997 1153 q 1001 1193 1000 1179 q 1000 1221 1003 1207 q 1009 1230 1006 1225 q 1015 1240 1013 1235 q 1017 1256 1018 1247 q 1014 1272 1015 1265 q 1002 1283 1011 1282 q 986 1289 993 1283 q 969 1283 976 1288 q 953 1274 961 1278 q 942 1285 944 1278 q 938 1299 939 1292 q 938 1314 938 1307 q 933 1329 938 1322 q 931 1349 932 1340 q 922 1367 929 1358 q 907 1382 914 1371 q 886 1388 900 1393 q 867 1374 874 1385 q 856 1353 860 1364 l 857 1351 q 856 1346 857 1347 q 831 1358 842 1350 q 804 1363 819 1365 q 785 1328 788 1349 q 781 1286 783 1307 q 767 1281 774 1283 q 753 1278 760 1278 q 703 1263 728 1271 q 656 1242 678 1256 q 657 1228 658 1235 q 658 1215 656 1222 q 669 1077 658 1144 q 675 938 681 1010 l 679 931 q 679 814 675 872 l 678 813 q 680 747 679 781 q 675 682 681 713 q 676 679 675 681 q 675 675 678 678 l 678 674 q 671 640 674 657 q 665 605 668 622 q 653 572 661 588 q 631 546 646 557 q 613 570 617 557 q 607 599 610 583 q 605 628 601 611 q 610 660 608 644 q 608 685 613 675 q 582 696 603 696 q 435 706 510 710 q 293 679 360 703 q 282 642 285 665 q 292 551 290 597 q 314 464 294 504 q 345 392 325 426 q 396 329 365 357 q 467 286 426 299 q 478 279 474 285 q 478 267 482 274 q 456 256 469 254 q 428 256 442 257 q 404 221 411 236 q 406 208 404 215 q 399 199 407 201 q 360 179 379 188 q 318 169 342 171 q 308 165 313 169 q 297 164 303 161 q 285 160 292 161 q 272 156 278 160 q 237 142 253 156 q 207 117 221 128 q 213 97 207 104 q 228 86 219 90 q 244 78 236 82 q 260 65 253 74 q 266 46 267 57 q 271 26 265 35 q 318 3 290 7 q 375 0 346 -1 q 407 10 390 6 q 440 19 424 14 q 570 65 504 46 q 708 93 636 85 q 761 93 736 96 q 810 85 786 90 q 859 74 835 79 q 910 69 883 69 l 1161 63 q 1175 90 1175 72 q 1182 124 1175 108 m 917 1267 q 908 1257 914 1261 q 896 1254 903 1253 q 897 1260 894 1257 q 900 1267 899 1264 q 904 1301 901 1283 q 892 1331 907 1319 q 865 1332 879 1333 q 866 1351 867 1342 q 874 1367 865 1361 q 894 1370 882 1371 q 911 1361 906 1369 q 926 1315 928 1343 q 917 1267 925 1286 m 851 1324 q 858 1272 863 1300 q 838 1222 853 1243 q 831 1224 833 1219 q 826 1229 829 1228 q 833 1266 829 1246 q 826 1301 836 1286 q 813 1309 819 1304 q 799 1314 807 1314 q 806 1346 797 1331 q 832 1342 819 1346 q 851 1324 844 1338 m 1047 872 l 1025 863 l 1021 869 l 1011 936 q 1028 914 1021 925 q 1040 889 1036 903 q 1044 881 1043 886 q 1047 872 1044 876 m 1110 775 q 1096 773 1103 772 q 1083 775 1089 774 q 1070 777 1076 776 q 1058 774 1064 778 q 1104 749 1083 763 l 1104 746 q 1078 750 1090 746 q 1056 759 1067 754 q 1033 769 1044 764 q 1007 774 1021 774 q 994 775 1001 776 q 982 775 986 774 q 1003 820 989 799 q 1043 851 1018 842 q 1066 855 1054 858 q 1088 844 1078 851 q 1095 838 1092 840 q 1101 829 1099 836 l 1100 828 q 1058 828 1079 842 q 1081 810 1067 813 q 1107 800 1094 807 q 1094 799 1101 797 q 1081 803 1088 801 q 1069 803 1075 804 q 1057 797 1063 803 q 1081 782 1067 783 q 1110 775 1096 781 m 1082 725 q 1076 697 1079 711 q 1065 672 1074 683 q 1028 663 1049 668 q 990 669 1008 658 q 962 678 975 671 q 933 692 949 685 q 934 701 933 696 q 932 710 935 706 q 826 700 885 697 q 849 717 835 711 q 874 729 863 722 q 867 738 874 731 q 835 731 850 739 q 804 725 821 722 q 827 742 813 738 q 856 753 842 747 q 858 758 858 756 q 857 763 857 760 q 823 763 839 769 q 792 746 807 756 q 789 751 790 749 q 789 758 788 754 q 801 768 793 765 q 816 773 808 771 q 831 778 824 775 q 840 790 838 782 q 824 797 832 797 q 810 792 817 796 q 797 784 803 788 q 783 781 790 781 q 806 806 789 799 q 838 818 822 813 q 885 804 864 818 q 927 776 907 790 q 969 751 947 761 q 1019 753 992 742 q 1045 744 1033 750 q 1071 736 1057 739 q 1076 729 1072 731 q 1082 725 1079 728 m 926 674 q 890 667 911 667 q 851 664 871 667 q 815 669 833 668 q 790 694 796 671 q 726 856 735 764 q 731 899 728 878 q 754 936 735 921 q 792 939 774 949 q 821 915 810 929 q 829 865 828 892 q 815 819 831 839 q 802 815 810 814 q 788 815 794 817 q 769 798 776 808 q 767 774 763 788 q 776 737 768 754 q 804 708 785 719 q 819 679 808 690 q 867 680 844 672 q 915 681 889 688 l 926 674 m 999 1265 q 988 1244 999 1253 q 968 1229 978 1235 q 971 1203 969 1217 q 972 1177 972 1190 q 965 1153 971 1164 q 949 1133 960 1142 q 899 1114 928 1118 q 844 1122 869 1110 q 851 1131 846 1126 q 849 1139 856 1135 q 835 1143 844 1146 q 828 1129 829 1136 q 821 1115 826 1122 q 826 1101 818 1104 q 842 1094 835 1099 q 912 1097 878 1088 q 969 1133 946 1107 q 977 1132 976 1138 q 982 1124 978 1126 q 972 1089 985 1103 q 953 1058 960 1075 q 949 991 946 1024 q 957 926 951 958 q 967 862 963 894 q 968 793 972 829 q 957 787 963 786 q 946 791 951 788 q 934 799 940 794 q 922 806 928 804 q 889 824 907 814 q 864 850 871 833 q 850 867 854 857 q 843 887 846 876 q 838 908 840 897 q 831 929 836 919 q 818 940 824 933 q 807 951 813 946 q 794 960 801 957 q 776 958 786 963 q 747 948 761 954 q 725 926 733 942 q 722 913 725 919 q 717 900 719 907 q 724 785 707 839 q 769 682 742 731 q 811 651 788 658 q 861 643 835 643 q 916 647 889 643 q 968 653 943 651 q 974 569 975 613 q 963 488 974 526 q 953 456 958 471 q 936 426 947 440 q 903 379 925 400 q 858 344 882 358 q 792 311 826 325 q 719 292 758 297 q 666 287 693 288 q 611 285 639 286 q 599 298 603 290 q 591 313 594 306 q 583 327 588 321 q 568 338 578 333 q 563 328 557 335 q 567 314 568 321 q 556 264 561 289 q 539 215 550 239 q 521 213 529 213 q 504 217 513 214 q 488 222 496 219 q 471 225 479 225 q 499 287 482 257 q 515 353 515 317 q 511 357 513 354 q 507 358 510 360 q 496 334 501 346 q 486 310 490 322 q 436 327 460 317 q 392 356 413 338 q 366 386 382 371 q 346 421 350 401 q 312 537 317 474 q 304 664 307 600 q 415 694 356 688 q 532 692 474 700 q 537 675 539 685 q 532 658 535 665 l 522 642 q 521 608 522 626 q 520 574 519 590 q 528 542 521 557 q 551 519 535 528 q 598 515 575 504 q 643 532 621 525 q 678 578 667 553 q 694 631 689 603 q 699 688 699 658 q 701 746 699 717 l 693 956 q 685 1097 690 1026 q 669 1233 681 1167 q 719 1258 690 1254 q 776 1267 749 1263 q 786 1248 779 1256 q 796 1229 793 1240 q 817 1215 804 1218 q 840 1207 829 1213 q 860 1226 856 1211 q 878 1249 865 1240 q 885 1240 881 1244 q 897 1236 890 1236 q 918 1244 910 1236 q 933 1260 926 1251 q 934 1265 935 1263 q 936 1269 933 1267 q 948 1258 943 1264 q 963 1258 953 1253 q 980 1274 968 1268 q 999 1265 992 1281 m 1165 126 q 1163 113 1168 118 q 1153 103 1158 107 q 1092 103 1122 103 q 1035 110 1063 104 l 1033 108 q 943 121 989 115 q 853 136 897 126 q 847 150 847 142 q 847 167 846 158 l 851 171 q 851 173 851 172 q 850 175 850 174 q 903 174 876 174 q 953 185 931 174 q 963 188 960 182 q 971 196 965 193 q 989 212 982 203 q 1003 228 996 221 q 1049 216 1026 225 q 1092 196 1071 207 q 1118 177 1104 186 q 1140 154 1132 168 q 1154 142 1149 149 q 1165 126 1160 135 m 985 282 q 989 256 994 269 q 976 232 983 243 q 934 199 958 211 q 879 189 910 186 q 844 215 854 193 q 842 224 844 221 q 842 233 840 228 l 849 240 q 867 231 857 233 q 888 228 876 228 q 910 232 899 229 q 931 238 921 235 q 961 269 950 250 q 962 281 961 275 q 960 293 963 288 q 974 291 967 293 q 985 282 981 289 m 1168 88 q 1160 83 1161 88 q 1153 76 1158 78 q 992 79 1071 74 q 838 103 913 85 l 844 122 q 859 119 851 121 q 874 118 867 117 q 1017 95 944 103 q 1168 88 1090 88 m 843 257 q 838 247 842 251 q 830 237 833 242 q 825 226 826 232 q 831 215 824 221 l 829 161 q 819 163 826 160 q 799 164 808 161 q 782 164 790 167 q 756 169 769 168 q 731 169 742 171 q 719 169 726 171 q 708 171 713 168 l 707 169 q 649 172 679 172 q 590 174 618 171 q 586 171 588 171 q 586 201 592 186 q 576 232 581 217 q 585 253 576 249 q 606 258 593 258 q 632 256 618 258 q 656 258 646 254 q 804 294 731 268 q 821 304 810 299 q 833 297 832 310 q 843 278 839 289 q 843 257 847 268 m 567 183 q 538 169 554 174 q 528 169 533 171 q 517 167 522 168 q 505 169 510 169 q 494 168 500 168 q 492 169 492 169 l 489 168 q 467 176 479 172 q 445 184 456 179 q 427 197 435 189 q 418 219 419 206 q 423 236 415 232 q 438 247 431 240 q 442 228 440 239 q 451 211 444 218 q 497 201 474 204 q 542 192 521 199 q 549 192 547 190 q 553 198 551 194 q 558 203 556 201 q 567 204 561 206 q 567 183 572 193 m 561 133 q 525 113 542 124 q 488 96 508 103 q 465 87 479 85 q 442 79 451 89 q 436 78 439 79 q 431 81 433 78 l 428 76 q 363 61 396 65 q 294 53 329 57 l 292 58 q 289 53 289 57 q 280 61 281 54 q 276 72 279 68 q 299 116 279 100 q 333 151 318 132 q 357 163 347 154 q 381 175 367 172 q 411 185 392 185 q 434 167 422 175 q 457 151 446 160 q 494 138 472 142 q 533 144 515 133 q 547 150 539 151 q 560 156 554 149 l 561 133 m 576 121 q 570 99 581 106 q 551 86 560 93 q 433 38 493 57 q 304 15 372 19 q 298 22 301 18 q 292 28 294 25 q 436 60 367 38 q 569 121 506 83 l 576 121 z "},"K":{"ha":1550,"x_min":-7,"x_max":1440,"o":"m 1440 281 q 1429 295 1435 288 q 1414 307 1424 303 q 1380 317 1399 315 q 1342 318 1361 318 q 1306 321 1324 318 q 1274 333 1288 324 q 1261 326 1267 332 q 1253 317 1256 321 q 1242 315 1246 307 q 1235 326 1239 324 q 1217 324 1225 331 q 1203 311 1210 317 q 1191 310 1197 308 q 1182 314 1185 311 q 1203 326 1193 319 q 1219 340 1213 332 q 1231 352 1222 347 q 1242 367 1239 357 q 1153 458 1197 413 q 1069 553 1110 504 q 1036 599 1054 576 q 1001 646 1018 622 q 970 694 983 669 q 953 749 957 719 q 1034 845 993 797 q 1119 938 1075 893 l 1119 940 q 1172 993 1146 968 q 1226 1040 1199 1018 q 1216 1064 1224 1054 q 1198 1082 1208 1074 q 1177 1099 1188 1090 q 1161 1119 1167 1107 q 1197 1145 1181 1133 q 1231 1175 1213 1157 q 1261 1213 1242 1200 q 1297 1246 1281 1226 q 1310 1256 1303 1253 q 1318 1269 1318 1260 q 1295 1274 1307 1278 q 1274 1267 1283 1271 q 1263 1263 1268 1265 q 1254 1265 1257 1261 q 1273 1278 1264 1272 q 1292 1292 1282 1285 q 1302 1306 1297 1299 q 1303 1322 1307 1313 q 1277 1324 1290 1329 q 1253 1317 1264 1319 q 1260 1342 1250 1331 q 1267 1369 1271 1353 q 1253 1377 1260 1378 q 1241 1372 1247 1376 q 1229 1360 1235 1367 q 1217 1353 1224 1354 q 1209 1370 1211 1361 q 1204 1389 1207 1379 l 1192 1389 q 1136 1344 1163 1372 q 1092 1288 1110 1315 q 1081 1314 1085 1300 q 1067 1339 1078 1328 l 1035 1339 q 1026 1328 1022 1339 q 1028 1311 1029 1318 q 1035 1260 1031 1288 q 1024 1213 1040 1232 l 975 1217 q 957 1193 963 1206 q 942 1169 951 1181 q 849 1050 899 1108 q 750 933 799 992 q 740 921 744 926 q 728 911 736 915 q 727 1053 729 982 q 718 1192 725 1124 q 682 1219 699 1207 q 642 1236 665 1232 q 621 1240 632 1239 q 600 1244 610 1240 q 608 1292 607 1264 q 597 1339 610 1319 q 569 1346 585 1347 q 541 1323 553 1339 q 521 1292 529 1307 q 519 1283 518 1288 q 514 1275 521 1278 q 500 1308 508 1292 q 476 1336 492 1325 q 463 1337 469 1343 q 449 1328 456 1331 q 424 1278 433 1304 q 413 1224 415 1253 q 390 1215 401 1218 q 367 1206 378 1211 q 346 1194 356 1201 q 332 1175 336 1188 q 340 1042 333 1107 q 347 908 347 976 l 300 883 q 214 808 256 851 q 146 717 172 764 q 86 689 114 707 q 32 649 58 671 q 4 632 14 649 q 8 592 -7 611 q 19 591 14 589 q 26 596 24 593 q 35 599 31 596 q 43 594 40 601 q 40 589 44 593 q 33 584 35 589 q 25 581 31 579 q 10 569 14 578 q 8 549 6 560 q 22 535 11 538 q 40 531 32 533 q 43 519 47 525 q 42 507 39 514 q 52 494 44 496 q 69 494 60 493 q 88 493 79 494 q 101 483 97 492 q 134 485 121 478 q 157 506 147 493 q 175 533 167 518 q 193 557 183 547 q 208 533 204 547 q 228 517 213 519 q 253 523 240 517 q 271 542 265 529 q 265 560 274 556 q 250 575 257 565 q 242 628 235 604 q 267 672 249 651 q 307 713 285 693 q 346 753 329 732 q 347 688 349 719 q 341 624 344 656 q 335 561 338 593 q 332 496 332 529 l 333 494 q 311 362 325 426 q 293 228 297 297 q 334 231 314 238 q 375 224 354 225 q 365 209 372 213 q 349 206 358 206 q 331 206 340 206 q 314 200 321 206 q 315 179 314 186 q 306 181 311 178 q 293 183 300 185 q 290 174 290 178 q 270 160 282 163 q 244 156 258 157 q 217 155 231 156 q 193 149 204 154 q 179 137 186 143 q 175 119 172 131 q 174 99 169 106 q 188 87 179 92 q 205 78 196 82 q 218 64 214 74 q 221 46 224 56 q 215 28 218 36 q 220 15 215 21 q 232 4 225 10 q 292 3 263 -6 q 349 24 321 13 l 350 21 q 443 44 396 35 q 536 67 490 53 q 580 81 557 78 q 627 86 603 85 q 676 88 651 88 q 725 90 701 88 q 876 103 799 100 q 1031 97 954 106 q 1038 84 1033 90 q 1043 71 1042 78 q 1217 100 1129 90 q 1392 124 1304 110 q 1399 144 1400 135 q 1375 157 1388 154 q 1349 161 1363 160 q 1321 165 1335 163 q 1296 174 1307 167 q 1297 180 1293 178 q 1303 185 1300 182 q 1343 200 1321 194 q 1386 215 1365 206 q 1422 238 1407 224 q 1440 281 1436 253 m 1253 1353 q 1238 1326 1246 1339 q 1217 1304 1231 1313 q 1208 1293 1211 1300 q 1197 1288 1204 1286 q 1190 1297 1199 1294 q 1189 1306 1182 1299 q 1217 1338 1204 1321 q 1249 1363 1229 1356 l 1253 1353 m 1300 1256 q 1255 1224 1275 1244 q 1215 1183 1235 1204 q 1173 1144 1194 1161 q 1124 1125 1151 1128 q 1119 1126 1121 1128 l 1118 1125 q 1081 1151 1099 1138 q 1043 1178 1063 1165 l 1043 1325 q 1060 1323 1051 1325 q 1071 1313 1068 1321 q 1072 1289 1072 1301 q 1074 1267 1072 1278 q 1078 1246 1075 1256 q 1093 1228 1082 1236 q 1106 1224 1099 1225 q 1114 1215 1114 1224 q 1119 1199 1119 1208 q 1126 1185 1118 1190 q 1135 1210 1140 1194 q 1126 1238 1129 1225 l 1093 1256 q 1138 1322 1107 1292 q 1197 1381 1168 1351 q 1201 1369 1201 1376 q 1199 1358 1201 1363 q 1187 1342 1192 1351 q 1176 1323 1182 1332 q 1163 1310 1171 1314 q 1140 1310 1154 1306 q 1136 1301 1136 1306 q 1181 1276 1161 1294 q 1224 1244 1201 1258 q 1225 1253 1226 1249 q 1221 1260 1224 1257 q 1215 1267 1218 1263 q 1213 1275 1213 1271 q 1247 1297 1231 1285 q 1283 1315 1264 1308 q 1284 1308 1286 1311 q 1282 1301 1282 1304 q 1269 1290 1276 1294 q 1255 1282 1263 1286 q 1240 1274 1247 1278 q 1228 1261 1233 1269 q 1234 1248 1226 1253 q 1246 1238 1242 1243 q 1270 1253 1258 1244 q 1297 1263 1282 1261 q 1300 1256 1301 1258 m 593 1322 q 594 1288 593 1306 q 592 1256 594 1271 q 580 1259 586 1263 q 568 1256 574 1256 q 543 1226 549 1244 q 539 1189 538 1208 q 532 1258 529 1221 q 557 1322 535 1296 q 576 1331 564 1328 q 593 1322 589 1333 m 496 1251 q 485 1256 490 1254 q 472 1256 479 1257 q 455 1231 458 1244 q 447 1201 451 1217 l 449 1199 q 447 1193 446 1196 q 449 1188 449 1190 q 432 1250 429 1213 q 450 1313 435 1288 q 461 1322 453 1319 q 476 1318 469 1324 q 481 1315 479 1317 q 486 1310 483 1313 q 495 1281 489 1294 q 496 1251 501 1267 m 1182 335 l 1174 326 l 961 175 l 946 175 q 796 382 854 272 q 692 610 738 492 q 678 603 681 610 q 676 589 675 597 q 677 572 676 581 q 675 557 678 563 l 661 414 l 646 236 q 631 236 639 239 q 615 236 622 233 q 564 231 592 229 q 508 232 536 233 q 492 233 501 235 q 476 236 483 232 q 390 238 433 235 q 304 244 347 242 l 301 246 l 332 425 l 350 601 l 358 783 q 358 980 364 883 q 340 1171 351 1076 q 377 1192 357 1186 q 419 1201 397 1199 q 435 1172 422 1185 q 461 1149 449 1160 q 478 1154 472 1146 q 492 1167 485 1163 q 506 1186 499 1176 q 514 1208 513 1196 q 515 1205 514 1206 q 515 1201 517 1204 q 517 1190 514 1196 q 522 1178 519 1185 q 538 1162 529 1169 q 558 1154 547 1154 q 578 1172 572 1160 q 596 1192 583 1185 q 599 1212 590 1204 q 614 1224 607 1219 q 646 1225 628 1228 q 658 1024 658 1126 q 674 824 658 921 q 828 1008 753 915 q 974 1197 903 1101 q 1001 1190 990 1201 q 1024 1171 1011 1178 q 1091 1119 1057 1147 q 1153 1054 1125 1090 l 1153 1049 q 1081 968 1117 1008 q 1014 889 1046 928 l 900 754 l 892 744 q 1010 522 936 628 q 1182 335 1083 417 m 1400 296 q 1382 276 1396 281 q 1357 261 1368 271 q 1244 213 1300 238 q 1131 167 1189 188 q 1084 149 1107 157 q 1039 132 1061 142 q 1023 158 1026 144 q 1021 190 1019 171 q 1047 208 1032 203 q 1075 219 1061 213 q 1124 242 1101 226 q 1156 286 1146 258 q 1183 295 1167 294 q 1213 294 1199 296 q 1203 275 1211 283 q 1206 256 1194 267 q 1218 264 1214 258 q 1224 276 1222 269 q 1229 289 1226 282 q 1238 300 1232 296 q 1260 306 1246 313 q 1247 283 1257 293 q 1239 260 1238 274 q 1243 253 1242 253 q 1265 280 1254 265 q 1288 310 1275 294 q 1346 308 1317 310 q 1400 296 1375 307 m 1428 256 q 1163 156 1306 185 q 1156 140 1157 149 q 1149 125 1154 132 q 1105 103 1129 108 q 1061 82 1081 97 q 1052 85 1054 79 q 1047 93 1050 90 l 1043 111 q 1138 156 1089 136 q 1235 194 1186 175 q 1331 233 1283 213 q 1424 281 1378 253 q 1428 270 1431 278 q 1428 256 1426 263 m 925 171 l 647 171 q 647 190 647 181 q 649 207 646 199 q 683 215 668 201 q 715 232 699 228 l 721 236 q 728 349 721 294 q 736 461 735 403 q 818 311 776 385 q 925 171 860 238 m 339 767 q 299 726 319 744 q 263 685 278 708 l 254 678 q 217 713 238 697 q 175 735 197 728 q 222 806 188 775 q 289 861 257 836 l 306 861 q 336 821 332 849 q 339 767 340 793 m 254 554 q 253 547 257 550 q 249 539 250 543 q 236 530 244 531 q 221 532 228 529 q 213 544 213 536 q 211 560 214 553 q 213 581 211 571 q 213 601 215 590 q 190 574 200 589 q 171 542 181 558 q 149 513 161 526 q 121 492 138 500 q 113 494 118 494 q 107 501 107 494 q 115 522 108 513 q 128 539 121 531 q 144 556 136 547 q 154 575 151 564 l 150 578 q 108 536 126 563 q 63 503 90 510 q 63 529 57 518 q 80 550 69 540 q 102 569 90 560 q 119 592 114 579 q 103 591 111 594 q 89 582 96 588 q 62 558 75 569 q 33 539 49 547 q 23 549 29 544 q 22 561 17 554 q 65 599 40 583 q 106 640 90 614 q 96 641 100 643 q 86 639 92 639 q 53 618 69 628 q 14 610 36 608 q 12 617 11 613 q 13 625 13 621 q 82 672 47 649 q 158 703 117 696 q 196 692 179 703 q 226 667 213 681 q 231 638 232 653 q 231 606 231 622 q 236 577 232 590 q 254 554 240 564 m 624 189 q 595 163 611 172 q 561 146 579 153 q 524 133 543 139 q 489 119 506 128 q 363 85 426 100 q 235 56 300 71 q 283 128 250 103 q 301 144 292 135 q 322 157 311 153 q 334 142 329 151 q 349 128 339 133 q 354 133 353 129 q 357 140 356 138 q 347 154 356 150 q 335 168 339 158 q 338 177 331 175 q 347 183 344 179 q 356 176 351 182 q 365 166 361 171 q 374 160 369 161 q 385 167 379 158 q 384 176 386 172 q 378 183 382 181 q 369 190 374 186 q 364 197 365 193 q 418 212 388 215 q 475 200 449 208 q 507 188 492 196 q 540 178 522 181 q 554 194 546 190 q 572 197 563 197 q 592 197 582 197 q 613 199 603 196 q 624 189 622 197 m 618 119 q 573 99 594 110 q 528 79 551 88 l 526 82 l 525 79 q 522 96 522 88 q 514 111 522 106 q 397 55 456 82 q 275 13 339 28 q 249 14 261 11 q 228 28 236 17 l 228 35 q 319 48 275 36 q 405 74 363 60 q 488 106 447 89 q 572 135 529 122 q 592 140 582 139 q 611 144 601 140 q 615 133 614 140 q 618 119 615 126 m 582 1128 q 563 1138 575 1139 q 540 1140 551 1138 q 520 1133 533 1133 q 507 1118 507 1132 q 523 1121 514 1117 q 540 1126 532 1125 q 551 1122 547 1126 q 561 1113 556 1118 q 557 1094 563 1101 q 543 1082 551 1088 q 526 1073 535 1076 q 511 1065 517 1069 q 531 1061 521 1063 q 550 1067 542 1060 q 574 1093 564 1078 q 582 1128 585 1108 m 603 1047 q 593 1056 596 1057 q 588 1051 590 1056 q 583 1042 586 1047 q 575 1035 581 1036 q 558 1031 565 1029 q 506 1026 533 1022 q 454 1035 478 1031 q 444 1044 446 1038 q 440 1058 442 1051 l 428 1060 q 413 1049 421 1053 q 403 1035 406 1044 q 407 1031 406 1033 q 411 1031 408 1028 q 415 1036 414 1033 q 419 1042 417 1039 q 447 1017 438 1033 q 467 985 457 1001 q 488 956 476 968 q 522 942 500 943 l 585 1031 q 599 1037 590 1038 q 603 1047 608 1036 m 535 888 q 538 897 535 892 q 535 906 542 903 q 508 905 521 899 q 483 914 494 911 q 493 885 481 900 q 515 883 504 885 q 535 888 525 881 m 558 1015 q 536 991 551 1000 q 504 981 521 982 q 475 997 485 981 q 472 1004 475 1001 q 471 1011 469 1007 q 515 1007 492 1004 q 558 1015 539 1010 z "},"L":{"ha":1442,"x_min":-3,"x_max":1289,"o":"m 1288 117 q 1283 129 1289 124 q 1276 142 1278 135 q 1229 158 1254 153 q 1181 174 1204 163 q 1164 188 1174 181 q 1156 206 1154 194 l 1121 208 q 1124 213 1119 213 q 1128 218 1128 214 q 1118 224 1122 225 q 1110 219 1114 222 q 1101 213 1106 217 q 1090 213 1096 210 q 1078 236 1078 225 q 1072 244 1075 240 q 1068 251 1069 247 q 1100 267 1083 265 q 1126 383 1111 326 q 1146 503 1140 440 l 1126 526 q 1040 555 1086 549 q 946 560 994 561 q 849 556 897 560 q 754 556 800 553 q 748 583 747 568 q 743 613 749 599 l 746 615 q 772 605 757 607 q 803 606 788 603 q 815 621 811 613 q 821 638 819 629 l 964 650 q 979 669 975 657 q 986 693 983 681 q 972 730 983 714 q 946 758 961 746 q 913 778 931 769 q 878 793 894 788 q 853 797 867 797 q 831 804 840 797 q 826 825 832 817 q 813 840 821 833 q 794 851 804 846 q 775 860 783 856 q 750 878 764 871 q 728 901 736 886 q 731 910 731 906 q 736 917 732 914 q 767 926 751 919 q 793 944 782 932 q 803 971 800 956 q 801 1000 807 986 q 791 1010 797 1008 q 777 1012 785 1013 q 762 1010 769 1011 q 747 1010 754 1008 l 742 1015 q 786 1088 769 1049 q 772 1168 793 1135 q 778 1180 775 1175 q 782 1192 781 1185 q 795 1233 792 1211 q 806 1276 799 1256 q 756 1317 782 1297 q 696 1335 731 1336 l 701 1349 q 690 1352 696 1356 q 678 1349 685 1349 q 672 1356 672 1351 q 671 1368 671 1361 q 650 1376 663 1378 q 635 1376 639 1369 q 624 1388 631 1382 q 587 1374 600 1393 q 571 1338 574 1356 q 568 1325 568 1331 q 564 1315 568 1319 q 544 1314 553 1317 q 525 1310 535 1311 q 439 1289 482 1300 q 356 1263 396 1278 q 334 1129 347 1194 q 321 993 321 1064 l 319 811 q 292 791 307 799 q 264 776 278 783 q 236 760 250 768 q 213 736 222 751 q 212 719 213 728 q 215 704 211 711 q 187 679 199 693 q 160 653 175 665 q 144 628 153 639 q 129 603 135 617 q 119 581 126 588 q 88 569 101 578 q 64 547 75 560 q 41 522 53 535 q 14 500 29 508 q 2 480 7 490 q 3 457 -3 469 q 15 434 10 446 q 29 411 21 422 q 46 408 36 408 q 63 413 56 408 q 67 408 67 411 q 67 403 67 406 q 74 381 67 386 q 93 375 82 375 q 119 376 106 375 q 142 374 132 378 q 168 408 161 386 q 183 449 175 429 q 190 458 186 453 q 200 464 194 463 q 231 444 213 446 q 267 438 249 442 q 281 453 276 444 q 293 471 285 463 l 293 476 q 274 491 288 490 q 247 494 260 492 q 235 517 238 504 q 231 543 232 529 q 242 579 235 561 q 264 608 249 597 q 281 604 274 601 q 293 613 288 607 q 303 626 299 619 q 317 633 308 633 q 319 626 319 631 q 319 618 318 621 l 336 313 l 339 300 q 326 273 338 285 q 300 257 314 261 q 286 246 289 253 q 283 231 283 239 q 283 214 283 222 q 278 200 282 206 q 263 201 271 197 q 247 206 256 204 q 244 194 250 199 q 233 188 238 190 q 208 186 225 181 q 199 164 211 175 q 135 142 167 153 q 69 126 104 131 q 33 116 51 119 q 0 97 15 113 q 6 90 1 93 q 13 83 10 86 q 55 65 35 75 q 103 61 75 54 q 139 15 135 50 q 214 0 172 -1 q 292 10 256 1 q 300 10 296 8 q 308 11 304 11 q 480 34 392 28 q 656 47 568 40 q 706 53 681 51 q 756 58 732 54 q 802 72 781 63 q 840 103 824 82 q 958 47 896 67 q 1089 19 1021 28 q 1094 22 1092 24 q 1100 18 1097 19 q 1151 19 1125 22 q 1203 22 1178 15 q 1217 49 1214 33 q 1222 79 1219 64 q 1237 92 1228 88 q 1255 99 1246 96 q 1272 105 1264 101 q 1288 117 1281 108 m 764 1147 q 769 1107 771 1128 q 757 1068 768 1086 q 750 1060 751 1065 q 742 1053 749 1056 q 746 1069 746 1060 q 743 1086 746 1079 q 727 1103 736 1097 q 704 1106 718 1108 q 717 1136 706 1122 q 743 1156 728 1150 q 754 1154 750 1158 q 764 1147 758 1150 m 683 1132 q 650 1043 683 1081 q 654 1078 657 1058 q 640 1110 651 1097 q 631 1114 636 1114 q 619 1113 625 1114 q 604 1103 611 1104 q 608 1124 603 1113 q 621 1144 613 1136 q 640 1157 629 1153 q 663 1156 650 1161 q 676 1147 669 1151 q 683 1132 682 1142 m 739 871 q 733 858 738 864 q 724 844 729 851 q 715 847 719 847 q 710 853 711 847 q 713 867 707 863 q 726 875 719 872 q 733 875 731 876 q 739 871 736 874 m 971 700 q 966 681 972 689 q 951 668 960 674 q 926 660 940 663 q 901 665 913 658 q 874 682 888 674 q 850 707 860 690 q 840 700 844 704 q 831 692 836 696 q 819 686 825 688 q 806 689 814 685 l 800 696 l 817 714 q 799 716 807 721 q 782 708 790 711 q 763 699 772 704 q 742 692 753 693 q 765 719 749 711 q 793 742 781 728 q 777 746 786 750 q 761 739 768 742 q 739 724 750 732 q 713 717 728 717 q 724 733 717 726 q 740 744 732 739 q 757 756 749 750 q 772 769 765 761 q 751 771 761 776 q 732 761 742 765 q 715 746 722 753 q 694 742 708 739 q 701 760 692 753 q 718 774 711 767 l 763 807 q 750 813 758 815 q 735 811 742 811 q 712 792 724 801 q 686 781 700 783 l 679 783 q 706 815 686 803 q 740 842 725 826 q 751 845 747 840 q 763 850 756 850 l 781 847 q 807 818 799 836 q 832 785 815 800 q 919 758 881 776 q 951 733 933 744 q 971 700 968 721 m 874 665 q 849 650 867 650 q 826 651 836 647 q 806 658 817 654 q 823 666 814 660 q 841 676 832 672 q 858 678 850 679 q 874 665 867 678 m 1060 543 q 1050 436 1060 488 q 1029 333 1040 385 q 1027 324 1028 329 q 1022 317 1026 319 q 1024 313 1026 314 q 1022 308 1021 311 l 1019 304 q 1018 297 1021 301 q 1018 290 1015 293 q 1015 281 1015 286 q 1011 272 1014 276 q 867 288 940 285 q 722 287 794 290 q 576 275 649 283 q 433 258 503 267 q 394 253 414 260 q 358 260 375 246 q 344 344 347 301 q 341 433 342 388 q 341 522 340 478 q 339 611 342 567 q 378 664 363 635 q 383 729 393 693 q 351 692 365 713 q 317 654 336 671 q 315 649 318 651 q 310 644 313 647 q 298 672 303 657 q 287 702 293 688 q 271 728 281 717 q 244 746 261 739 q 290 771 265 761 q 338 797 315 781 q 359 797 349 797 q 379 799 369 796 q 367 810 376 810 q 351 817 358 811 q 337 896 339 856 q 337 978 335 936 q 343 1060 339 1019 q 349 1142 347 1101 q 356 1197 353 1169 q 367 1253 360 1225 q 453 1283 406 1275 q 479 1289 465 1286 q 506 1292 493 1292 q 546 1303 525 1297 q 586 1317 567 1308 q 590 1352 589 1333 q 610 1378 590 1371 q 615 1361 618 1371 q 610 1343 611 1351 q 607 1329 608 1336 q 607 1315 606 1322 q 622 1334 618 1322 q 638 1354 626 1346 q 645 1359 640 1360 q 654 1361 650 1358 q 653 1344 660 1353 q 642 1329 646 1336 l 640 1326 l 642 1325 q 663 1333 653 1328 q 686 1338 674 1338 q 685 1326 688 1331 q 679 1318 682 1322 q 708 1315 693 1315 q 736 1311 722 1314 q 717 1236 725 1275 q 701 1157 708 1197 q 699 1153 699 1156 q 697 1149 700 1151 q 694 1156 694 1151 q 689 1163 693 1160 q 663 1181 678 1172 q 632 1179 649 1189 q 592 1120 603 1156 q 588 1046 581 1085 q 606 1023 596 1036 q 632 1013 617 1010 q 659 1025 650 1013 q 678 1049 668 1038 q 688 1025 682 1038 q 689 999 694 1013 q 697 991 692 994 q 708 990 701 988 q 724 993 717 990 q 740 998 732 996 q 754 1000 747 1000 q 771 993 763 1000 q 777 981 776 988 q 781 967 778 974 q 776 954 778 960 q 767 944 774 949 q 748 938 758 936 q 728 943 738 940 q 711 945 719 946 q 697 932 703 944 q 695 902 694 918 q 679 882 696 886 l 619 885 q 613 888 617 889 q 604 890 608 888 q 576 905 592 900 q 553 925 561 910 q 535 942 546 935 q 524 963 525 950 q 530 971 531 965 q 532 982 529 976 q 510 985 521 992 q 488 975 499 979 q 476 964 485 969 q 479 951 468 958 q 499 946 486 940 l 501 950 q 563 892 528 918 q 639 860 597 865 q 685 860 661 856 q 688 853 689 857 q 686 846 688 849 q 667 833 676 839 q 646 828 657 828 q 625 831 635 825 q 610 824 615 838 q 657 807 626 803 l 658 783 l 650 533 q 749 535 701 533 q 850 540 797 538 l 1047 544 l 1060 543 m 771 675 q 767 651 769 663 q 767 626 765 639 q 743 632 756 629 q 726 649 731 635 l 726 669 q 749 671 738 669 q 769 676 760 672 l 771 675 m 1060 208 q 977 202 1019 189 q 901 239 935 215 q 899 243 899 240 q 900 249 900 246 q 907 255 903 254 q 917 257 911 256 q 940 242 928 249 q 964 228 951 235 q 989 222 976 225 q 1017 221 1001 218 q 1028 225 1024 219 q 1038 236 1033 231 q 1047 243 1042 242 q 1058 236 1051 244 q 1065 223 1067 231 q 1060 208 1064 215 m 1211 107 q 1200 90 1213 90 q 1179 86 1188 90 q 1092 91 1136 90 q 1013 111 1049 92 q 915 146 963 126 q 821 189 868 165 q 864 232 832 221 q 873 237 868 238 q 882 232 878 236 q 891 223 886 228 q 901 217 896 218 q 918 203 908 210 q 939 194 928 197 q 997 176 964 179 q 1060 182 1031 172 l 1061 185 q 1051 168 1061 174 q 1042 154 1040 163 q 1071 167 1057 158 q 1099 185 1085 175 q 1089 174 1094 179 q 1078 165 1083 169 q 1072 154 1074 160 q 1074 142 1069 149 q 1083 141 1079 139 q 1092 143 1088 143 q 1126 182 1099 172 q 1196 157 1163 178 q 1210 134 1207 147 q 1211 107 1214 121 m 1206 54 q 1178 37 1194 39 q 1144 33 1161 35 q 1003 54 1069 35 q 872 100 938 74 q 833 124 853 111 q 806 161 813 138 q 814 170 806 172 q 828 165 822 168 q 878 144 856 157 q 929 124 901 131 q 970 106 950 115 q 1011 89 990 96 q 1016 90 1014 92 q 1021 86 1018 88 q 1060 76 1042 79 q 1100 69 1079 74 q 1153 67 1128 68 q 1204 71 1178 65 q 1206 63 1204 67 q 1206 54 1208 58 m 863 260 q 786 164 814 218 l 558 163 q 544 157 553 157 q 537 196 538 175 q 518 228 536 217 q 525 236 525 231 q 525 250 525 243 q 583 259 553 257 q 642 264 613 261 l 832 263 q 847 260 839 260 q 863 260 854 261 m 279 474 q 272 458 279 464 q 258 447 264 453 q 238 446 246 442 q 224 458 231 450 q 211 473 218 465 q 194 483 204 481 q 174 454 179 472 q 158 421 168 436 q 147 403 153 411 q 132 388 140 394 q 122 392 125 385 q 128 410 122 401 q 138 428 133 419 q 144 444 143 436 q 136 461 144 453 q 120 439 129 450 q 108 413 111 428 q 98 398 104 406 q 83 388 92 390 q 75 397 76 390 q 76 411 74 404 q 84 427 78 419 q 97 442 90 435 q 106 456 103 449 q 106 474 110 464 q 42 422 79 438 q 34 431 35 425 q 31 440 33 436 q 42 456 33 450 q 58 466 50 461 q 73 477 67 471 q 78 496 79 483 q 61 487 68 493 q 47 474 54 481 q 31 464 39 468 q 11 461 22 460 q 17 485 10 476 q 33 499 24 493 q 53 512 43 506 q 69 529 64 518 q 92 557 76 547 q 125 569 108 567 q 131 568 126 568 q 152 610 142 589 q 182 650 163 631 q 191 663 185 657 q 204 674 197 668 l 239 704 q 253 696 247 701 q 267 685 260 690 q 273 665 272 676 q 274 643 274 654 q 244 601 257 624 q 215 560 232 579 l 213 564 q 206 558 210 561 q 204 551 203 556 q 215 536 213 544 q 220 518 218 528 q 224 499 222 508 q 233 483 226 490 q 242 477 236 476 q 253 475 247 478 q 260 476 257 474 q 268 479 264 478 q 275 480 272 481 q 279 474 278 479 m 486 232 q 456 213 472 219 q 423 202 440 206 q 388 196 406 199 q 351 189 369 193 q 333 184 342 186 q 315 179 325 182 q 302 200 306 188 q 299 226 299 213 q 310 245 300 238 q 325 263 319 253 q 330 260 331 264 q 332 256 329 257 q 328 238 332 246 q 328 219 325 229 q 356 208 339 207 q 388 215 374 210 q 433 234 408 226 q 481 235 457 242 l 486 232 m 519 196 q 519 162 529 176 q 501 133 510 147 q 397 88 453 100 q 283 69 342 76 q 217 63 251 65 q 150 67 182 61 q 141 81 144 74 q 142 94 138 88 l 150 117 q 183 138 167 125 q 215 163 199 151 q 231 148 224 157 q 244 132 238 139 q 249 141 249 135 q 247 151 250 147 q 239 163 244 158 q 243 174 233 168 q 246 177 244 175 q 250 179 247 179 q 260 156 254 168 q 279 139 267 144 q 285 147 286 142 q 285 158 283 153 q 275 168 276 161 q 271 182 274 175 q 281 185 276 186 q 289 179 285 183 q 297 170 293 175 q 306 164 300 165 q 372 167 340 160 q 436 186 404 175 q 472 199 454 193 q 508 210 489 206 l 519 196 m 526 118 q 525 108 529 113 q 522 97 521 104 q 438 55 482 69 q 349 28 394 40 q 301 21 325 25 q 251 15 276 17 q 202 15 226 13 q 156 26 178 17 q 147 39 149 32 q 144 53 146 46 q 264 49 203 44 q 379 65 325 53 q 454 91 415 81 q 525 125 493 101 q 528 121 526 122 q 526 118 529 119 z "},"M":{"ha":1979,"x_min":-3,"x_max":1817,"o":"m 1808 686 q 1758 747 1789 719 q 1697 800 1726 775 q 1672 816 1679 804 q 1663 842 1665 828 q 1661 871 1661 856 q 1658 900 1661 888 q 1628 966 1649 935 q 1582 1026 1608 997 q 1527 1082 1556 1056 q 1472 1136 1499 1108 q 1446 1217 1457 1176 q 1415 1296 1435 1257 q 1356 1342 1392 1328 q 1283 1365 1319 1357 l 1282 1364 q 1178 1373 1232 1372 q 1071 1371 1124 1374 q 1030 1298 1046 1336 q 994 1222 1014 1260 q 980 1206 993 1207 q 956 1207 967 1204 q 951 1195 951 1201 q 947 1182 950 1189 l 961 1182 q 966 1169 967 1176 q 963 1156 965 1163 q 942 1141 947 1151 q 933 1118 936 1131 q 925 1093 929 1106 q 910 1072 921 1081 q 862 1201 890 1139 q 801 1326 833 1264 q 735 1375 774 1361 q 654 1389 697 1389 q 569 1381 613 1389 q 490 1365 526 1372 q 483 1366 488 1365 q 476 1364 479 1367 q 462 1363 469 1367 q 447 1361 454 1358 q 440 1359 444 1358 q 431 1360 435 1360 q 392 1310 407 1336 q 367 1254 378 1283 q 347 1196 356 1225 q 324 1139 338 1167 q 308 1128 317 1132 q 290 1122 299 1125 q 172 1048 228 1093 q 61 954 117 1003 q 58 919 57 936 q 64 884 60 901 q 72 850 68 867 q 76 815 76 833 q 53 810 63 817 q 35 794 43 803 q 18 774 26 785 q 0 758 10 764 q 6 747 -3 747 q 18 739 15 746 q 10 725 18 731 q 4 708 1 719 q 47 690 26 700 q 85 663 67 681 q 125 660 107 656 q 160 673 143 664 q 194 693 178 682 q 229 710 211 704 l 236 704 l 219 560 q 232 544 224 549 q 250 538 240 540 q 269 533 260 536 q 286 522 279 531 q 285 501 289 511 q 276 483 282 492 q 267 450 268 467 q 269 415 267 433 q 274 380 271 397 q 279 346 278 363 q 276 322 274 333 q 261 298 269 310 q 238 279 253 286 q 231 263 231 271 q 233 246 231 254 q 240 228 236 238 q 246 211 244 219 l 219 188 q 205 176 213 178 q 189 177 197 175 q 172 181 181 179 q 156 178 164 182 q 135 165 147 169 q 113 156 124 161 q 93 142 101 150 q 83 121 85 135 q 68 81 72 104 q 74 39 64 58 q 165 2 113 8 q 265 8 217 -4 q 311 36 286 28 q 363 47 336 44 q 419 49 390 50 q 476 49 449 49 l 497 71 q 574 83 535 81 q 653 92 613 86 l 933 94 q 929 101 932 97 q 926 107 926 104 q 762 133 847 128 q 588 135 676 138 q 539 132 564 135 q 490 133 514 129 q 498 169 501 151 q 488 205 494 188 q 478 240 482 222 q 483 276 474 257 q 481 294 485 288 q 469 307 476 301 q 452 317 461 313 q 438 329 443 322 q 415 361 422 343 q 408 399 408 379 q 409 440 407 419 q 415 479 411 460 q 447 497 426 499 q 488 493 468 496 q 547 534 528 500 q 578 600 567 568 q 599 674 582 640 q 622 746 615 708 q 633 766 632 754 q 646 785 633 778 q 688 667 669 726 q 736 551 707 608 l 749 540 q 865 534 806 532 q 981 544 925 536 q 1017 557 999 551 q 1051 575 1036 563 q 1103 668 1083 619 q 1136 769 1124 717 q 1142 772 1140 774 q 1172 674 1153 722 q 1204 578 1190 626 q 1207 557 1206 567 q 1219 540 1208 547 q 1243 535 1231 538 q 1267 536 1256 533 q 1275 528 1272 533 q 1281 518 1278 524 q 1301 480 1297 501 q 1311 438 1304 458 q 1314 397 1319 414 q 1295 367 1308 381 q 1266 340 1282 353 q 1239 310 1250 326 q 1234 294 1233 301 q 1238 279 1235 286 q 1245 265 1242 272 q 1249 250 1249 258 q 1225 211 1231 233 q 1219 165 1219 189 q 1223 117 1219 142 q 1229 71 1226 92 q 1278 59 1251 60 q 1332 58 1306 58 q 1383 54 1358 58 q 1429 33 1408 50 q 1504 22 1468 21 q 1576 31 1540 24 q 1649 44 1613 38 q 1724 51 1686 51 q 1739 49 1731 54 q 1750 54 1747 44 q 1746 57 1747 57 q 1709 67 1726 60 q 1675 85 1692 74 q 1678 126 1681 104 q 1665 164 1676 149 q 1614 182 1642 178 q 1558 182 1586 186 q 1547 181 1553 185 q 1536 182 1542 178 q 1526 194 1532 189 q 1521 210 1519 200 q 1503 226 1517 222 q 1506 233 1504 229 q 1506 239 1508 236 l 1503 236 q 1478 243 1490 231 q 1493 276 1474 260 q 1494 295 1497 286 q 1483 313 1490 304 q 1467 328 1476 321 q 1453 344 1458 336 q 1453 403 1447 375 q 1463 461 1460 432 q 1450 497 1457 481 q 1443 535 1443 514 q 1463 560 1446 554 q 1496 574 1481 565 q 1550 618 1529 589 q 1601 671 1571 647 q 1626 652 1618 664 q 1638 626 1633 640 q 1647 597 1643 613 q 1658 569 1650 582 q 1672 553 1663 557 q 1694 548 1682 549 q 1718 548 1706 547 q 1742 546 1731 549 q 1769 567 1758 553 q 1793 594 1779 582 q 1799 617 1793 607 q 1809 639 1804 628 q 1815 662 1814 650 q 1808 686 1817 674 m 1096 90 l 1096 121 q 1069 106 1082 114 q 1043 86 1056 97 q 1037 101 1036 93 q 1033 117 1038 110 l 1004 100 q 999 108 1000 103 q 997 117 999 113 l 963 71 q 978 74 971 69 q 991 83 985 78 q 1003 93 997 88 q 1017 100 1008 99 q 1022 96 1019 97 q 1028 92 1025 94 q 1024 85 1026 89 q 1024 78 1022 82 q 1049 87 1038 81 q 1071 97 1060 93 q 1096 90 1081 88 m 913 32 l 913 53 q 878 49 897 47 q 846 54 860 50 q 812 56 829 53 q 778 63 794 60 q 744 67 761 67 q 708 63 726 68 q 688 55 699 60 q 683 33 676 50 l 688 33 q 741 56 713 53 q 798 53 769 58 q 856 41 826 49 q 913 32 885 33 m 1799 647 q 1781 655 1788 647 q 1769 671 1774 663 q 1758 684 1764 679 q 1740 685 1751 689 l 1740 681 q 1770 646 1753 661 q 1789 607 1788 631 q 1779 606 1783 603 q 1769 608 1775 608 q 1742 646 1750 625 q 1721 685 1735 667 q 1717 670 1714 678 q 1721 656 1721 663 q 1754 599 1733 625 q 1755 591 1753 594 q 1760 585 1757 588 q 1759 574 1757 582 q 1754 564 1761 567 l 1742 564 q 1707 619 1718 589 q 1685 681 1696 649 q 1681 657 1681 671 q 1683 633 1681 644 q 1696 597 1690 615 q 1713 564 1701 579 q 1697 558 1706 556 q 1681 561 1688 560 q 1654 603 1661 579 l 1656 604 q 1648 628 1651 615 q 1640 653 1644 642 q 1626 674 1635 665 q 1601 683 1617 682 q 1568 653 1583 671 q 1531 638 1553 635 q 1525 674 1518 653 q 1552 697 1536 686 q 1572 726 1568 707 q 1575 739 1569 733 q 1588 752 1582 746 q 1593 767 1593 758 q 1547 817 1561 785 q 1529 885 1532 849 q 1531 902 1526 893 q 1538 919 1535 911 q 1540 935 1540 928 q 1526 947 1539 943 q 1517 931 1521 940 q 1503 924 1514 921 q 1481 931 1489 924 q 1466 947 1472 938 q 1454 967 1460 957 q 1440 986 1449 978 q 1424 1053 1431 1017 q 1433 1121 1418 1089 q 1468 1102 1451 1114 q 1501 1076 1485 1090 q 1531 1046 1517 1061 q 1561 1019 1546 1031 q 1574 1004 1564 1008 q 1588 990 1583 1000 q 1610 963 1604 979 q 1622 929 1615 946 q 1645 872 1633 901 q 1647 810 1657 842 q 1677 798 1663 804 q 1704 781 1692 792 q 1731 753 1719 768 q 1752 724 1742 739 q 1774 694 1763 708 q 1799 669 1785 681 l 1799 647 m 1008 1125 q 1013 1059 1018 1093 q 994 997 1007 1025 q 983 997 990 997 q 971 1000 976 997 q 985 1053 983 1022 q 975 1107 986 1083 q 950 1111 964 1121 q 953 1126 946 1121 q 965 1135 961 1131 q 988 1139 976 1143 q 1008 1125 1000 1135 m 824 1117 q 831 1048 832 1086 q 804 988 831 1010 q 797 987 800 990 q 789 988 793 983 q 802 1047 804 1013 q 783 1106 800 1082 q 776 1105 781 1106 q 769 1107 772 1104 q 776 1123 768 1117 q 792 1133 785 1129 q 824 1117 811 1133 m 1486 581 q 1426 563 1457 572 q 1364 548 1396 554 q 1299 540 1332 542 q 1233 547 1267 539 q 1192 656 1208 600 q 1166 770 1176 713 q 1147 888 1156 828 q 1129 1006 1139 947 q 1129 1015 1131 1008 q 1129 1024 1128 1021 q 1128 1025 1128 1024 q 1125 1025 1128 1026 q 1095 904 1108 965 q 1066 783 1082 843 q 1027 666 1050 724 q 969 557 1004 608 q 864 547 921 546 q 756 554 807 547 q 700 673 725 613 q 663 800 675 733 q 640 908 651 854 q 615 1014 629 961 q 599 990 603 1004 q 589 963 594 976 l 572 875 l 525 679 q 499 589 514 633 q 463 504 485 544 q 388 511 424 501 q 315 528 351 521 q 278 541 297 536 q 243 560 258 546 q 233 577 229 563 q 233 603 236 592 q 262 827 242 718 q 318 1040 282 936 l 315 1043 q 345 1133 332 1088 q 381 1222 358 1179 q 394 1256 389 1239 q 405 1291 399 1274 q 421 1324 411 1308 q 447 1350 431 1339 l 636 1369 q 669 1370 653 1374 q 703 1369 685 1367 q 747 1288 719 1326 q 793 1207 775 1250 q 768 1190 783 1196 q 746 1172 753 1185 q 782 1171 764 1167 q 817 1172 800 1175 l 818 1150 q 797 1155 807 1154 q 775 1149 786 1156 q 735 1085 746 1121 q 732 1010 725 1049 q 738 997 735 1003 q 742 983 742 992 q 725 971 729 981 q 732 971 728 968 q 740 975 736 974 q 764 975 751 976 q 788 972 776 974 q 811 973 800 971 q 831 986 822 975 q 840 1013 838 999 q 846 1040 843 1026 q 856 1012 850 1026 q 875 986 861 997 q 904 1039 897 1007 q 917 998 907 1019 q 947 968 926 976 l 956 976 q 1001 980 976 983 q 1046 986 1026 976 q 1033 993 1040 992 q 1019 996 1026 994 q 1028 1069 1028 1031 q 1018 1143 1029 1108 q 1002 1156 1011 1151 q 986 1169 993 1161 q 1010 1174 997 1176 q 1033 1178 1022 1171 q 1030 1189 1035 1185 q 1019 1196 1025 1193 q 1000 1207 1007 1196 q 1026 1249 1017 1225 q 1045 1294 1035 1272 q 1071 1335 1056 1317 q 1113 1364 1086 1354 q 1190 1366 1150 1365 q 1267 1361 1229 1367 q 1295 1351 1281 1354 q 1321 1332 1310 1347 q 1326 1307 1326 1321 q 1333 1283 1326 1294 q 1333 1275 1333 1281 q 1338 1268 1333 1271 l 1335 1265 q 1405 1009 1371 1136 q 1465 750 1439 882 q 1468 742 1464 749 q 1478 663 1472 703 q 1486 581 1483 622 m 1443 450 q 1432 415 1433 433 q 1431 376 1431 396 q 1430 340 1431 358 q 1422 303 1429 321 q 1370 292 1401 293 q 1319 310 1339 290 q 1313 351 1310 332 q 1323 390 1317 371 q 1335 428 1329 408 q 1338 469 1342 447 q 1329 481 1332 474 q 1319 489 1326 488 q 1363 497 1339 499 q 1411 493 1388 496 l 1419 489 l 1443 450 m 1479 299 q 1459 267 1474 281 q 1435 239 1444 254 l 1426 231 q 1383 231 1403 228 q 1344 240 1363 233 q 1306 253 1325 246 q 1268 267 1288 261 q 1263 290 1265 278 q 1264 313 1261 301 q 1277 324 1267 318 q 1286 315 1288 329 q 1314 289 1297 297 q 1347 278 1331 281 q 1355 278 1350 281 q 1363 278 1360 275 q 1396 276 1381 271 l 1417 276 q 1428 278 1424 274 q 1439 279 1433 282 q 1451 285 1444 285 q 1464 292 1460 285 q 1458 322 1457 307 q 1472 314 1465 319 q 1479 299 1479 308 m 1564 160 q 1550 137 1560 147 q 1542 111 1540 126 q 1507 100 1526 100 q 1468 97 1488 100 q 1412 103 1439 97 q 1358 117 1385 110 q 1303 128 1331 124 q 1244 129 1275 133 l 1239 129 q 1238 178 1231 153 q 1257 224 1246 203 q 1292 233 1275 235 q 1326 224 1310 231 q 1360 208 1343 217 q 1396 197 1378 199 q 1422 200 1411 196 q 1444 211 1433 204 q 1458 220 1451 215 q 1472 226 1464 225 q 1467 213 1472 219 q 1457 202 1463 207 q 1447 191 1451 197 q 1440 178 1442 185 q 1450 173 1444 175 q 1463 174 1456 171 q 1470 184 1468 178 q 1474 196 1472 190 q 1481 205 1476 201 q 1493 206 1485 208 q 1482 189 1492 194 q 1472 172 1472 183 q 1477 165 1476 169 q 1483 163 1478 161 l 1511 190 q 1532 172 1522 182 q 1558 167 1542 161 l 1564 174 q 1564 160 1569 168 m 1658 86 q 1651 65 1656 75 q 1635 51 1646 54 l 1632 53 q 1569 40 1603 44 q 1503 35 1536 35 q 1438 44 1469 36 q 1381 68 1407 51 l 1251 68 q 1244 83 1244 75 q 1243 97 1243 90 q 1319 104 1282 108 q 1392 92 1356 100 q 1465 78 1428 85 q 1542 81 1501 72 q 1558 107 1551 92 q 1573 136 1565 122 q 1592 160 1581 150 q 1622 171 1603 171 q 1640 159 1629 164 q 1651 143 1650 154 q 1653 128 1656 136 q 1647 114 1651 121 q 1626 96 1640 100 q 1601 85 1613 92 q 1629 83 1615 81 q 1658 86 1643 85 m 261 939 q 263 913 268 926 q 256 889 258 900 l 249 843 q 221 875 231 856 q 196 906 211 894 l 261 939 m 271 996 q 218 948 247 968 q 153 925 189 928 q 202 869 182 899 q 238 808 222 840 q 217 735 242 768 q 160 685 192 703 q 131 674 144 679 q 100 667 117 669 q 62 695 82 683 q 18 710 42 707 q 22 723 21 717 q 31 733 24 729 q 54 734 43 742 q 76 717 65 726 q 95 706 86 708 q 113 724 104 704 q 144 751 128 739 q 179 771 160 764 q 156 788 168 781 q 131 802 143 794 q 107 819 118 810 q 90 844 96 829 q 74 896 75 868 q 67 949 74 924 q 115 981 92 963 q 160 1020 138 1000 q 206 1058 182 1040 q 256 1086 229 1075 q 270 1044 272 1068 q 271 996 268 1021 m 117 750 l 113 746 q 85 771 101 761 q 60 800 68 781 l 61 801 l 63 800 q 68 801 65 804 q 75 800 71 797 q 100 778 90 792 q 117 750 110 765 m 94 733 q 55 745 76 744 q 14 753 33 746 q 24 765 17 763 q 38 771 31 768 q 70 758 57 771 q 94 733 83 744 m 424 278 q 370 263 399 265 q 311 263 342 261 q 294 319 296 288 q 286 379 293 350 q 294 390 293 383 q 299 403 296 396 q 292 424 297 413 q 283 445 286 435 q 281 465 279 456 q 296 483 283 475 q 321 478 307 479 q 349 476 335 478 q 372 469 363 475 q 385 446 382 463 q 383 427 381 436 q 386 408 385 418 q 407 344 396 376 q 424 278 418 313 m 467 301 l 453 235 q 417 219 433 229 q 385 200 401 210 q 354 192 369 192 q 327 197 340 192 q 301 208 314 201 q 275 219 288 215 q 256 263 254 239 q 251 268 254 265 q 253 274 249 271 q 266 285 261 276 q 282 292 271 294 q 281 278 286 285 q 272 267 276 272 q 269 257 268 261 q 282 249 269 253 q 329 249 304 250 q 377 249 354 247 q 421 256 400 250 q 458 282 442 263 q 452 296 456 289 q 444 310 449 303 q 456 306 451 308 q 467 301 461 304 m 478 176 q 472 135 481 154 q 449 100 464 115 q 417 101 433 97 q 385 107 400 106 q 339 102 361 107 q 296 90 317 97 q 253 75 275 82 q 210 64 232 68 q 200 112 204 88 q 171 151 196 136 q 156 153 164 154 q 142 153 149 151 q 149 160 142 163 q 161 163 156 158 q 178 159 169 163 q 197 153 188 156 q 213 152 206 150 q 224 167 219 154 q 240 163 233 169 q 253 150 247 157 q 265 142 260 143 q 279 153 271 140 l 251 183 q 269 168 263 178 q 286 153 276 158 q 291 163 292 156 q 289 174 290 169 q 283 183 286 179 q 279 192 279 186 q 302 185 292 192 q 323 171 313 178 q 344 159 333 164 q 371 157 356 154 q 390 171 379 165 q 410 182 400 176 q 430 195 421 188 q 443 215 439 203 q 459 215 454 218 q 467 204 464 211 q 472 189 469 197 q 478 176 474 181 m 472 81 q 463 61 475 65 q 458 60 460 60 q 454 57 457 60 q 404 58 431 58 q 354 53 378 58 q 292 38 324 50 q 253 15 275 22 q 207 8 231 8 q 159 13 183 7 q 117 28 135 18 q 95 40 107 33 q 86 61 83 46 q 103 63 94 64 q 121 59 113 61 q 138 57 129 57 q 153 61 146 57 q 129 75 146 75 q 103 82 114 75 q 99 109 92 96 q 110 135 106 122 q 119 139 115 136 q 128 139 124 142 q 140 139 132 138 q 153 138 147 140 q 178 117 172 133 q 189 85 185 100 q 188 65 189 75 q 176 53 188 56 q 199 47 188 46 q 221 49 210 47 q 243 54 232 51 q 265 57 254 57 q 311 79 286 74 q 363 85 336 85 q 419 83 390 86 q 472 81 447 81 m 889 904 q 865 899 876 906 q 840 892 853 893 q 828 910 829 897 q 826 935 826 922 q 844 951 833 947 q 867 958 856 954 q 838 958 851 958 q 814 943 824 958 q 812 914 814 928 q 822 889 810 900 q 856 888 839 882 q 889 904 874 893 m 1032 863 q 1031 876 1035 871 q 1022 886 1026 882 l 1013 894 q 1001 895 1006 892 q 990 894 996 899 q 997 890 993 892 q 1003 885 1000 888 q 989 878 996 879 q 975 871 982 876 q 913 849 943 858 q 846 843 882 840 q 828 844 836 840 q 813 844 819 847 l 811 847 q 781 856 796 851 q 751 872 765 861 q 751 881 749 876 q 754 890 753 886 q 749 892 749 890 q 728 872 736 885 q 717 847 721 860 q 728 849 724 844 q 739 857 732 854 l 749 847 q 821 717 767 778 q 871 704 842 700 q 922 731 901 707 q 960 779 943 756 q 976 802 969 789 q 990 828 983 815 q 1007 850 997 840 q 1032 863 1017 860 m 940 685 l 936 693 l 908 665 q 863 654 889 654 q 817 665 836 654 q 822 651 819 658 q 832 640 825 644 q 863 632 846 629 q 894 638 879 635 q 924 655 910 643 q 940 685 939 667 m 999 861 q 976 816 989 840 q 945 771 963 792 q 906 736 928 750 q 856 722 883 722 q 822 737 835 725 q 799 765 808 749 q 784 799 790 781 q 771 832 778 817 q 769 840 771 836 q 768 849 767 843 q 814 825 788 829 q 865 825 840 821 l 867 824 q 932 844 900 833 q 999 861 964 856 m 917 775 l 917 790 l 914 790 l 914 775 l 917 775 m 890 757 l 878 757 q 863 777 863 764 q 864 801 864 790 q 863 778 863 790 q 856 758 864 767 q 834 759 844 758 q 817 771 824 760 q 851 753 831 758 q 890 757 872 749 m 813 781 l 811 800 l 813 781 z "},"N":{"ha":1892,"x_min":0,"x_max":1714,"o":"m 907 1365 q 892 1382 904 1379 q 869 1388 881 1385 q 833 1353 844 1375 q 810 1310 821 1332 q 804 1278 807 1294 q 801 1244 801 1261 q 806 1213 801 1228 q 825 1188 811 1197 q 855 1196 842 1189 q 875 1218 868 1203 q 904 1288 892 1251 q 907 1365 917 1325 m 1711 901 l 1697 915 q 1681 933 1690 925 q 1671 954 1671 942 q 1576 988 1629 979 q 1474 981 1524 996 q 1458 991 1458 985 q 1461 1006 1457 997 q 1470 1025 1465 1015 q 1471 1044 1475 1035 q 1458 1061 1465 1053 q 1440 1072 1451 1069 q 1415 1069 1428 1071 q 1392 1058 1403 1067 q 1394 1047 1389 1051 q 1403 1039 1400 1043 q 1406 1022 1404 1031 q 1403 1007 1408 1014 l 1403 989 q 1401 972 1399 979 q 1408 956 1404 964 q 1414 940 1411 949 q 1414 922 1417 932 q 1391 897 1404 907 q 1365 878 1378 888 q 1339 857 1351 868 q 1319 831 1326 846 q 1253 867 1281 836 q 1203 926 1226 897 q 1224 1091 1213 1010 q 1256 1251 1236 1172 q 1122 1279 1193 1278 q 981 1278 1051 1281 q 950 1263 963 1274 q 929 1239 938 1253 q 915 1208 921 1225 q 907 1176 910 1192 q 901 1142 904 1160 q 889 1110 899 1125 l 864 1131 l 857 1122 l 863 1117 q 851 1100 861 1106 q 832 1090 842 1094 q 821 1087 826 1090 q 810 1090 815 1083 q 823 1118 813 1106 q 832 1147 833 1131 q 806 1157 822 1163 q 776 1149 790 1151 q 764 1180 769 1164 q 746 1208 758 1196 q 759 1244 750 1226 q 774 1281 768 1263 q 781 1319 781 1300 q 769 1357 782 1338 q 742 1381 758 1371 q 706 1388 726 1392 q 694 1381 700 1383 q 686 1371 689 1378 q 663 1322 682 1343 q 624 1278 643 1300 q 165 1201 379 1283 q 138 1175 150 1189 q 128 1139 125 1161 q 147 1057 132 1096 q 161 972 161 1018 q 165 960 163 967 q 165 949 167 954 l 167 947 l 165 944 q 168 939 165 942 q 167 933 171 936 l 168 932 q 174 904 179 915 q 158 883 169 893 q 133 865 146 874 q 113 846 119 856 q 73 808 93 826 q 36 767 53 789 q 10 722 19 746 q 0 669 0 697 q 14 642 0 651 q 42 626 28 632 q 69 622 54 621 q 96 615 83 622 q 94 611 97 613 q 90 608 92 610 q 70 599 79 607 q 58 582 61 592 q 55 553 51 568 q 65 528 58 539 q 108 518 88 524 q 146 501 128 513 q 174 498 160 494 q 200 511 189 501 q 210 476 208 494 q 217 440 211 457 l 243 256 q 261 233 250 242 q 283 217 272 225 l 215 146 l 125 140 q 110 131 117 138 q 98 116 104 124 q 85 103 92 108 q 67 99 78 99 q 60 74 65 86 q 53 50 56 63 q 60 43 56 47 q 69 39 64 39 q 88 15 89 33 l 226 0 q 324 12 275 6 q 422 21 372 18 q 462 22 442 19 q 501 25 482 24 q 537 26 518 28 q 571 32 556 25 q 652 62 610 51 q 740 71 694 72 l 932 65 q 971 49 947 50 q 1015 50 994 49 q 1159 33 1089 44 q 1306 28 1229 21 q 1342 28 1325 24 q 1379 33 1360 32 l 1381 32 l 1382 33 q 1397 37 1392 35 q 1411 38 1403 39 q 1427 50 1426 38 q 1435 71 1428 63 q 1407 147 1432 115 q 1392 165 1403 160 q 1369 171 1382 169 q 1343 172 1357 172 q 1317 172 1329 171 q 1285 183 1300 175 q 1261 206 1271 190 q 1265 214 1260 211 q 1271 222 1271 217 q 1255 223 1263 222 q 1240 231 1247 224 q 1241 238 1239 235 q 1244 243 1243 240 l 1222 239 q 1210 262 1215 250 q 1203 286 1206 274 q 1188 402 1199 346 q 1181 522 1178 458 l 1190 740 l 1193 744 q 1222 732 1208 740 q 1249 715 1236 724 q 1277 700 1263 707 q 1308 692 1292 693 q 1356 705 1335 692 q 1397 738 1378 718 q 1433 778 1417 757 q 1465 819 1450 800 q 1493 814 1478 821 q 1572 816 1533 811 q 1650 819 1610 821 l 1669 819 q 1676 821 1669 821 q 1690 840 1681 832 q 1707 856 1700 847 q 1710 878 1706 868 q 1711 901 1714 888 m 1699 904 q 1697 897 1699 899 q 1647 910 1669 900 q 1596 924 1624 921 q 1601 936 1600 929 q 1611 939 1601 943 l 1625 939 l 1699 904 m 1693 868 q 1677 863 1686 858 q 1660 867 1668 867 q 1627 881 1644 872 q 1594 874 1610 890 q 1629 860 1608 861 q 1667 847 1650 858 l 1669 847 q 1665 838 1669 842 q 1607 840 1636 843 q 1550 833 1578 836 q 1495 831 1522 829 q 1443 851 1468 833 q 1435 837 1429 846 q 1440 819 1440 828 q 1399 762 1425 790 q 1342 718 1372 733 q 1326 709 1335 711 q 1310 703 1318 707 q 1255 725 1282 711 q 1208 763 1228 739 q 1220 812 1214 788 q 1240 857 1226 836 q 1273 839 1260 849 q 1301 814 1286 829 q 1293 798 1300 806 q 1297 782 1286 790 q 1351 847 1319 814 q 1419 890 1382 879 q 1426 934 1432 911 q 1411 976 1419 957 q 1418 996 1418 986 q 1415 1016 1418 1006 q 1410 1036 1413 1026 q 1413 1057 1408 1046 q 1432 1059 1422 1064 q 1449 1047 1442 1054 q 1453 1016 1450 1032 q 1439 989 1456 1000 q 1441 978 1438 981 q 1450 974 1444 975 q 1461 972 1456 972 q 1472 969 1468 972 q 1487 963 1479 967 q 1499 950 1494 958 q 1497 945 1497 947 q 1493 942 1496 943 q 1501 933 1497 939 q 1511 929 1504 926 q 1517 941 1514 936 q 1519 954 1521 946 q 1513 961 1517 958 q 1506 969 1508 964 q 1581 976 1542 981 q 1650 954 1619 971 l 1663 943 q 1610 950 1639 943 q 1554 964 1582 957 l 1553 961 q 1567 950 1558 956 q 1579 935 1576 944 q 1588 915 1585 925 q 1603 897 1592 904 q 1614 899 1610 896 q 1624 904 1618 901 q 1663 894 1643 900 q 1693 868 1682 889 m 892 1351 q 887 1280 899 1314 q 856 1215 875 1246 q 860 1242 856 1228 q 869 1272 865 1257 q 869 1297 872 1286 q 847 1315 865 1308 l 829 1319 q 839 1343 831 1333 q 858 1364 847 1353 q 880 1367 867 1369 q 892 1351 893 1365 m 761 1289 q 722 1224 751 1254 q 735 1265 732 1242 q 729 1307 738 1288 q 694 1322 717 1326 q 699 1352 697 1338 q 717 1375 701 1367 q 731 1374 725 1378 q 744 1368 738 1369 q 761 1331 756 1351 q 761 1289 767 1311 m 879 1051 l 872 864 q 874 853 875 858 q 874 840 874 847 q 851 892 861 864 q 835 949 840 919 q 833 1007 831 978 q 851 1063 836 1036 q 874 1090 861 1081 l 879 1051 m 782 1035 q 764 993 778 1011 q 748 987 757 986 q 732 989 739 988 q 701 1031 706 1003 q 742 1035 721 1036 q 782 1035 763 1033 m 1235 1235 q 1212 1124 1225 1178 q 1201 1010 1199 1071 l 1185 897 q 1185 889 1188 893 q 1182 881 1183 885 q 1182 871 1182 878 q 1181 861 1182 865 q 1178 838 1178 850 q 1179 815 1179 825 q 1176 801 1178 808 q 1176 788 1174 794 q 1174 778 1172 782 q 1175 767 1176 774 q 1167 566 1169 669 q 1174 363 1165 463 q 1171 338 1168 349 q 1178 316 1174 326 q 1186 294 1183 306 q 1185 269 1189 283 q 1113 265 1147 269 q 1044 255 1078 261 q 976 242 1010 249 q 907 232 942 235 q 834 337 867 282 q 771 447 801 392 q 669 679 710 560 q 592 921 628 799 q 577 897 578 911 q 574 869 576 883 q 571 839 571 854 q 567 808 571 824 q 567 797 568 803 q 565 783 565 790 q 565 774 564 779 q 564 765 567 769 l 565 763 q 563 731 564 746 q 564 700 561 717 q 559 675 557 689 q 557 649 561 661 q 559 646 561 647 q 557 642 557 644 q 557 583 564 611 q 557 524 550 554 l 554 514 q 554 455 558 483 q 551 394 550 426 q 554 389 554 393 l 551 388 l 554 385 l 544 253 q 424 249 483 250 q 306 238 364 249 q 300 249 301 242 q 296 264 299 257 l 297 265 l 293 269 l 292 474 q 284 535 289 504 q 279 593 279 565 q 276 635 279 617 q 276 678 274 654 q 265 708 268 692 q 263 742 263 725 q 265 778 264 760 q 264 814 265 796 l 221 1201 q 265 1217 240 1213 q 308 1228 289 1221 q 314 1227 311 1228 q 318 1229 317 1226 q 327 1230 322 1228 q 338 1233 332 1232 q 469 1252 404 1243 q 606 1263 535 1261 q 614 1254 608 1256 q 625 1251 619 1253 q 637 1271 631 1261 q 654 1283 643 1281 q 655 1235 657 1260 q 672 1196 653 1211 q 693 1188 681 1189 q 717 1190 706 1188 l 735 1199 q 749 1170 742 1185 q 749 1139 757 1156 q 764 1118 751 1125 q 776 1125 771 1119 q 788 1135 782 1131 q 801 1142 794 1140 q 815 1139 807 1144 q 798 1113 813 1119 q 772 1093 783 1107 q 783 1084 776 1086 q 794 1079 789 1082 q 765 1063 782 1067 q 728 1061 747 1058 q 679 1080 703 1068 q 640 1111 656 1092 q 642 1117 643 1114 q 642 1125 642 1121 q 626 1130 633 1131 q 613 1126 619 1129 q 599 1117 606 1122 q 586 1111 593 1113 q 589 1090 581 1101 q 614 1082 604 1093 q 632 1061 624 1071 q 667 989 651 1025 q 710 921 682 953 q 719 915 715 918 q 728 910 722 913 q 767 916 751 906 q 793 943 782 926 l 815 989 q 815 976 813 983 q 813 965 817 969 q 827 887 814 924 q 858 816 840 850 q 894 747 875 782 q 924 675 913 713 q 950 635 936 656 q 982 600 964 615 q 981 615 985 607 q 975 629 976 622 q 955 783 960 704 q 952 941 950 861 q 963 1099 954 1021 q 981 1253 971 1178 q 984 1258 983 1254 q 988 1263 985 1261 q 1051 1267 1018 1265 q 1117 1267 1085 1269 q 1178 1258 1149 1265 q 1235 1235 1208 1250 m 1403 118 q 1379 111 1392 111 q 1353 111 1367 111 q 1328 109 1340 111 q 1306 97 1315 107 q 1284 92 1294 94 q 1263 86 1274 89 q 1258 88 1261 89 q 1253 85 1256 86 q 1181 90 1215 82 q 1117 119 1146 97 q 1041 129 1079 122 q 965 128 1003 136 q 944 154 951 139 q 932 188 936 169 q 942 198 938 192 q 951 210 947 204 q 962 222 956 217 q 979 225 968 226 q 983 215 982 219 q 990 208 983 210 q 1063 209 1026 201 q 1131 236 1100 217 q 1158 247 1140 249 q 1190 243 1175 244 q 1197 240 1193 243 q 1203 236 1200 238 l 1185 210 q 1192 200 1188 206 q 1203 200 1196 194 q 1212 212 1207 207 q 1224 219 1217 217 q 1236 210 1231 218 q 1222 200 1229 206 q 1210 188 1215 194 q 1220 181 1213 181 q 1233 183 1228 182 q 1246 192 1239 190 q 1260 196 1253 193 q 1271 178 1268 192 l 1260 167 l 1263 163 q 1303 162 1283 164 q 1342 157 1322 160 q 1352 156 1347 160 q 1364 151 1357 151 q 1387 139 1375 146 q 1403 118 1399 132 m 1419 79 q 1414 64 1417 71 q 1403 50 1411 57 q 1267 39 1338 31 q 1132 60 1196 47 q 1090 72 1110 64 q 1051 88 1071 79 l 1047 69 q 1036 71 1043 74 q 1011 73 1025 74 q 988 69 997 72 q 957 73 972 71 q 933 92 942 75 q 932 99 933 97 q 1019 119 978 125 q 1101 99 1060 114 q 1184 72 1142 85 q 1272 72 1226 60 q 1308 83 1289 76 q 1346 93 1326 90 q 1384 94 1365 96 q 1419 79 1403 92 m 915 124 l 911 122 q 788 135 851 131 q 663 133 725 140 q 658 128 658 131 q 653 122 657 125 q 715 118 683 118 q 779 119 747 118 q 842 117 811 119 q 900 103 872 114 l 899 101 q 819 108 858 108 q 742 103 781 107 q 664 97 703 100 q 586 97 625 94 q 592 168 593 131 q 569 233 590 206 l 576 244 q 573 449 571 346 q 581 653 575 553 q 631 557 608 607 q 683 460 653 507 q 753 342 715 400 q 835 231 790 283 q 857 208 846 219 q 885 199 868 197 l 910 200 q 899 164 899 182 q 900 153 897 157 q 907 144 903 149 q 914 134 911 139 q 915 124 917 129 m 268 647 q 240 569 265 603 q 178 506 214 535 q 127 522 151 513 q 75 535 103 532 q 82 555 72 549 q 101 568 92 561 l 157 549 q 183 596 168 572 q 204 646 197 619 l 196 651 l 179 632 q 142 636 161 636 q 103 635 122 636 q 66 635 85 633 q 31 646 47 638 q 17 659 19 651 q 16 675 14 667 q 22 692 18 683 q 25 707 25 700 q 45 751 32 731 q 74 793 58 772 q 142 858 107 828 q 219 907 178 889 q 217 842 222 875 q 210 778 213 810 q 158 737 186 754 q 108 692 131 719 q 119 691 114 689 q 129 694 124 693 q 157 708 142 703 q 188 711 172 714 q 210 699 197 704 q 234 686 222 693 q 255 670 246 679 q 268 647 264 661 m 146 574 q 117 581 131 576 q 90 589 104 585 q 99 599 90 599 q 113 603 107 599 q 127 601 121 606 q 140 593 133 597 q 146 574 149 582 m 572 135 q 565 115 568 125 q 554 97 561 104 q 464 102 510 104 q 378 86 418 100 q 367 85 371 88 q 356 85 363 82 q 351 81 354 79 q 344 79 347 82 l 343 81 q 297 67 321 75 q 249 56 272 60 q 201 52 225 51 q 156 65 178 53 q 133 74 144 69 q 114 92 121 79 q 112 107 113 100 q 118 119 111 114 q 145 132 131 129 q 176 133 160 135 q 207 130 192 132 q 238 129 222 128 q 260 157 243 146 q 269 155 265 158 q 277 147 274 151 q 285 142 281 143 q 293 147 289 140 q 281 165 290 158 q 271 183 272 172 q 290 171 283 181 q 307 154 297 161 q 314 158 311 156 q 319 164 317 161 l 293 199 q 308 215 297 210 q 331 225 319 221 q 400 215 368 228 q 464 193 432 203 q 506 218 483 206 q 551 219 528 231 l 560 211 q 571 174 563 192 q 572 135 579 157 m 565 75 q 559 56 563 65 q 549 39 556 46 l 443 39 q 440 53 440 46 q 432 64 440 60 q 349 32 394 43 q 257 19 304 21 q 163 24 210 17 q 76 47 117 31 q 88 75 82 65 q 138 61 114 72 q 187 41 163 50 q 235 31 211 32 q 288 47 260 29 q 353 65 319 57 q 422 79 388 74 q 492 84 457 85 q 564 75 528 83 l 565 75 m 1547 878 q 1534 897 1543 892 q 1513 902 1525 901 q 1487 901 1500 903 q 1463 901 1474 900 l 1463 894 q 1507 898 1485 906 q 1547 878 1529 890 m 783 867 l 782 868 q 744 863 763 864 q 707 869 725 863 q 704 863 706 867 q 706 856 703 860 q 721 836 713 844 q 744 831 729 828 q 767 844 758 833 q 783 867 776 854 z "},"O":{"ha":1522,"x_min":0,"x_max":1401,"o":"m 1394 1285 q 1390 1309 1401 1300 q 1371 1329 1378 1318 q 1340 1335 1356 1329 q 1308 1344 1324 1340 q 1278 1348 1293 1349 q 1249 1336 1263 1347 l 1247 1338 q 1220 1331 1233 1333 q 1196 1317 1207 1328 q 1175 1315 1182 1310 q 1164 1328 1168 1319 q 1154 1344 1160 1336 q 1136 1351 1149 1351 q 1107 1351 1121 1357 q 1082 1335 1093 1344 q 1101 1311 1093 1324 q 1119 1286 1108 1299 q 1117 1245 1125 1263 q 1097 1212 1110 1228 q 1070 1181 1085 1196 q 1046 1149 1056 1165 q 1015 1188 1028 1164 q 933 1267 983 1239 q 831 1318 882 1296 q 828 1333 829 1325 q 826 1350 828 1342 q 810 1375 822 1364 q 782 1389 797 1386 q 774 1385 779 1385 q 765 1382 768 1385 q 738 1362 751 1372 q 717 1336 725 1351 q 710 1338 714 1339 q 704 1338 707 1338 q 694 1349 694 1340 q 689 1365 693 1358 q 657 1386 675 1385 q 629 1381 642 1386 q 607 1365 617 1376 q 597 1350 597 1360 q 589 1333 596 1340 l 549 1322 q 444 1284 494 1308 q 353 1215 394 1260 q 341 1198 346 1208 q 328 1181 336 1188 q 281 1244 301 1213 q 290 1265 282 1257 q 307 1278 297 1272 q 327 1291 317 1285 q 344 1307 338 1297 q 320 1330 335 1321 q 288 1338 306 1339 q 267 1323 276 1333 q 249 1303 257 1313 q 175 1315 213 1310 q 97 1317 138 1319 q 80 1305 88 1313 q 61 1294 72 1297 q 28 1269 46 1279 q 0 1239 11 1258 q 6 1226 6 1233 q 6 1212 7 1219 q 6 1197 6 1204 q 13 1186 7 1190 q 67 1191 40 1193 q 120 1184 94 1189 q 173 1174 146 1179 q 228 1169 200 1169 q 258 1124 251 1151 q 269 1069 264 1097 q 259 1037 264 1053 q 250 1003 254 1021 q 238 876 239 943 q 256 751 236 810 q 275 710 267 732 q 299 672 283 689 q 335 621 314 644 q 379 578 356 597 q 476 510 424 538 q 493 484 489 499 q 496 454 497 469 q 490 423 494 439 q 485 393 486 407 q 483 370 481 383 q 475 351 486 357 q 444 332 460 343 q 431 299 428 321 q 432 240 446 269 q 399 186 418 210 q 385 175 390 182 q 376 161 381 168 q 365 149 371 154 q 350 142 360 143 q 331 124 339 135 q 321 101 322 114 q 308 83 318 90 q 292 68 299 75 q 290 56 290 63 q 293 43 289 49 q 331 24 311 33 q 371 9 350 15 q 413 1 392 3 q 458 4 435 -1 q 517 28 488 15 q 578 51 546 40 q 649 58 614 54 q 722 65 685 63 q 776 61 751 67 q 828 49 801 56 q 873 22 849 31 q 926 15 897 13 q 976 31 951 21 q 1024 49 1000 40 q 1074 60 1049 57 q 1126 53 1099 63 q 1126 66 1125 60 q 1128 79 1128 72 q 1108 94 1119 90 q 1083 98 1096 97 q 1056 98 1069 99 q 1029 100 1042 97 q 1021 118 1024 106 q 1016 131 1013 122 q 1010 144 1019 140 q 983 154 996 149 q 954 160 969 160 q 941 178 947 171 q 932 197 935 186 q 920 241 929 221 q 900 282 911 261 q 910 322 893 306 q 897 344 900 332 q 878 364 893 357 q 842 413 853 382 q 831 475 832 443 q 869 499 850 486 q 907 524 888 511 q 938 547 922 536 q 968 572 953 557 q 1030 648 1004 608 q 1069 732 1056 688 q 1093 803 1089 763 q 1101 876 1104 838 q 1096 953 1099 915 q 1097 1026 1093 990 q 1125 1093 1100 1063 q 1151 1132 1140 1113 q 1178 1169 1163 1151 q 1200 1183 1189 1175 q 1226 1186 1211 1192 q 1258 1203 1242 1197 q 1292 1215 1275 1208 q 1333 1225 1311 1221 q 1376 1222 1356 1229 q 1388 1236 1386 1228 q 1390 1253 1390 1244 q 1388 1269 1389 1261 q 1394 1285 1388 1278 m 1310 1331 q 1297 1327 1303 1331 q 1284 1321 1290 1324 q 1272 1319 1278 1318 q 1263 1329 1267 1319 q 1269 1333 1265 1333 q 1278 1336 1275 1333 q 1310 1331 1293 1338 m 1383 1293 q 1370 1277 1379 1281 q 1350 1273 1361 1274 q 1328 1270 1339 1272 q 1311 1258 1318 1268 q 1326 1256 1318 1253 q 1340 1258 1333 1258 q 1374 1264 1353 1264 l 1374 1238 q 1367 1237 1371 1238 q 1360 1239 1363 1236 q 1355 1238 1357 1236 q 1350 1239 1353 1240 q 1306 1233 1326 1240 q 1266 1215 1286 1225 q 1226 1199 1246 1206 q 1181 1196 1206 1193 q 1144 1154 1158 1176 q 1119 1108 1131 1132 l 1110 1097 q 1088 1123 1099 1108 q 1065 1149 1076 1138 l 1065 1151 q 1072 1157 1067 1151 q 1083 1170 1075 1164 q 1093 1183 1090 1176 q 1115 1210 1100 1199 q 1129 1242 1131 1222 q 1131 1255 1128 1249 q 1136 1268 1133 1261 q 1129 1302 1136 1286 q 1104 1326 1122 1318 q 1103 1329 1103 1328 q 1100 1333 1103 1331 q 1123 1340 1110 1342 q 1147 1331 1136 1339 q 1160 1309 1154 1321 q 1182 1300 1165 1297 q 1190 1289 1186 1294 q 1199 1281 1194 1283 q 1199 1290 1199 1283 q 1197 1301 1200 1297 q 1213 1317 1204 1310 q 1233 1326 1222 1324 q 1246 1316 1239 1319 q 1260 1308 1253 1313 q 1272 1299 1267 1304 q 1279 1286 1276 1294 q 1286 1299 1290 1292 q 1293 1311 1282 1307 q 1325 1320 1308 1318 q 1358 1319 1342 1322 q 1331 1306 1346 1311 q 1304 1292 1317 1300 q 1317 1288 1310 1288 q 1329 1290 1324 1289 q 1342 1294 1335 1292 q 1357 1299 1350 1297 q 1371 1301 1364 1301 q 1383 1293 1378 1300 m 818 1313 l 803 1317 q 778 1302 788 1313 q 765 1278 769 1292 q 759 1249 761 1264 q 754 1222 757 1235 q 740 1225 744 1219 q 733 1238 736 1231 q 734 1275 735 1256 q 735 1313 733 1294 q 745 1346 738 1331 q 772 1371 753 1361 q 785 1373 779 1372 q 799 1371 792 1374 q 811 1349 808 1361 q 817 1326 814 1338 l 818 1313 m 682 1310 q 673 1321 676 1314 q 660 1325 669 1328 q 629 1288 636 1313 q 618 1240 622 1264 q 621 1229 619 1235 q 619 1219 622 1224 q 601 1264 600 1236 q 607 1315 603 1292 q 619 1348 615 1329 q 643 1371 622 1367 q 678 1354 667 1375 q 686 1333 683 1344 q 682 1310 689 1321 m 1067 792 q 1065 783 1068 788 q 1063 774 1063 779 q 1003 651 1044 707 q 910 544 961 594 q 867 519 889 531 q 822 499 846 507 q 717 479 774 482 q 607 483 660 476 q 533 513 569 493 q 463 559 496 532 q 401 618 429 586 q 354 686 374 650 q 320 794 332 739 q 310 911 308 849 q 356 1064 313 997 q 376 1124 363 1096 q 407 1181 389 1153 q 465 1244 431 1217 q 536 1290 500 1272 l 540 1294 q 561 1299 551 1297 q 581 1307 571 1301 q 582 1287 583 1297 q 583 1267 581 1276 q 582 1265 583 1265 q 582 1264 582 1265 l 583 1263 l 582 1260 q 589 1233 588 1247 q 593 1206 590 1219 l 589 1201 q 619 1199 604 1194 q 649 1203 633 1204 l 676 1206 q 687 1227 685 1215 q 696 1250 689 1239 q 694 1253 693 1251 q 697 1257 696 1256 q 701 1282 700 1268 q 703 1308 703 1296 l 704 1310 q 710 1292 711 1303 q 714 1274 710 1282 l 713 1272 q 718 1235 714 1253 q 733 1203 722 1218 q 819 1207 778 1201 q 820 1227 815 1218 q 828 1246 825 1236 q 831 1268 831 1257 q 835 1290 831 1279 q 890 1269 863 1279 q 939 1236 917 1260 l 942 1236 q 973 1206 957 1221 q 1001 1172 989 1192 q 1044 1103 1025 1139 q 1065 1026 1063 1068 q 1084 909 1082 974 q 1067 792 1086 844 m 343 1092 q 333 1064 343 1076 q 311 1040 324 1051 q 291 1068 299 1053 q 278 1099 283 1083 q 266 1130 272 1114 q 250 1160 260 1146 q 245 1171 247 1165 q 236 1181 243 1176 q 182 1183 208 1178 q 129 1193 156 1188 q 77 1201 103 1199 q 24 1196 51 1204 l 17 1203 q 33 1217 24 1213 q 54 1224 43 1221 q 76 1229 65 1226 q 96 1239 88 1232 q 82 1243 89 1243 q 69 1241 75 1243 q 56 1237 63 1239 q 42 1236 49 1235 q 33 1233 38 1233 q 25 1231 29 1233 q 21 1232 22 1233 l 19 1231 l 18 1232 q 47 1255 29 1251 q 82 1263 64 1258 q 86 1256 85 1260 q 93 1251 88 1251 q 119 1273 104 1265 q 140 1299 135 1281 l 139 1300 q 112 1295 126 1297 q 86 1300 97 1293 q 96 1306 89 1306 q 107 1307 103 1307 q 135 1307 122 1314 q 164 1296 149 1300 q 195 1296 179 1293 q 228 1296 211 1299 q 217 1280 225 1286 q 208 1264 208 1274 q 204 1253 203 1260 q 204 1240 206 1247 q 177 1239 192 1238 q 153 1228 163 1240 q 172 1224 161 1222 q 192 1225 182 1225 q 215 1230 203 1228 q 243 1231 228 1232 l 246 1233 q 240 1238 244 1238 q 229 1239 235 1239 q 221 1241 224 1239 q 221 1251 218 1243 q 231 1272 219 1267 q 250 1283 242 1276 q 269 1311 267 1292 q 278 1319 275 1314 q 288 1325 281 1324 q 310 1323 300 1328 q 329 1311 321 1318 q 323 1305 329 1306 q 314 1301 317 1304 q 291 1288 301 1297 q 278 1265 281 1278 q 270 1242 268 1253 q 280 1224 272 1232 q 297 1207 288 1215 q 310 1189 306 1199 q 335 1144 325 1168 q 343 1092 344 1119 m 103 1278 q 96 1269 99 1271 q 70 1270 83 1269 q 46 1267 57 1271 q 74 1285 54 1282 q 89 1285 82 1285 q 103 1278 96 1285 m 851 335 q 828 321 839 329 q 801 313 817 313 q 784 328 789 315 q 772 350 779 340 q 764 389 768 369 q 758 429 760 408 q 833 406 801 439 q 844 371 836 388 q 851 335 853 354 m 1001 118 q 1000 113 997 115 q 999 108 1003 111 q 979 99 990 101 q 960 88 968 97 l 961 86 q 928 69 946 75 q 890 69 910 64 q 861 84 876 78 q 835 103 846 90 q 822 117 831 113 q 811 133 814 122 q 803 150 806 140 q 799 168 801 160 q 800 172 801 171 q 800 176 799 174 q 795 184 797 179 q 788 192 793 189 q 764 208 776 200 q 754 235 751 217 q 758 242 758 238 q 764 246 757 247 q 776 247 769 249 q 787 244 782 246 q 797 244 792 243 q 804 251 801 244 q 805 260 808 257 q 799 268 801 264 q 781 271 790 269 q 763 276 771 272 q 747 285 754 279 q 739 303 740 292 q 744 314 739 310 q 751 324 749 318 q 756 305 753 314 q 768 290 758 296 q 776 290 772 288 q 783 292 779 292 q 830 299 807 293 q 867 326 853 306 l 869 344 q 884 336 882 347 q 893 321 886 325 q 869 292 886 301 q 836 274 853 282 q 849 256 839 261 q 871 250 860 251 q 890 246 882 249 q 899 244 892 249 q 909 217 903 229 q 922 190 915 204 q 896 186 904 193 q 890 180 893 183 q 892 174 888 176 q 905 168 897 167 q 918 167 913 169 q 911 163 915 164 q 904 158 907 161 q 887 146 896 151 q 878 129 878 140 q 886 124 881 125 q 897 121 892 122 q 910 138 901 133 q 928 144 918 143 q 949 143 939 144 q 969 142 960 142 q 988 133 976 135 q 999 119 999 131 l 1001 118 m 1014 61 q 983 55 997 63 q 956 40 969 47 q 927 27 942 32 q 896 28 913 22 q 850 51 874 42 q 810 86 826 61 q 801 96 803 90 q 794 108 799 101 q 777 140 782 122 q 757 168 772 157 q 749 180 750 174 q 746 193 747 186 q 774 170 765 188 q 794 138 783 153 q 826 93 810 117 q 867 61 842 69 q 913 45 885 46 q 960 54 940 44 q 979 72 971 61 q 1003 81 988 83 q 1013 79 1010 83 q 1014 68 1017 75 l 1014 61 m 754 349 q 741 333 750 340 q 725 319 732 326 q 716 303 718 311 q 722 285 714 294 q 735 277 728 278 q 743 268 742 276 q 738 239 746 253 q 732 210 731 225 q 728 190 735 199 q 724 168 722 181 q 735 158 731 163 q 743 147 740 154 l 618 147 q 618 168 621 158 q 611 186 615 178 q 605 204 607 194 q 607 225 603 214 q 601 267 607 246 q 607 308 596 289 q 585 349 589 325 q 589 396 582 374 q 588 433 586 415 q 597 467 589 450 q 664 459 631 464 q 732 457 697 454 q 736 448 738 454 q 738 438 735 442 q 744 396 742 417 q 754 356 747 375 l 754 349 m 569 410 q 560 376 560 394 q 559 341 560 358 q 553 309 558 324 q 529 285 547 294 q 507 291 518 288 q 486 304 496 294 q 493 349 492 325 q 510 390 494 372 q 508 404 510 397 q 503 417 506 411 q 501 429 501 424 q 508 442 501 436 q 543 435 528 444 q 569 410 558 425 m 589 203 q 565 185 574 196 q 544 163 556 175 q 524 131 533 147 q 503 101 514 115 l 500 104 q 498 102 497 103 q 497 100 499 101 q 501 97 500 97 l 500 96 q 496 97 497 99 q 495 97 496 97 q 494 94 494 96 q 497 93 496 92 q 478 76 486 86 q 458 61 471 65 q 426 51 442 50 q 396 58 411 51 q 366 72 381 64 q 336 85 351 81 q 332 88 332 88 q 333 97 333 90 q 337 105 336 100 q 340 113 338 110 q 345 117 346 113 q 349 122 344 122 q 366 139 356 131 q 390 140 376 147 q 406 131 400 139 q 421 119 413 124 l 419 118 q 428 114 425 118 q 439 108 432 110 q 443 119 446 113 q 440 133 440 126 q 428 148 438 144 q 413 158 418 151 q 426 156 419 160 q 438 149 432 153 q 450 146 444 146 q 464 153 457 146 l 447 171 q 440 175 443 172 q 433 181 438 178 q 424 184 428 181 q 414 185 421 188 q 420 198 415 192 q 425 211 425 204 q 427 212 426 211 q 429 213 428 213 l 429 217 q 435 224 432 219 q 442 231 439 228 q 449 228 446 231 q 457 228 453 226 q 458 225 457 226 q 471 226 465 228 q 483 231 476 225 q 482 241 486 239 q 475 250 478 243 l 478 253 l 475 256 q 474 253 471 256 l 472 254 l 474 256 q 456 277 463 265 q 447 304 449 289 q 456 322 449 315 q 469 335 463 328 l 472 333 q 463 324 465 331 q 457 313 460 318 q 468 292 458 300 q 486 276 478 285 q 513 265 500 271 q 540 265 525 258 q 563 282 554 272 q 583 303 572 292 q 580 285 585 292 q 571 271 575 278 q 567 268 567 271 q 565 264 568 265 q 543 256 556 256 q 522 246 531 257 q 522 238 519 243 q 529 233 525 232 q 535 235 533 233 q 547 235 540 233 q 560 238 553 236 q 573 236 565 235 q 583 231 581 238 q 589 203 589 219 m 600 165 q 585 144 594 154 q 569 124 576 135 q 545 90 558 107 q 518 57 532 72 q 490 38 504 47 q 461 21 476 28 q 429 12 446 14 q 394 14 413 10 q 349 30 371 19 q 307 54 326 40 l 307 68 q 358 52 335 65 q 407 32 382 39 q 417 31 413 33 q 425 28 421 29 q 429 30 428 31 q 433 31 431 29 q 443 31 438 29 q 454 33 449 32 q 462 35 457 32 q 472 40 467 38 q 510 76 496 56 q 539 119 524 97 q 556 143 546 132 q 572 167 565 154 l 590 182 q 597 174 596 179 q 600 165 599 169 m 1236 1250 q 1201 1251 1219 1261 q 1169 1233 1183 1242 l 1171 1232 q 1201 1247 1185 1244 q 1236 1250 1218 1250 m 765 1139 q 769 1161 767 1150 q 764 1183 771 1172 q 736 1192 753 1194 q 706 1188 719 1190 q 699 1178 701 1185 q 699 1168 696 1172 q 736 1178 713 1185 q 747 1158 747 1174 q 735 1131 743 1143 q 711 1117 728 1119 l 725 1115 q 749 1122 738 1118 q 765 1139 760 1125 m 831 1100 q 819 1106 824 1101 q 804 1108 814 1111 q 795 1101 797 1106 q 790 1092 793 1097 q 683 1071 742 1072 q 579 1099 624 1069 l 582 1106 q 575 1110 579 1110 q 569 1111 572 1110 q 557 1101 563 1106 q 553 1085 551 1096 l 572 1085 q 582 1076 582 1082 q 579 1067 582 1072 q 573 1055 576 1061 q 572 1043 569 1049 q 550 933 550 994 q 561 822 550 874 q 567 804 564 813 q 572 785 569 796 q 601 738 585 760 q 638 696 617 715 q 653 691 646 694 q 669 692 661 688 q 699 692 686 690 q 725 700 711 693 q 768 730 753 707 q 799 772 783 753 l 800 781 q 822 841 815 808 q 830 908 829 874 q 826 976 831 942 q 813 1040 821 1010 q 808 1054 813 1047 q 802 1068 804 1061 q 800 1082 800 1075 q 808 1096 800 1089 q 818 1094 814 1097 q 828 1093 822 1092 q 831 1100 831 1096 m 721 642 q 711 638 715 639 q 703 632 707 636 q 667 633 683 624 q 633 650 650 643 l 638 635 q 663 610 650 624 q 694 603 675 596 q 712 620 706 610 q 721 642 718 631 m 725 1044 q 713 1004 732 1024 q 686 1003 700 1003 q 664 1013 674 1003 l 667 1047 l 725 1044 m 756 819 l 754 818 q 712 830 735 833 q 669 819 689 826 q 642 833 656 833 q 625 828 633 831 q 610 819 617 826 q 603 817 604 819 q 597 811 601 814 q 566 921 568 858 q 583 1036 564 983 q 596 1055 593 1043 q 614 1064 599 1067 q 626 1062 621 1067 q 636 1054 631 1057 q 647 1016 642 1036 q 672 988 653 996 q 710 989 692 985 q 740 1010 729 993 q 759 916 756 967 q 756 819 763 865 m 765 756 q 728 718 750 733 q 678 706 706 703 q 638 717 656 706 q 608 744 621 729 q 596 767 604 756 q 599 790 588 779 q 622 807 610 801 q 650 808 635 813 q 673 794 663 804 q 694 774 683 783 q 698 781 699 776 q 696 789 697 786 l 694 790 q 694 797 697 794 q 694 806 692 800 q 764 782 732 811 q 769 769 771 775 q 765 756 768 763 z "},"P":{"ha":1447,"x_min":139,"x_max":1247,"o":"m 1226 1165 q 1178 1259 1215 1217 q 1099 1329 1142 1301 l 1039 1358 q 1016 1367 1028 1363 q 993 1374 1004 1371 q 823 1389 913 1396 q 656 1361 733 1382 q 616 1347 636 1354 q 576 1336 596 1340 q 530 1324 554 1331 q 485 1305 506 1317 q 447 1276 464 1293 q 425 1233 431 1260 l 454 964 q 466 854 461 908 q 474 743 471 800 q 449 719 460 732 q 426 693 438 707 q 390 646 407 669 q 347 604 372 622 q 316 589 329 601 q 288 569 303 576 q 240 549 264 558 q 194 522 215 539 q 192 508 189 515 q 201 496 194 501 q 210 490 206 493 q 217 482 215 488 q 213 478 214 481 q 210 476 213 476 q 206 466 208 471 q 207 456 204 461 q 216 443 213 450 q 222 428 219 436 q 228 415 225 421 q 239 404 232 408 q 248 405 243 406 q 256 410 253 404 q 274 397 268 406 q 285 392 279 390 q 295 399 290 394 q 304 408 300 403 q 314 414 308 413 q 347 442 326 433 q 385 464 367 451 q 391 453 390 460 q 392 440 392 447 q 392 427 392 433 q 400 417 393 421 q 435 404 411 401 q 446 410 440 407 q 454 421 451 414 q 454 438 458 431 q 442 458 444 446 q 438 483 439 469 q 438 509 438 496 q 438 535 439 522 q 428 556 425 547 q 439 573 431 565 q 458 588 447 581 q 474 604 469 596 l 476 600 q 481 538 483 571 q 482 472 479 504 q 480 448 482 460 q 476 424 478 436 q 476 401 475 413 q 486 379 478 389 q 481 356 489 365 q 467 336 474 347 q 448 326 458 331 q 428 315 438 321 q 414 300 419 308 q 411 278 408 292 q 390 262 400 269 q 365 249 379 254 q 351 222 364 232 q 332 199 339 213 q 283 199 306 208 q 242 169 260 189 q 215 156 228 167 q 186 154 203 146 q 172 144 175 154 q 160 131 168 135 q 151 131 156 132 q 144 132 147 129 q 143 131 144 131 q 143 129 143 131 q 142 115 139 122 q 153 104 146 107 q 196 113 175 99 q 228 85 214 101 q 258 53 243 69 q 319 28 283 31 q 386 35 354 26 q 419 51 406 38 q 451 71 433 65 q 493 88 471 85 q 539 96 515 92 l 744 99 l 758 94 q 768 84 765 92 q 776 72 771 76 q 821 63 799 69 q 867 67 843 56 q 888 51 878 60 q 911 38 897 43 q 979 7 943 18 q 1057 3 1015 -4 q 1091 15 1075 6 q 1122 33 1107 24 q 1153 51 1138 43 q 1186 63 1168 60 q 1203 81 1196 71 q 1210 103 1210 90 q 1183 117 1199 113 q 1153 125 1168 121 q 1126 138 1138 129 q 1110 165 1114 146 q 1062 173 1086 174 q 1013 178 1038 172 l 1011 175 q 1000 180 1006 179 q 990 186 994 181 q 997 197 993 194 q 985 190 990 197 q 972 192 979 183 q 972 201 967 199 q 981 208 978 203 q 976 206 978 207 q 971 204 974 206 q 944 207 956 196 q 944 216 939 213 q 953 224 950 219 q 952 242 957 233 q 946 260 947 250 q 922 281 935 271 q 889 286 908 290 l 875 307 q 851 360 869 336 q 824 411 833 383 q 822 446 822 428 q 842 476 822 465 q 860 478 853 482 q 874 467 868 474 q 888 455 881 461 q 906 449 894 449 q 918 451 913 451 q 928 457 924 451 q 1008 513 972 476 q 1058 592 1043 550 q 1042 631 1054 614 q 1013 662 1029 649 q 978 687 996 675 q 943 711 960 699 q 930 717 936 714 q 919 726 924 719 q 963 735 939 735 q 1006 744 986 735 q 1037 758 1022 750 q 1067 775 1051 765 q 1090 788 1081 778 q 1113 801 1100 797 q 1146 829 1128 815 q 1180 859 1164 843 q 1208 893 1196 875 q 1225 932 1221 911 q 1242 987 1238 957 q 1247 1047 1247 1017 q 1240 1108 1246 1078 q 1226 1165 1235 1139 m 1226 982 q 1182 887 1219 929 q 1100 817 1144 844 q 1070 801 1085 807 q 1040 786 1056 796 q 939 762 993 767 q 829 763 885 757 l 826 760 q 827 755 829 757 q 825 750 825 753 q 826 746 828 747 q 825 742 825 744 q 828 712 826 728 q 831 681 831 696 q 826 651 831 665 q 810 629 821 638 q 788 616 797 626 q 775 594 778 606 q 779 578 772 585 q 781 564 786 572 q 775 538 774 550 q 786 530 778 531 q 792 522 794 529 q 804 502 793 507 q 821 486 815 497 q 807 435 818 458 q 793 383 796 411 q 801 376 797 381 q 808 367 804 371 q 815 362 811 363 q 825 368 818 361 l 828 371 q 844 349 839 363 q 858 325 850 336 q 869 292 864 308 q 879 257 875 275 q 847 246 864 249 q 811 240 829 243 q 785 285 796 263 q 758 328 774 307 q 759 337 756 333 q 767 340 763 340 q 778 340 772 342 q 786 346 785 339 q 776 356 782 354 q 765 356 771 357 q 752 352 758 354 q 740 350 746 350 q 647 345 694 347 q 556 336 600 343 q 554 330 549 333 q 560 324 560 326 q 547 294 553 308 q 525 268 540 279 q 485 278 500 267 q 478 306 471 289 q 489 324 488 313 q 500 343 490 335 q 507 358 503 350 q 519 368 511 365 q 524 361 524 365 q 531 358 525 357 l 538 365 l 536 621 l 522 882 q 520 899 522 890 q 521 915 518 907 q 518 940 515 928 q 514 965 521 953 q 512 1004 511 985 q 506 1042 513 1024 q 507 1060 508 1051 q 504 1078 506 1069 l 501 1082 l 503 1083 q 488 1184 494 1133 q 471 1285 482 1235 q 495 1297 482 1296 q 521 1303 508 1297 q 565 1317 543 1311 q 608 1332 588 1322 q 654 1346 632 1338 q 700 1361 676 1354 q 824 1381 758 1376 q 951 1372 889 1386 q 988 1367 971 1374 q 1024 1356 1006 1360 q 1044 1345 1032 1347 q 1063 1332 1056 1343 q 1092 1315 1078 1325 q 1122 1294 1107 1304 q 1219 1155 1193 1238 q 1226 982 1246 1072 m 1025 633 q 1036 588 1036 614 q 1021 544 1036 563 q 994 517 1006 535 q 964 493 983 500 q 929 469 947 479 q 888 464 911 458 q 881 475 882 469 q 878 488 879 481 q 894 499 885 497 q 910 513 903 501 q 891 513 900 518 q 875 501 882 507 q 857 490 865 497 q 838 486 849 483 q 834 495 836 490 q 835 506 832 500 q 860 522 846 517 q 885 539 874 528 q 856 536 869 542 q 832 524 843 531 q 825 518 828 522 q 817 515 822 514 q 839 547 819 536 q 875 569 858 558 l 879 574 q 866 579 872 581 q 853 574 860 578 q 829 554 840 567 q 801 544 818 542 l 794 544 q 802 561 794 554 q 817 574 810 568 l 863 610 q 849 616 856 617 q 837 611 843 615 q 824 601 831 607 q 810 594 817 596 q 793 589 804 589 q 797 605 793 599 q 808 616 801 611 q 823 625 815 621 q 836 633 831 629 q 857 635 847 640 q 875 625 867 631 q 905 571 899 601 q 928 513 911 540 q 932 513 931 511 q 936 517 933 515 q 933 545 940 532 q 931 574 925 558 l 988 631 q 982 633 985 633 q 976 632 979 632 q 958 624 967 628 q 939 614 949 619 q 926 610 932 613 q 911 608 919 607 q 891 635 899 619 q 864 657 883 651 l 851 656 q 862 694 854 675 q 886 726 869 714 q 960 684 922 703 q 1025 633 997 665 m 1114 140 q 1117 110 1121 126 q 1108 81 1114 94 q 1095 67 1103 71 q 1079 61 1088 64 q 1049 56 1064 61 q 1017 47 1033 50 q 986 44 1001 43 q 957 57 971 46 q 932 73 946 68 q 906 89 918 78 q 856 110 882 101 q 801 107 829 118 q 772 153 776 125 q 779 171 775 163 q 793 183 783 179 q 815 185 803 188 q 835 190 826 183 q 803 199 819 196 q 776 217 788 201 q 777 235 776 226 q 785 251 778 244 q 788 239 783 243 q 798 232 792 235 q 812 227 804 229 q 824 221 819 225 q 865 227 846 219 q 904 242 885 235 q 913 251 911 244 q 913 265 915 258 l 894 274 q 906 276 899 279 q 918 272 913 274 q 938 251 933 265 q 940 241 940 247 q 935 232 939 235 q 919 222 928 225 q 902 217 911 219 q 885 211 893 215 q 874 199 878 207 q 907 191 889 192 q 944 190 925 190 q 933 177 940 183 q 926 161 925 171 q 939 154 932 153 q 951 171 947 161 q 964 183 954 181 q 960 174 964 178 q 953 165 956 169 q 949 157 950 161 q 954 147 947 153 q 969 165 963 154 q 989 174 975 176 q 998 167 993 169 q 1004 158 1003 165 q 1033 160 1018 158 q 1063 161 1049 161 q 1091 157 1078 161 q 1114 140 1104 153 m 1144 67 q 1124 46 1133 56 q 1099 33 1114 36 q 1057 15 1079 19 q 1011 11 1035 10 q 970 21 989 13 q 933 38 951 29 q 895 61 914 47 q 856 82 876 75 q 816 73 839 67 q 776 89 793 79 l 778 101 q 828 94 803 99 q 879 93 853 90 q 899 76 889 85 q 921 63 910 68 q 969 38 942 43 q 1024 33 996 32 l 1025 35 q 1039 35 1032 35 q 1053 39 1046 36 l 1126 68 l 1143 82 q 1146 74 1144 79 q 1144 67 1147 69 m 513 708 q 513 678 513 693 q 506 649 513 663 q 458 609 476 633 q 415 561 440 585 q 426 530 425 547 q 426 494 426 513 q 428 460 425 476 q 449 433 432 443 q 439 422 446 425 q 425 417 432 418 q 413 419 415 413 q 403 429 410 426 q 401 444 400 438 q 401 460 401 451 q 399 469 397 467 q 404 474 400 474 q 407 479 408 474 q 381 476 393 481 q 358 463 368 471 q 337 447 347 456 q 317 433 326 439 q 301 416 307 428 q 279 408 294 404 q 283 431 278 421 q 297 448 289 440 q 314 463 306 456 q 329 479 322 469 q 325 484 328 482 q 322 489 322 486 q 298 474 307 485 q 282 452 289 464 q 265 431 275 440 q 239 421 256 421 q 261 460 242 447 q 299 489 281 474 q 298 498 301 494 q 290 504 294 501 q 277 496 283 500 q 267 485 271 492 q 219 454 254 454 q 224 469 219 463 q 234 481 228 475 q 247 490 240 486 q 258 501 254 494 q 273 508 268 500 q 285 517 278 515 q 283 527 286 524 q 275 535 279 531 q 260 524 267 532 q 244 515 254 517 q 227 508 238 510 q 210 507 217 507 q 220 527 211 519 q 240 538 229 535 q 270 551 254 549 q 297 569 286 554 q 327 588 313 576 q 361 596 342 599 q 410 660 388 628 q 467 715 432 692 l 494 735 q 507 724 504 732 q 513 708 510 715 m 776 190 l 760 174 q 749 176 756 176 q 739 175 742 175 q 722 180 731 179 q 704 182 713 181 q 690 183 697 181 q 676 186 683 185 q 641 190 657 185 q 606 194 625 194 q 593 219 596 204 q 596 247 590 233 q 602 261 599 254 q 603 275 606 268 q 594 286 601 282 q 580 294 586 290 q 572 301 574 297 q 578 314 569 306 l 582 318 l 740 318 q 760 296 750 307 q 772 269 769 285 q 760 238 765 254 q 764 204 754 221 l 776 190 m 581 268 q 575 253 579 260 q 568 239 571 246 q 543 232 557 232 q 518 233 531 232 q 492 233 506 233 q 468 226 479 232 q 477 219 471 219 q 490 219 483 218 q 501 217 496 219 q 510 207 507 215 q 544 209 528 204 q 578 208 561 214 q 557 169 576 186 q 513 153 538 157 q 468 136 488 150 q 443 119 453 131 q 419 101 433 108 q 357 79 393 82 q 292 93 321 76 q 268 104 281 100 q 249 122 256 108 q 256 158 249 142 q 282 183 264 174 q 317 171 301 182 q 350 149 333 160 q 358 161 356 150 q 321 189 339 171 q 332 188 326 186 q 343 190 338 190 q 353 200 349 196 q 365 207 358 204 q 360 193 367 200 q 365 181 354 186 q 373 181 369 178 q 376 189 376 185 q 379 196 379 192 q 385 201 379 200 q 402 187 393 194 q 419 172 411 179 q 424 179 425 175 q 424 188 422 183 q 403 205 415 197 q 394 226 392 213 q 399 228 397 231 q 404 225 401 226 q 414 217 411 222 q 420 206 417 211 q 428 199 424 201 q 440 201 432 197 q 432 215 438 208 q 422 226 426 221 q 408 239 415 233 q 392 246 401 244 q 408 260 397 257 q 415 251 413 256 q 424 243 417 246 q 431 254 431 247 q 428 268 431 261 q 424 278 425 272 q 422 289 424 283 q 435 306 424 301 q 454 317 446 311 q 451 307 451 313 q 449 297 450 301 q 452 276 449 286 q 467 260 456 265 q 510 245 485 246 q 556 250 535 244 l 572 267 q 567 270 571 269 q 560 272 563 271 q 556 275 557 274 q 560 282 554 276 q 572 276 565 279 q 581 268 578 274 m 579 153 q 571 131 575 142 q 556 118 567 121 q 528 113 542 115 q 501 106 514 111 q 499 113 499 108 q 496 119 499 117 q 466 106 479 117 q 441 82 453 94 q 416 59 429 69 q 385 47 403 49 q 331 39 361 39 q 282 56 301 39 q 244 85 258 63 l 239 103 q 256 94 249 100 q 271 85 263 89 q 327 62 296 69 q 389 67 358 54 q 443 103 415 88 q 500 135 471 119 q 539 145 519 140 q 579 153 558 150 m 982 1192 q 968 1201 975 1197 q 954 1210 961 1204 q 914 1204 932 1219 q 897 1183 901 1196 q 892 1154 892 1169 q 894 1124 892 1139 q 896 1094 896 1108 q 907 1075 901 1085 q 926 1067 913 1065 q 956 1076 946 1064 q 978 1101 967 1089 q 991 1146 993 1121 q 982 1192 989 1171 m 867 1133 q 864 1139 864 1136 q 864 1143 864 1142 q 860 1160 861 1151 q 856 1178 860 1169 q 841 1192 849 1185 q 824 1204 833 1200 q 795 1204 808 1207 q 774 1189 782 1201 q 758 1139 758 1167 q 765 1086 758 1111 q 775 1072 768 1079 q 789 1065 782 1065 q 807 1058 796 1057 q 828 1060 818 1060 q 857 1092 850 1071 q 867 1133 864 1113 m 922 1054 q 893 1062 911 1065 q 863 1051 875 1058 q 885 1052 874 1050 q 903 1047 896 1054 q 888 1033 899 1036 q 869 1022 876 1031 q 867 1017 865 1019 q 869 1013 868 1015 q 897 1022 883 1018 q 921 1038 910 1026 q 922 1054 924 1044 m 1013 1026 q 1006 1024 1010 1025 q 999 1021 1001 1024 q 872 992 943 997 q 743 1013 801 986 q 749 1022 744 1018 q 757 1028 754 1025 l 753 1032 q 731 1021 740 1029 q 715 1001 722 1013 l 735 1000 q 770 978 753 996 q 793 942 788 961 q 825 910 804 919 q 869 903 846 901 q 878 904 876 906 q 915 921 899 907 q 939 954 931 935 q 957 977 949 965 q 978 1000 965 989 q 990 1003 985 1003 q 1003 1007 996 1004 q 1013 1026 1013 1014 m 869 872 q 840 872 854 869 q 815 881 826 875 q 812 871 814 875 q 813 861 810 867 q 825 853 818 854 q 840 849 832 851 q 869 872 863 851 m 971 1176 q 975 1135 982 1157 q 957 1097 968 1114 q 950 1115 951 1104 q 947 1135 949 1125 q 940 1152 944 1144 q 921 1161 935 1160 q 912 1161 917 1163 q 903 1163 907 1160 q 909 1184 906 1174 q 925 1197 913 1194 q 951 1196 939 1203 q 971 1176 964 1189 m 846 1125 q 842 1110 843 1118 q 838 1094 842 1101 l 840 1093 l 838 1092 q 831 1110 833 1100 q 827 1129 829 1119 q 819 1147 825 1139 q 801 1158 814 1156 q 787 1157 793 1161 q 774 1154 781 1153 q 776 1170 775 1163 q 785 1183 778 1178 q 814 1194 794 1199 q 840 1175 833 1190 q 847 1151 846 1164 q 846 1125 847 1139 m 903 982 q 883 957 901 967 q 858 952 872 954 q 835 958 844 950 q 824 975 825 968 q 863 978 843 975 q 903 982 882 982 z "}}}
